{"glyphs":{"0":{"ha":509,"x_min":34,"x_max":474,"o":"m 253 10 l 253 10 q 180 10 131 -31 q 82 -72 58 -153 q 34 -235 34 -357 l 34 -357 q 34 -479 57 -560 q 79 -642 128 -683 q 176 -725 253 -725 l 253 -725 q 329 -725 378 -683 q 426 -641 450 -558 q 474 -476 474 -356 l 474 -356 q 474 -276 464 -209 q 453 -142 428 -93 q 403 -44 361 -17 q 318 10 253 10 z m 253 -122 l 253 -122 q 272 -122 285 -135 q 297 -148 305 -176 q 312 -204 316 -249 q 319 -294 319 -356 l 319 -356 q 319 -420 316 -465 q 313 -510 305 -538 q 297 -566 285 -579 q 272 -592 253 -592 l 253 -592 q 236 -592 224 -578 q 211 -565 204 -537 q 196 -509 193 -464 q 189 -419 189 -357 l 189 -357 q 189 -294 192 -249 q 195 -205 203 -177 q 210 -149 223 -135 q 235 -122 253 -122 z"},"1":{"ha":509,"x_min":43,"x_max":391,"o":"m 391 -714 l 391 0 l 235 0 l 235 -395 q 235 -423 236 -460 q 237 -497 238 -528 l 238 -528 q 233 -521 221 -506 q 208 -492 195 -480 l 195 -480 l 129 -416 l 43 -506 l 257 -714 l 391 -714 z"},"2":{"ha":509,"x_min":28,"x_max":474,"o":"m 474 0 l 28 0 l 28 -107 l 189 -304 q 233 -357 258 -393 q 283 -429 294 -457 q 304 -486 304 -517 l 304 -517 q 304 -542 296 -557 q 287 -572 272 -579 q 256 -587 236 -587 l 236 -587 q 203 -587 170 -572 q 137 -558 103 -532 l 103 -532 l 29 -642 q 59 -663 92 -682 q 124 -701 163 -712 q 202 -724 249 -724 l 249 -724 q 313 -724 360 -699 q 407 -674 434 -631 q 460 -588 460 -532 l 460 -532 q 460 -481 444 -436 q 427 -392 392 -344 q 356 -296 299 -231 l 299 -231 l 222 -140 l 222 -135 l 474 -135 l 474 0 z"},"3":{"ha":509,"x_min":32,"x_max":469,"o":"m 216 10 l 216 10 q 164 10 118 2 q 71 -6 32 -22 l 32 -22 l 32 -159 q 74 -141 115 -131 q 155 -121 195 -121 l 195 -121 q 255 -121 282 -145 q 309 -169 309 -216 l 309 -216 q 309 -245 296 -264 q 282 -284 251 -293 q 220 -303 168 -303 l 168 -303 l 123 -303 l 123 -430 l 171 -430 q 220 -430 248 -440 q 276 -451 288 -471 q 300 -492 300 -519 l 300 -519 q 300 -554 281 -573 q 261 -592 219 -592 l 219 -592 q 185 -592 156 -579 q 126 -567 102 -552 l 102 -552 l 32 -661 q 78 -691 127 -707 q 175 -724 239 -724 l 239 -724 q 306 -724 354 -703 q 402 -683 428 -644 q 454 -606 454 -550 l 454 -550 q 454 -508 437 -473 q 419 -439 389 -414 q 359 -390 318 -376 l 318 -376 l 318 -373 q 391 -360 430 -317 q 469 -275 469 -203 l 469 -203 q 469 -142 442 -93 q 414 -45 358 -17 q 302 10 216 10 z"},"4":{"ha":509,"x_min":17,"x_max":493,"o":"m 421 0 l 268 0 l 268 -142 l 17 -142 l 17 -259 l 274 -714 l 421 -714 l 421 -267 l 493 -267 l 493 -142 l 421 -142 l 421 0 z m 231 -428 l 145 -267 l 268 -267 l 268 -403 q 268 -422 269 -445 q 270 -469 271 -487 q 272 -505 273 -510 l 273 -510 l 269 -510 q 261 -489 252 -468 q 243 -447 231 -428 l 231 -428 z"},"5":{"ha":509,"x_min":45,"x_max":466,"o":"m 211 10 l 211 10 q 167 10 122 2 q 77 -7 45 -22 l 45 -22 l 45 -161 q 76 -144 115 -133 q 153 -123 198 -123 l 198 -123 q 236 -123 261 -135 q 285 -147 298 -171 q 310 -195 310 -231 l 310 -231 q 310 -279 283 -305 q 256 -332 201 -332 l 201 -332 q 177 -332 152 -327 q 127 -323 109 -316 l 109 -316 l 54 -357 l 78 -714 l 424 -714 l 424 -578 l 211 -578 l 202 -455 q 216 -457 231 -459 q 246 -461 268 -461 l 268 -461 q 329 -461 374 -434 q 418 -407 442 -358 q 466 -309 466 -241 l 466 -241 q 466 -163 439 -106 q 411 -50 355 -20 q 298 10 211 10 z"},"6":{"ha":509,"x_min":32,"x_max":480,"o":"m 263 10 l 263 10 q 213 10 171 -9 q 129 -29 98 -68 q 67 -108 50 -168 q 32 -228 32 -308 l 32 -308 q 32 -369 40 -428 q 48 -488 68 -541 q 87 -594 123 -635 q 158 -676 212 -699 q 266 -723 343 -723 l 343 -723 q 366 -723 392 -721 q 418 -719 440 -715 l 440 -715 l 440 -583 q 421 -588 400 -590 q 379 -592 358 -592 l 358 -592 q 291 -592 252 -568 q 213 -545 196 -499 q 178 -454 175 -388 l 175 -388 l 180 -388 q 192 -414 210 -432 q 227 -450 252 -460 q 276 -470 307 -470 l 307 -470 q 361 -470 400 -443 q 438 -416 459 -364 q 480 -312 480 -240 l 480 -240 q 480 -164 454 -107 q 428 -51 380 -20 q 331 10 263 10 z m 259 -122 l 259 -122 q 289 -122 309 -148 q 328 -175 328 -238 l 328 -238 q 328 -288 312 -315 q 295 -343 260 -343 l 260 -343 q 238 -343 221 -330 q 204 -317 195 -296 q 186 -276 186 -252 l 186 -252 q 186 -226 191 -202 q 195 -179 204 -160 q 213 -142 227 -132 q 240 -122 259 -122 z"},"7":{"ha":509,"x_min":26,"x_max":478,"o":"m 256 0 l 92 0 l 317 -578 l 26 -578 l 26 -713 l 478 -713 l 478 -610 l 256 0 z"},"8":{"ha":509,"x_min":29,"x_max":479,"o":"m 253 10 l 253 10 q 182 10 132 -13 q 81 -37 55 -80 q 29 -123 29 -183 l 29 -183 q 29 -227 43 -261 q 57 -295 84 -322 q 110 -350 147 -373 l 147 -373 q 117 -396 95 -423 q 73 -450 61 -481 q 49 -513 49 -552 l 49 -552 q 49 -607 76 -645 q 102 -683 149 -703 q 195 -723 254 -723 l 254 -723 q 316 -723 362 -703 q 408 -683 434 -645 q 460 -607 460 -551 l 460 -551 q 460 -511 447 -478 q 433 -446 409 -420 q 385 -395 351 -376 l 351 -376 q 391 -351 420 -322 q 448 -294 464 -260 q 479 -227 479 -187 l 479 -187 q 479 -126 452 -82 q 424 -38 373 -14 q 322 10 253 10 z m 253 -111 l 253 -111 q 294 -111 313 -131 q 331 -152 331 -187 l 331 -187 q 331 -208 322 -226 q 313 -244 298 -260 q 282 -277 262 -293 l 262 -293 l 250 -301 q 227 -286 211 -268 q 194 -251 185 -232 q 176 -213 176 -189 l 176 -189 q 176 -154 196 -132 q 215 -111 253 -111 z m 253 -449 l 253 -449 q 270 -462 284 -475 q 297 -488 305 -504 q 312 -520 312 -542 l 312 -542 q 312 -571 297 -587 q 282 -603 255 -603 l 255 -603 q 229 -603 213 -587 q 196 -571 196 -542 l 196 -542 q 196 -522 204 -505 q 211 -489 224 -475 q 237 -462 253 -449 z"},"9":{"ha":509,"x_min":29,"x_max":476,"o":"m 165 10 l 165 10 q 141 10 115 8 q 89 6 68 2 l 68 2 l 68 -131 q 87 -126 108 -123 q 129 -121 150 -121 l 150 -121 q 201 -121 236 -135 q 270 -149 291 -175 q 311 -202 322 -240 q 332 -278 333 -325 l 333 -325 l 328 -325 q 316 -301 299 -282 q 282 -263 258 -253 q 234 -243 200 -243 l 200 -243 q 147 -243 109 -270 q 70 -298 50 -349 q 29 -401 29 -473 l 29 -473 q 29 -550 55 -606 q 80 -662 129 -692 q 177 -723 245 -723 l 245 -723 q 295 -723 337 -703 q 379 -684 411 -645 q 442 -606 459 -547 q 476 -488 476 -408 l 476 -408 q 476 -345 468 -284 q 459 -223 439 -170 q 418 -117 383 -76 q 347 -36 293 -13 q 239 10 165 10 z m 248 -370 l 248 -370 q 274 -370 290 -385 q 306 -400 315 -421 q 323 -443 323 -462 l 323 -462 q 323 -479 320 -501 q 316 -523 308 -543 q 300 -564 286 -577 q 272 -591 250 -591 l 250 -591 q 220 -591 201 -564 q 181 -538 181 -475 l 181 -475 q 181 -423 198 -396 q 215 -370 248 -370 z"},"\r":{"ha":247,"x_min":0,"x_max":0,"o":""}," ":{"ha":247,"x_min":0,"x_max":0,"o":""},"ഀ":{"ha":0,"x_min":-433,"x_max":-123,"o":"m -433 -711 l -433 -711 q -433 -778 -392 -821 q -352 -864 -279 -864 l -279 -864 q -204 -864 -163 -821 q -123 -778 -123 -711 l -123 -711 q -123 -644 -163 -600 q -203 -557 -279 -557 l -279 -557 q -354 -557 -393 -600 q -433 -643 -433 -711 z m -329 -711 l -329 -711 q -329 -684 -317 -665 q -305 -647 -279 -647 l -279 -647 q -252 -647 -239 -665 q -227 -684 -227 -711 l -227 -711 q -227 -739 -240 -756 q -253 -774 -279 -774 l -279 -774 q -305 -774 -317 -756 q -329 -738 -329 -711 z"},"ഁ":{"ha":0,"x_min":-458,"x_max":-99,"o":"m -278 -634 l -278 -634 q -368 -634 -413 -679 q -458 -725 -458 -802 l -458 -802 q -458 -821 -455 -836 q -453 -852 -450 -864 l -450 -864 l -358 -850 q -360 -840 -361 -829 q -363 -819 -363 -809 l -363 -809 q -363 -777 -352 -758 q -341 -740 -322 -732 q -303 -724 -278 -724 l -278 -724 q -257 -724 -237 -731 q -218 -739 -205 -758 q -193 -777 -193 -811 l -193 -811 q -193 -818 -194 -829 q -195 -840 -198 -851 l -198 -851 l -106 -863 q -103 -851 -101 -836 q -99 -821 -99 -804 l -99 -804 q -99 -723 -143 -678 q -188 -634 -278 -634 z m -279 -750 l -279 -750 q -308 -750 -321 -765 q -334 -781 -334 -806 l -334 -806 q -334 -830 -321 -846 q -308 -862 -279 -862 l -279 -862 q -249 -862 -236 -846 q -223 -830 -223 -806 l -223 -806 q -223 -781 -236 -765 q -250 -750 -279 -750 z"},"ം":{"ha":451,"x_min":29,"x_max":422,"o":"m 226 12 l 226 12 q 162 12 118 -12 q 74 -37 52 -81 q 29 -125 29 -182 l 29 -182 q 29 -242 53 -285 q 76 -329 120 -353 q 164 -377 224 -377 l 224 -377 q 287 -377 331 -353 q 375 -329 399 -285 q 422 -242 422 -182 l 422 -182 q 422 -124 399 -80 q 376 -36 332 -12 q 288 12 226 12 z m 225 -268 l 225 -268 q 199 -268 183 -248 q 166 -229 166 -181 l 166 -181 q 166 -136 183 -116 q 199 -97 226 -97 l 226 -97 q 251 -97 268 -116 q 285 -135 285 -182 l 285 -182 q 285 -229 269 -248 q 252 -268 225 -268 z"},"ഃ":{"ha":331,"x_min":27,"x_max":304,"o":"m 27 -438 l 27 -438 q 27 -499 64 -538 q 100 -577 165 -577 l 165 -577 q 231 -577 268 -538 q 304 -500 304 -438 l 304 -438 q 304 -378 268 -339 q 232 -300 165 -300 l 165 -300 q 99 -300 63 -338 q 27 -377 27 -438 z m 126 -439 l 126 -439 q 126 -414 136 -400 q 146 -387 165 -387 l 165 -387 q 186 -387 196 -400 q 205 -414 205 -439 l 205 -439 q 205 -463 195 -476 q 185 -490 165 -490 l 165 -490 q 146 -490 136 -477 q 126 -464 126 -439 z m 27 -127 l 27 -127 q 27 -188 64 -227 q 100 -266 165 -266 l 165 -266 q 230 -266 267 -227 q 304 -188 304 -127 l 304 -127 q 304 -66 268 -27 q 232 12 165 12 l 165 12 q 99 12 63 -26 q 27 -65 27 -127 z m 126 -127 l 126 -127 q 126 -103 136 -89 q 146 -75 165 -75 l 165 -75 q 186 -75 196 -88 q 205 -102 205 -127 l 205 -127 q 205 -151 195 -164 q 185 -178 165 -178 l 165 -178 q 146 -178 136 -164 q 126 -151 126 -127 z"},"ഄ":{"ha":586,"x_min":32,"x_max":553,"o":"m 50 -346 l 50 -346 l 187 -321 q 181 -299 178 -275 q 175 -251 175 -230 l 175 -230 q 175 -166 204 -134 q 233 -103 292 -103 l 292 -103 q 353 -103 382 -134 q 411 -165 411 -229 l 411 -229 q 411 -249 408 -274 q 405 -299 399 -321 l 399 -321 l 535 -346 q 542 -323 548 -291 q 553 -259 553 -226 l 553 -226 q 553 -156 529 -103 q 505 -50 448 -20 q 391 9 292 9 l 292 9 q 195 9 138 -20 q 81 -50 57 -103 q 32 -156 32 -226 l 32 -226 q 32 -259 38 -291 q 43 -323 50 -346 z m 236 -190 l 236 -422 l 351 -422 l 351 -190 l 236 -190 z"},"അ":{"ha":1427,"x_min":34,"x_max":1394,"o":"m 352 -577 l 352 -577 q 399 -577 451 -568 q 502 -560 547 -539 l 547 -539 q 558 -535 565 -527 q 572 -519 583 -514 l 583 -514 q 608 -502 635 -483 q 661 -465 680 -438 q 698 -411 698 -371 l 698 -371 q 698 -344 690 -322 q 681 -301 662 -284 q 643 -267 613 -255 l 613 -255 l 610 -268 q 655 -253 682 -219 q 709 -186 709 -137 l 709 -137 q 709 -98 691 -64 q 672 -30 629 -9 q 586 12 511 12 l 511 12 q 426 12 376 -20 q 325 -52 303 -108 q 280 -165 280 -238 l 280 -238 q 280 -298 297 -349 q 313 -400 347 -441 q 380 -483 429 -513 l 429 -513 q 437 -518 442 -525 q 447 -532 456 -536 l 456 -536 q 494 -555 540 -566 q 585 -577 635 -577 l 635 -577 q 694 -577 737 -565 q 779 -553 811 -531 q 842 -509 868 -477 l 868 -477 l 926 -229 l 926 0 l 777 0 l 777 -279 q 777 -345 767 -382 q 757 -420 730 -443 l 730 -443 q 713 -457 689 -464 q 664 -471 633 -471 l 633 -471 q 611 -471 590 -467 q 568 -464 552 -459 l 552 -459 q 521 -449 497 -428 q 472 -408 455 -379 q 438 -350 429 -314 q 420 -278 420 -238 l 420 -238 q 420 -158 442 -127 q 464 -97 503 -97 l 503 -97 q 534 -97 549 -110 q 564 -123 564 -148 l 564 -148 q 564 -173 547 -188 q 530 -203 493 -203 l 493 -203 l 477 -203 l 477 -313 l 489 -313 q 523 -313 539 -328 q 555 -344 555 -370 l 555 -370 q 555 -400 533 -423 q 510 -446 460 -457 l 460 -457 q 440 -465 416 -468 q 392 -471 367 -471 l 367 -471 q 303 -471 263 -447 q 223 -424 204 -383 q 185 -342 185 -288 l 185 -288 q 185 -242 195 -203 q 205 -164 224 -128 q 242 -92 267 -57 l 267 -57 l 156 12 q 121 -27 94 -71 q 66 -115 50 -169 q 34 -224 34 -292 l 34 -292 q 34 -340 49 -390 q 64 -440 100 -482 q 135 -525 197 -551 q 259 -577 352 -577 z m 1183 12 l 1183 12 q 1114 12 1072 -17 q 1030 -46 1011 -95 q 991 -144 991 -205 l 991 -205 q 991 -302 1035 -355 q 1078 -408 1160 -408 l 1160 -408 q 1208 -408 1244 -381 q 1279 -355 1302 -312 q 1325 -270 1333 -223 l 1333 -223 l 1276 -218 q 1271 -241 1261 -260 q 1250 -280 1234 -292 q 1218 -305 1196 -305 l 1196 -305 q 1165 -305 1150 -280 q 1135 -256 1135 -201 l 1135 -201 q 1135 -167 1141 -144 q 1147 -121 1160 -109 q 1172 -98 1189 -98 l 1189 -98 q 1209 -98 1222 -110 q 1235 -123 1242 -153 q 1249 -183 1249 -234 l 1249 -234 q 1249 -252 1248 -271 q 1246 -291 1244 -308 l 1244 -308 q 1243 -312 1244 -319 q 1245 -326 1244 -330 l 1244 -330 q 1239 -365 1217 -395 q 1195 -425 1158 -444 q 1121 -464 1070 -464 l 1070 -464 q 1037 -464 1015 -458 q 993 -453 974 -439 l 974 -439 q 958 -426 947 -407 q 936 -389 931 -357 q 926 -326 926 -275 l 926 -275 l 926 -189 l 819 -457 q 849 -496 883 -523 q 917 -550 963 -563 q 1008 -577 1071 -577 l 1071 -577 q 1152 -577 1213 -550 q 1274 -524 1314 -477 q 1354 -431 1374 -369 q 1394 -307 1394 -237 l 1394 -237 q 1394 -150 1370 -94 q 1345 -39 1299 -13 q 1252 12 1183 12 z"},"ആ":{"ha":1572,"x_min":34,"x_max":1551,"o":"m 352 -577 l 352 -577 q 399 -577 451 -568 q 502 -560 547 -539 l 547 -539 q 558 -535 565 -527 q 572 -519 583 -514 l 583 -514 q 608 -502 635 -483 q 661 -465 680 -438 q 698 -411 698 -371 l 698 -371 q 698 -344 690 -322 q 681 -301 662 -284 q 643 -267 613 -255 l 613 -255 l 610 -268 q 655 -253 682 -219 q 709 -186 709 -137 l 709 -137 q 709 -98 691 -64 q 672 -30 629 -9 q 586 12 511 12 l 511 12 q 426 12 376 -20 q 325 -52 303 -108 q 280 -165 280 -238 l 280 -238 q 280 -298 297 -349 q 313 -400 347 -441 q 380 -483 429 -513 l 429 -513 q 437 -518 442 -525 q 447 -532 456 -536 l 456 -536 q 494 -555 540 -566 q 585 -577 635 -577 l 635 -577 q 694 -577 737 -565 q 779 -553 811 -531 q 842 -509 868 -477 l 868 -477 l 926 -226 l 926 0 l 777 0 l 777 -279 q 777 -345 767 -382 q 757 -420 730 -443 l 730 -443 q 713 -457 689 -464 q 664 -471 633 -471 l 633 -471 q 611 -471 590 -467 q 568 -464 552 -459 l 552 -459 q 521 -449 497 -428 q 472 -408 455 -379 q 438 -350 429 -314 q 420 -278 420 -238 l 420 -238 q 420 -158 442 -127 q 464 -97 503 -97 l 503 -97 q 534 -97 549 -110 q 564 -123 564 -148 l 564 -148 q 564 -173 547 -188 q 530 -203 493 -203 l 493 -203 l 477 -203 l 477 -313 l 489 -313 q 523 -313 539 -328 q 555 -344 555 -370 l 555 -370 q 555 -400 533 -423 q 510 -446 460 -457 l 460 -457 q 440 -465 416 -468 q 392 -471 367 -471 l 367 -471 q 303 -471 263 -447 q 223 -424 204 -383 q 185 -342 185 -288 l 185 -288 q 185 -242 195 -203 q 205 -164 224 -128 q 242 -92 267 -57 l 267 -57 l 156 12 q 121 -27 94 -71 q 66 -115 50 -169 q 34 -224 34 -292 l 34 -292 q 34 -340 49 -390 q 64 -440 100 -482 q 135 -525 197 -551 q 259 -577 352 -577 z m 1062 -577 l 1062 -577 q 1152 -577 1215 -545 q 1277 -513 1313 -459 q 1349 -406 1362 -339 l 1362 -339 q 1367 -314 1369 -287 q 1370 -260 1370 -233 l 1370 -233 q 1370 -150 1348 -95 q 1326 -41 1281 -14 q 1236 12 1168 12 l 1168 12 q 1105 12 1063 -13 q 1020 -38 999 -82 q 978 -126 978 -185 l 978 -185 q 978 -291 1047 -347 q 1116 -404 1236 -404 l 1236 -404 q 1254 -404 1267 -403 q 1280 -403 1290 -402 l 1290 -402 l 1321 -400 q 1390 -387 1442 -347 q 1493 -308 1522 -245 q 1551 -183 1551 -100 l 1551 -100 q 1551 -41 1537 13 q 1522 67 1488 109 q 1453 151 1395 176 q 1336 201 1250 201 l 1250 201 q 1212 201 1178 196 q 1144 190 1111 179 l 1111 179 l 1151 71 q 1176 80 1199 83 q 1222 86 1248 86 l 1248 86 q 1299 86 1331 69 q 1363 51 1380 23 q 1397 -5 1404 -38 q 1410 -72 1410 -103 l 1410 -103 q 1410 -150 1402 -185 q 1394 -220 1376 -245 q 1358 -270 1331 -285 l 1331 -285 l 1289 -292 q 1278 -296 1265 -297 q 1251 -298 1237 -298 l 1237 -298 q 1196 -298 1171 -283 q 1145 -268 1134 -242 q 1122 -217 1122 -184 l 1122 -184 q 1122 -156 1128 -137 q 1134 -119 1146 -109 q 1157 -100 1173 -100 l 1173 -100 q 1202 -100 1217 -127 q 1231 -155 1231 -232 l 1231 -232 q 1231 -266 1227 -295 q 1222 -325 1214 -350 l 1214 -350 l 1206 -377 q 1192 -405 1170 -424 q 1148 -444 1121 -454 q 1093 -464 1061 -464 l 1061 -464 q 1035 -464 1014 -458 q 993 -453 974 -439 l 974 -439 q 957 -426 947 -407 q 936 -388 931 -356 q 926 -325 926 -274 l 926 -274 l 926 -212 l 819 -457 q 848 -496 882 -522 q 916 -549 960 -563 q 1004 -577 1062 -577 z"},"ഇ":{"ha":913,"x_min":32,"x_max":879,"o":"m 311 -577 l 311 -577 q 370 -577 410 -564 q 450 -552 478 -531 q 506 -511 528 -486 l 528 -486 l 484 -496 q 518 -540 563 -558 q 607 -577 658 -577 l 658 -577 q 716 -577 758 -556 q 799 -536 826 -499 q 853 -463 866 -415 q 879 -368 879 -316 l 879 -316 q 879 -223 858 -162 q 837 -102 786 -62 l 786 -62 q 759 -41 725 -27 q 690 -14 642 -7 q 593 0 523 0 l 523 0 l 289 0 q 251 0 234 2 q 217 4 208 9 l 208 9 q 196 15 191 24 q 186 32 186 43 l 186 43 q 186 54 191 63 q 195 72 203 78 l 203 78 q 214 84 232 87 q 250 90 288 90 l 288 90 l 864 90 l 864 203 l 285 203 q 218 203 176 195 q 133 187 106 171 l 106 171 q 73 152 55 122 q 36 91 36 49 l 36 49 q 36 8 52 -23 q 68 -54 99 -74 l 99 -74 q 119 -88 143 -96 q 167 -104 202 -108 q 237 -112 287 -112 l 287 -112 l 488 -112 q 545 -112 582 -116 q 618 -121 641 -131 q 664 -141 680 -155 l 680 -155 q 709 -180 719 -219 q 729 -258 729 -311 l 729 -311 q 729 -351 720 -386 q 711 -421 691 -443 q 671 -465 639 -465 l 639 -465 q 627 -465 617 -461 q 606 -457 599 -449 l 599 -449 q 587 -436 582 -412 q 576 -388 576 -339 l 576 -339 l 576 -151 l 430 -151 l 430 -310 q 430 -362 422 -392 q 413 -423 395 -439 l 395 -439 q 380 -452 360 -459 q 339 -467 305 -467 l 305 -467 q 281 -467 260 -462 q 239 -458 221 -449 q 202 -440 188 -426 q 174 -413 164 -395 l 164 -395 q 161 -385 160 -374 q 158 -363 157 -354 l 157 -354 q 156 -345 155 -332 q 153 -320 153 -305 l 153 -305 q 153 -267 166 -247 q 178 -228 200 -228 l 200 -228 q 220 -228 230 -243 q 239 -259 239 -284 l 239 -284 q 239 -302 235 -314 q 230 -326 221 -332 q 211 -339 197 -339 l 197 -339 q 177 -339 162 -332 q 147 -326 127 -313 l 127 -313 l 62 -338 q 82 -361 109 -381 q 136 -402 168 -415 q 200 -428 234 -428 l 234 -428 q 282 -428 313 -409 q 344 -390 359 -357 q 374 -325 374 -283 l 374 -283 q 374 -242 358 -206 q 342 -171 305 -149 q 268 -128 206 -128 l 206 -128 q 154 -128 115 -150 q 75 -172 54 -215 q 32 -259 32 -325 l 32 -325 q 32 -398 66 -455 q 100 -512 163 -544 q 225 -577 311 -577 z"},"ഈ":{"ha":1630,"x_min":32,"x_max":1596,"o":"m 311 -577 l 311 -577 q 370 -577 410 -564 q 450 -552 478 -531 q 506 -511 528 -486 l 528 -486 l 484 -496 q 518 -540 563 -558 q 607 -577 658 -577 l 658 -577 q 716 -577 758 -556 q 799 -536 826 -499 q 853 -463 866 -415 q 879 -368 879 -316 l 879 -316 q 879 -223 858 -162 q 837 -102 786 -62 l 786 -62 q 759 -41 725 -27 q 690 -14 642 -7 q 593 0 523 0 l 523 0 l 289 0 q 251 0 234 2 q 217 4 208 9 l 208 9 q 196 15 191 24 q 186 32 186 43 l 186 43 q 186 54 191 63 q 195 72 203 78 l 203 78 q 214 84 232 87 q 250 90 288 90 l 288 90 l 864 90 l 864 203 l 285 203 q 218 203 176 195 q 133 187 106 171 l 106 171 q 73 152 55 122 q 36 91 36 49 l 36 49 q 36 8 52 -23 q 68 -54 99 -74 l 99 -74 q 119 -88 143 -96 q 167 -104 202 -108 q 237 -112 287 -112 l 287 -112 l 488 -112 q 545 -112 582 -116 q 618 -121 641 -131 q 664 -141 680 -155 l 680 -155 q 709 -180 719 -219 q 729 -258 729 -311 l 729 -311 q 729 -351 720 -386 q 711 -421 691 -443 q 671 -465 639 -465 l 639 -465 q 627 -465 617 -461 q 606 -457 599 -449 l 599 -449 q 587 -436 582 -412 q 576 -388 576 -339 l 576 -339 l 576 -151 l 430 -151 l 430 -310 q 430 -362 422 -392 q 413 -423 395 -439 l 395 -439 q 380 -452 360 -459 q 339 -467 305 -467 l 305 -467 q 281 -467 260 -462 q 239 -458 221 -449 q 202 -440 188 -426 q 174 -413 164 -395 l 164 -395 q 161 -385 160 -374 q 158 -363 157 -354 l 157 -354 q 156 -345 155 -332 q 153 -320 153 -305 l 153 -305 q 153 -267 166 -247 q 178 -228 200 -228 l 200 -228 q 220 -228 230 -243 q 239 -259 239 -284 l 239 -284 q 239 -302 235 -314 q 230 -326 221 -332 q 211 -339 197 -339 l 197 -339 q 177 -339 162 -332 q 147 -326 127 -313 l 127 -313 l 62 -338 q 82 -361 109 -381 q 136 -402 168 -415 q 200 -428 234 -428 l 234 -428 q 282 -428 313 -409 q 344 -390 359 -357 q 374 -325 374 -283 l 374 -283 q 374 -242 358 -206 q 342 -171 305 -149 q 268 -128 206 -128 l 206 -128 q 154 -128 115 -150 q 75 -172 54 -215 q 32 -259 32 -325 l 32 -325 q 32 -398 66 -455 q 100 -512 163 -544 q 225 -577 311 -577 z m 1393 -577 l 1393 -577 q 1457 -577 1503 -545 q 1548 -513 1572 -453 q 1596 -394 1596 -311 l 1596 -311 q 1596 -206 1566 -134 q 1535 -62 1473 -25 q 1411 12 1315 12 l 1315 12 q 1250 12 1201 1 q 1151 -10 1103 -34 l 1103 -34 l 1159 -138 q 1193 -121 1228 -111 q 1262 -102 1300 -102 l 1300 -102 q 1354 -102 1386 -125 q 1418 -149 1432 -195 q 1446 -241 1446 -309 l 1446 -309 q 1446 -392 1427 -429 q 1408 -466 1380 -466 l 1380 -466 q 1369 -466 1362 -461 q 1354 -457 1349 -449 l 1349 -449 q 1342 -439 1340 -423 q 1337 -408 1337 -374 l 1337 -374 l 1337 -267 l 1190 -267 l 1190 -354 q 1190 -393 1188 -413 q 1186 -434 1179 -445 l 1179 -445 q 1173 -456 1164 -461 q 1154 -466 1143 -466 l 1143 -466 q 1118 -466 1104 -443 q 1089 -420 1089 -385 l 1089 -385 q 1089 -356 1093 -332 q 1097 -308 1102 -288 l 1102 -288 l 960 -258 q 951 -287 946 -321 q 940 -356 940 -388 l 940 -388 q 940 -437 960 -480 q 979 -523 1021 -550 q 1062 -577 1128 -577 l 1128 -577 q 1179 -577 1213 -561 q 1246 -545 1272 -514 l 1272 -514 l 1251 -514 q 1278 -548 1312 -562 q 1345 -577 1393 -577 z"},"ഉ":{"ha":661,"x_min":32,"x_max":627,"o":"m 329 -577 l 329 -577 q 410 -577 466 -554 q 522 -531 558 -492 q 594 -453 611 -403 q 627 -353 627 -298 l 627 -298 q 627 -220 607 -163 q 587 -106 543 -69 l 543 -69 q 513 -43 475 -28 q 436 -13 389 -6 q 342 0 285 0 l 285 0 l 271 0 q 246 0 232 2 q 217 4 208 9 l 208 9 q 196 14 191 23 q 186 32 186 43 l 186 43 q 186 54 191 63 q 195 72 203 78 l 203 78 q 214 84 232 87 q 250 90 288 90 l 288 90 l 610 90 l 610 203 l 285 203 q 218 203 176 195 q 133 187 106 171 l 106 171 q 73 152 55 122 q 36 91 36 49 l 36 49 q 36 8 52 -23 q 68 -55 99 -76 l 99 -76 q 129 -95 169 -103 q 208 -111 263 -112 l 263 -112 l 263 -112 q 312 -112 346 -117 q 379 -123 401 -133 q 422 -143 437 -159 l 437 -159 q 460 -185 468 -220 q 476 -255 476 -294 l 476 -294 q 476 -329 467 -359 q 458 -390 440 -414 q 421 -438 391 -451 q 360 -465 317 -465 l 317 -465 q 289 -465 264 -459 q 238 -454 218 -443 q 197 -433 183 -418 q 168 -404 160 -383 l 160 -383 q 158 -376 158 -369 q 158 -362 157 -355 l 157 -355 q 156 -346 155 -334 q 153 -322 153 -305 l 153 -305 q 153 -267 166 -247 q 178 -228 200 -228 l 200 -228 q 220 -228 230 -243 q 239 -259 239 -284 l 239 -284 q 239 -302 235 -314 q 230 -326 221 -332 q 211 -339 197 -339 l 197 -339 q 178 -339 161 -332 q 144 -326 125 -313 l 125 -313 l 62 -338 q 82 -361 109 -381 q 136 -402 168 -415 q 200 -428 234 -428 l 234 -428 q 282 -428 313 -409 q 344 -390 359 -357 q 374 -325 374 -283 l 374 -283 q 374 -242 358 -206 q 342 -171 305 -149 q 268 -128 206 -128 l 206 -128 q 154 -128 115 -149 q 75 -171 54 -214 q 32 -258 32 -321 l 32 -321 q 32 -375 52 -422 q 72 -469 110 -504 q 148 -539 203 -558 q 258 -577 329 -577 z"},"ഊ":{"ha":1377,"x_min":32,"x_max":1343,"o":"m 329 -577 l 329 -577 q 410 -577 466 -554 q 522 -531 558 -492 q 594 -453 611 -403 q 627 -353 627 -298 l 627 -298 q 627 -220 607 -163 q 587 -106 543 -69 l 543 -69 q 513 -43 475 -28 q 436 -13 389 -6 q 342 0 285 0 l 285 0 l 271 0 q 246 0 232 2 q 217 4 208 9 l 208 9 q 196 14 191 23 q 186 32 186 43 l 186 43 q 186 54 191 63 q 195 72 203 78 l 203 78 q 214 84 232 87 q 250 90 288 90 l 288 90 l 610 90 l 610 203 l 285 203 q 218 203 176 195 q 133 187 106 171 l 106 171 q 73 152 55 122 q 36 91 36 49 l 36 49 q 36 8 52 -23 q 68 -55 99 -76 l 99 -76 q 129 -95 169 -103 q 208 -111 263 -112 l 263 -112 l 263 -112 q 312 -112 346 -117 q 379 -123 401 -133 q 422 -143 437 -159 l 437 -159 q 460 -185 468 -220 q 476 -255 476 -294 l 476 -294 q 476 -329 467 -359 q 458 -390 440 -414 q 421 -438 391 -451 q 360 -465 317 -465 l 317 -465 q 289 -465 264 -459 q 238 -454 218 -443 q 197 -433 183 -418 q 168 -404 160 -383 l 160 -383 q 158 -376 158 -369 q 158 -362 157 -355 l 157 -355 q 156 -346 155 -334 q 153 -322 153 -305 l 153 -305 q 153 -267 166 -247 q 178 -228 200 -228 l 200 -228 q 220 -228 230 -243 q 239 -259 239 -284 l 239 -284 q 239 -302 235 -314 q 230 -326 221 -332 q 211 -339 197 -339 l 197 -339 q 178 -339 161 -332 q 144 -326 125 -313 l 125 -313 l 62 -338 q 82 -361 109 -381 q 136 -402 168 -415 q 200 -428 234 -428 l 234 -428 q 282 -428 313 -409 q 344 -390 359 -357 q 374 -325 374 -283 l 374 -283 q 374 -242 358 -206 q 342 -171 305 -149 q 268 -128 206 -128 l 206 -128 q 154 -128 115 -149 q 75 -171 54 -214 q 32 -258 32 -321 l 32 -321 q 32 -375 52 -422 q 72 -469 110 -504 q 148 -539 203 -558 q 258 -577 329 -577 z m 1140 -577 l 1140 -577 q 1204 -577 1250 -545 q 1295 -513 1319 -453 q 1343 -394 1343 -311 l 1343 -311 q 1343 -206 1313 -134 q 1282 -62 1220 -25 q 1158 12 1062 12 l 1062 12 q 997 12 948 1 q 898 -10 850 -34 l 850 -34 l 906 -138 q 940 -121 975 -111 q 1009 -102 1047 -102 l 1047 -102 q 1101 -102 1133 -125 q 1165 -149 1179 -195 q 1193 -241 1193 -309 l 1193 -309 q 1193 -392 1174 -429 q 1155 -466 1127 -466 l 1127 -466 q 1116 -466 1109 -461 q 1101 -457 1096 -449 l 1096 -449 q 1089 -439 1087 -423 q 1084 -408 1084 -374 l 1084 -374 l 1084 -267 l 937 -267 l 937 -354 q 937 -393 935 -413 q 933 -434 926 -445 l 926 -445 q 920 -456 911 -461 q 901 -466 890 -466 l 890 -466 q 865 -466 851 -443 q 836 -420 836 -385 l 836 -385 q 836 -356 840 -332 q 844 -308 849 -288 l 849 -288 l 707 -258 q 698 -287 693 -321 q 687 -356 687 -388 l 687 -388 q 687 -437 707 -480 q 726 -523 768 -550 q 809 -577 875 -577 l 875 -577 q 926 -577 960 -561 q 993 -545 1019 -514 l 1019 -514 l 998 -514 q 1025 -548 1059 -562 q 1092 -577 1140 -577 z"},"ഋ":{"ha":880,"x_min":30,"x_max":850,"o":"m 649 -577 l 649 -577 q 742 -577 796 -517 q 850 -458 850 -349 l 850 -349 q 850 -280 828 -230 q 806 -181 767 -147 l 767 -147 q 722 -105 663 -85 q 604 -65 526 -65 l 526 -65 l 360 -65 q 307 -65 263 -73 q 219 -82 183 -100 q 147 -118 118 -146 l 118 -146 q 77 -180 54 -230 q 30 -281 30 -352 l 30 -352 q 30 -419 55 -470 q 80 -521 127 -549 q 174 -577 238 -577 l 238 -577 q 297 -577 338 -554 q 379 -532 401 -492 q 422 -452 422 -401 l 422 -401 q 422 -339 401 -300 q 379 -262 341 -244 q 302 -226 251 -226 l 251 -226 q 217 -226 183 -241 q 149 -256 122 -278 q 94 -300 76 -321 l 76 -321 l 114 -416 q 132 -389 148 -369 q 163 -349 181 -338 q 198 -327 220 -327 l 220 -327 q 247 -327 263 -344 q 279 -361 279 -406 l 279 -406 q 279 -438 266 -454 q 252 -471 232 -471 l 232 -471 q 212 -471 198 -459 q 183 -448 175 -424 q 167 -401 167 -362 l 167 -362 q 167 -342 170 -324 q 172 -307 176 -293 l 176 -293 l 175 -263 q 188 -235 214 -216 q 240 -198 274 -187 q 308 -177 345 -172 q 381 -168 416 -168 l 416 -168 l 467 -168 q 498 -168 534 -171 q 570 -175 605 -185 q 639 -196 666 -215 q 693 -234 707 -264 l 707 -264 l 706 -292 q 709 -307 712 -324 q 714 -342 714 -362 l 714 -362 q 714 -401 706 -424 q 698 -448 685 -459 q 671 -471 652 -471 l 652 -471 q 631 -471 617 -453 q 603 -436 603 -400 l 603 -400 q 603 -360 619 -343 q 634 -327 659 -327 l 659 -327 q 683 -327 700 -337 q 717 -348 733 -368 q 749 -388 766 -417 l 766 -417 l 805 -321 q 788 -300 761 -278 q 733 -256 699 -241 q 665 -226 627 -226 l 627 -226 q 578 -226 540 -243 q 502 -261 481 -299 q 460 -337 460 -396 l 460 -396 q 460 -451 483 -492 q 506 -533 549 -555 q 591 -577 649 -577 z m 442 255 l 442 255 q 332 255 255 235 q 177 214 137 169 q 96 124 96 52 l 96 52 q 96 2 120 -32 q 143 -67 184 -88 q 225 -109 277 -118 q 328 -128 385 -128 l 385 -128 l 494 -128 q 552 -128 605 -118 q 657 -109 698 -88 q 739 -67 762 -32 q 785 2 785 53 l 785 53 q 785 121 747 166 q 708 211 632 233 q 555 255 442 255 z m 442 139 l 442 139 q 507 139 549 128 q 591 117 612 96 q 633 74 633 42 l 633 42 q 633 13 618 -6 q 603 -25 577 -35 q 550 -46 517 -50 q 484 -55 449 -55 l 449 -55 l 434 -55 q 383 -55 341 -46 q 298 -38 273 -17 q 248 4 248 42 l 248 42 q 248 75 269 97 q 289 118 333 129 q 376 139 442 139 z"},"ഌ":{"ha":1120,"x_min":34,"x_max":1088,"o":"m 349 -577 l 349 -577 q 424 -577 476 -554 q 528 -531 570 -479 l 570 -479 l 594 -388 l 619 -218 l 619 0 l 471 0 l 471 -289 q 471 -356 462 -388 q 453 -420 434 -437 l 434 -437 q 420 -450 400 -457 q 380 -464 348 -464 l 348 -464 q 299 -464 258 -440 q 217 -417 193 -367 q 168 -318 168 -241 l 168 -241 l 168 -234 q 168 -177 176 -147 q 184 -117 198 -106 q 212 -96 227 -96 l 227 -96 q 242 -96 252 -103 q 261 -111 266 -127 q 271 -143 271 -170 l 271 -170 q 271 -210 259 -228 q 247 -246 222 -246 l 222 -246 q 196 -246 172 -228 q 148 -210 118 -170 l 118 -170 l 98 -274 q 126 -303 168 -327 q 210 -351 262 -351 l 262 -351 q 312 -351 346 -329 q 380 -308 397 -269 q 414 -230 414 -178 l 414 -178 q 414 -117 393 -74 q 372 -32 332 -10 q 291 12 232 12 l 232 12 q 178 12 133 -13 q 88 -38 61 -94 q 34 -151 34 -244 l 34 -244 q 34 -354 75 -428 q 116 -503 188 -540 q 259 -577 349 -577 z m 877 12 l 877 12 q 808 12 766 -17 q 723 -46 704 -95 q 685 -144 685 -205 l 685 -205 q 685 -302 728 -355 q 771 -408 854 -408 l 854 -408 q 902 -408 938 -381 q 973 -355 996 -312 q 1019 -270 1027 -223 l 1027 -223 l 970 -218 q 965 -241 955 -260 q 944 -280 928 -292 q 912 -305 890 -305 l 890 -305 q 858 -305 844 -280 q 829 -256 829 -201 l 829 -201 q 829 -167 835 -144 q 841 -121 853 -109 q 865 -98 883 -98 l 883 -98 q 902 -98 916 -110 q 929 -123 936 -153 q 942 -183 942 -234 l 942 -234 q 942 -252 941 -271 q 940 -291 937 -308 l 937 -308 q 937 -312 938 -319 q 938 -326 937 -330 l 937 -330 q 932 -365 911 -395 q 889 -425 852 -444 q 815 -464 763 -464 l 763 -464 q 731 -464 709 -458 q 687 -453 668 -439 l 668 -439 q 651 -426 640 -407 q 629 -389 624 -357 q 619 -326 619 -275 l 619 -275 l 619 -189 l 513 -457 q 542 -496 577 -523 q 611 -550 657 -563 q 702 -577 765 -577 l 765 -577 q 846 -577 907 -550 q 967 -524 1008 -477 q 1048 -431 1068 -369 q 1088 -307 1088 -237 l 1088 -237 q 1088 -150 1064 -94 q 1039 -39 992 -13 q 945 12 877 12 z"},"എ":{"ha":1198,"x_min":27,"x_max":1161,"o":"m 235 -367 l 235 -367 q 309 -367 354 -339 q 398 -311 419 -268 q 439 -226 439 -180 l 439 -180 q 439 -150 430 -122 q 420 -94 410 -73 l 410 -73 l 401 -112 l 804 -112 l 798 0 l 318 0 l 269 -65 q 279 -82 288 -108 q 296 -135 296 -170 l 296 -170 q 296 -206 283 -230 q 269 -255 237 -255 l 237 -255 q 216 -255 202 -244 q 188 -234 182 -215 q 175 -196 175 -172 l 175 -172 q 175 -128 188 -99 q 201 -70 216 -41 l 216 -41 l 96 12 q 65 -30 46 -74 q 27 -119 27 -177 l 27 -177 q 27 -235 53 -277 q 79 -319 126 -343 q 172 -367 235 -367 z m 843 -577 l 843 -577 q 925 -577 985 -550 q 1044 -524 1083 -472 q 1122 -421 1142 -347 q 1161 -273 1161 -181 l 1161 -181 q 1161 -94 1145 -22 q 1129 50 1102 112 q 1075 173 1041 228 l 1041 228 l 920 168 q 948 118 968 66 q 987 13 998 -47 q 1008 -107 1008 -179 l 1008 -179 q 1008 -242 999 -294 q 990 -347 970 -385 q 950 -423 919 -444 q 888 -465 844 -465 l 844 -465 q 782 -465 742 -427 q 701 -389 682 -319 q 663 -249 663 -149 l 663 -149 q 663 -124 664 -102 q 664 -81 665 -62 l 665 -62 q 665 -54 664 -47 q 663 -41 663 -33 l 663 -33 q 666 22 675 56 q 683 90 697 105 q 711 119 732 119 l 732 119 q 745 119 752 111 l 752 111 q 756 106 758 98 q 759 90 759 75 l 759 75 l 759 -382 l 907 -382 l 907 31 q 907 94 896 129 q 884 164 860 188 l 860 188 q 840 207 810 218 q 780 228 740 228 l 740 228 q 668 228 618 192 q 567 155 541 73 q 515 -9 515 -146 l 515 -146 q 515 -241 535 -319 q 554 -398 595 -456 q 636 -514 698 -545 q 760 -577 843 -577 z"},"ഏ":{"ha":1212,"x_min":27,"x_max":1186,"o":"m 235 -367 l 235 -367 q 309 -367 354 -339 q 398 -311 419 -268 q 439 -226 439 -180 l 439 -180 q 439 -150 430 -122 q 420 -94 409 -73 l 409 -73 l 396 -112 l 800 -112 l 798 0 l 317 0 l 269 -65 q 278 -82 287 -108 q 296 -135 296 -170 l 296 -170 q 296 -206 282 -230 q 268 -255 237 -255 l 237 -255 q 215 -255 202 -244 q 188 -234 182 -215 q 175 -196 175 -172 l 175 -172 q 175 -128 188 -98 q 201 -69 215 -41 l 215 -41 l 96 12 q 65 -30 46 -74 q 27 -119 27 -177 l 27 -177 q 27 -235 53 -277 q 78 -319 125 -343 q 172 -367 235 -367 z m 886 -577 l 886 -577 q 965 -577 1021 -557 q 1076 -538 1111 -504 q 1145 -471 1162 -428 q 1178 -385 1178 -339 l 1178 -339 q 1178 -286 1163 -248 q 1147 -210 1124 -184 q 1100 -159 1075 -142 l 1075 -142 l 1074 -160 q 1124 -134 1155 -90 q 1186 -46 1186 27 l 1186 27 q 1186 97 1162 142 q 1138 187 1096 208 q 1053 228 995 228 l 995 228 q 972 228 950 226 q 927 223 911 220 l 911 220 l 931 110 q 938 113 948 114 q 958 115 964 115 l 964 115 q 992 115 1008 104 q 1023 93 1030 72 q 1036 51 1036 20 l 1036 20 q 1036 -25 1014 -54 q 991 -84 947 -86 l 947 -86 l 947 -196 q 972 -206 990 -222 q 1008 -238 1018 -264 q 1028 -290 1028 -326 l 1028 -326 q 1028 -368 1012 -399 q 995 -430 963 -446 q 930 -463 880 -463 l 880 -463 q 805 -463 757 -424 q 709 -385 686 -314 q 663 -244 663 -149 l 663 -149 q 663 -124 664 -102 q 664 -81 665 -62 l 665 -62 q 665 -55 664 -47 q 663 -40 663 -33 l 663 -33 q 666 22 674 56 q 682 90 697 105 q 711 119 731 119 l 731 119 q 745 119 752 111 l 752 111 q 756 106 758 98 q 759 90 759 75 l 759 75 l 759 -382 l 907 -382 l 907 31 q 907 94 896 129 q 884 164 860 188 l 860 188 q 840 207 810 218 q 780 228 740 228 l 740 228 q 668 228 618 192 q 567 155 541 73 q 514 -10 514 -147 l 514 -147 q 514 -242 537 -320 q 560 -399 607 -456 q 653 -514 723 -545 q 793 -577 886 -577 z"},"ഐ":{"ha":1886,"x_min":34,"x_max":1849,"o":"m 234 12 l 234 12 q 179 12 134 -13 q 88 -38 61 -93 q 34 -148 34 -239 l 34 -239 q 34 -313 56 -375 q 78 -437 120 -482 q 162 -528 223 -552 q 284 -577 362 -577 l 362 -577 q 441 -577 497 -553 q 553 -529 588 -488 q 622 -448 639 -396 q 655 -344 655 -288 l 655 -288 q 655 -223 638 -168 q 621 -114 593 -69 q 565 -25 529 14 l 529 14 l 418 -55 q 443 -88 462 -123 q 481 -158 492 -197 q 502 -237 502 -286 l 502 -286 q 502 -340 486 -380 q 470 -420 437 -442 q 403 -464 351 -464 l 351 -464 q 296 -464 255 -435 q 213 -406 191 -354 q 168 -303 168 -236 l 168 -236 q 168 -178 176 -147 q 184 -117 198 -106 q 212 -96 227 -96 l 227 -96 q 242 -96 252 -103 q 261 -111 266 -127 q 271 -143 271 -169 l 271 -169 q 271 -210 259 -228 q 247 -246 222 -246 l 222 -246 q 196 -246 172 -228 q 148 -210 118 -169 l 118 -169 l 98 -274 q 126 -303 167 -327 q 208 -351 261 -351 l 261 -351 q 312 -351 346 -329 q 380 -308 397 -269 q 414 -230 414 -178 l 414 -178 q 414 -118 393 -76 q 372 -34 332 -11 q 292 12 234 12 z m 923 -367 l 923 -367 q 997 -367 1042 -339 q 1086 -311 1107 -268 q 1127 -226 1127 -180 l 1127 -180 q 1127 -150 1118 -122 q 1108 -94 1098 -73 l 1098 -73 l 1089 -112 l 1492 -112 l 1486 0 l 1006 0 l 957 -65 q 967 -82 976 -108 q 984 -135 984 -170 l 984 -170 q 984 -206 971 -230 q 957 -255 925 -255 l 925 -255 q 904 -255 890 -244 q 876 -234 870 -215 q 863 -196 863 -172 l 863 -172 q 863 -128 876 -99 q 889 -70 904 -41 l 904 -41 l 784 12 q 753 -30 734 -74 q 715 -119 715 -177 l 715 -177 q 715 -235 741 -277 q 767 -319 814 -343 q 860 -367 923 -367 z m 1531 -577 l 1531 -577 q 1613 -577 1673 -550 q 1732 -524 1771 -472 q 1810 -421 1830 -347 q 1849 -273 1849 -181 l 1849 -181 q 1849 -94 1833 -22 q 1817 50 1790 112 q 1763 173 1729 228 l 1729 228 l 1608 168 q 1636 118 1656 66 q 1675 13 1686 -47 q 1696 -107 1696 -179 l 1696 -179 q 1696 -242 1687 -294 q 1678 -347 1658 -385 q 1638 -423 1607 -444 q 1576 -465 1532 -465 l 1532 -465 q 1470 -465 1430 -427 q 1389 -389 1370 -319 q 1351 -249 1351 -149 l 1351 -149 q 1351 -124 1352 -102 q 1352 -81 1353 -62 l 1353 -62 q 1353 -54 1352 -47 q 1351 -41 1351 -33 l 1351 -33 q 1354 22 1363 56 q 1371 90 1385 105 q 1399 119 1420 119 l 1420 119 q 1433 119 1440 111 l 1440 111 q 1444 106 1446 98 q 1447 90 1447 75 l 1447 75 l 1447 -382 l 1595 -382 l 1595 31 q 1595 94 1584 129 q 1572 164 1548 188 l 1548 188 q 1528 207 1498 218 q 1468 228 1428 228 l 1428 228 q 1356 228 1306 192 q 1255 155 1229 73 q 1203 -9 1203 -146 l 1203 -146 q 1203 -241 1223 -319 q 1242 -398 1283 -456 q 1324 -514 1386 -545 q 1448 -577 1531 -577 z"},"ഒ":{"ha":729,"x_min":33,"x_max":700,"o":"m 431 -577 l 431 -577 q 527 -577 585 -554 q 642 -531 667 -493 q 691 -455 691 -408 l 691 -408 q 691 -378 682 -353 q 673 -329 654 -310 q 634 -292 602 -277 l 602 -277 l 605 -285 q 650 -268 675 -231 q 700 -195 700 -146 l 700 -146 q 700 -71 654 -29 q 608 12 514 12 l 514 12 q 486 12 461 9 q 436 5 416 0 l 416 0 l 436 -107 q 448 -104 462 -102 q 475 -100 489 -100 l 489 -100 q 523 -100 537 -114 q 551 -129 551 -158 l 551 -158 q 551 -174 546 -186 q 540 -199 529 -207 l 529 -207 q 517 -217 500 -221 q 482 -225 451 -225 l 451 -225 l 443 -225 l 443 -335 l 449 -335 q 481 -335 497 -339 q 512 -343 523 -352 l 523 -352 q 533 -360 538 -371 q 542 -382 542 -395 l 542 -395 q 542 -431 511 -447 q 480 -464 421 -464 l 421 -464 q 369 -464 324 -450 q 278 -437 243 -410 q 207 -383 187 -342 q 167 -302 167 -247 l 167 -247 l 167 -231 q 167 -175 175 -146 q 183 -117 197 -106 q 211 -96 227 -96 l 227 -96 q 240 -96 250 -103 q 260 -110 265 -126 q 270 -143 270 -170 l 270 -170 q 270 -210 258 -228 q 246 -246 221 -246 l 221 -246 q 194 -246 170 -227 q 145 -209 115 -167 l 115 -167 l 92 -268 q 120 -301 163 -326 q 205 -351 260 -351 l 260 -351 q 311 -351 345 -329 q 378 -308 396 -269 q 413 -230 413 -178 l 413 -178 q 413 -117 392 -74 q 371 -32 331 -10 q 291 12 232 12 l 232 12 q 176 12 131 -13 q 86 -39 60 -92 q 33 -146 33 -232 l 33 -232 q 33 -317 62 -381 q 90 -446 143 -489 q 196 -533 269 -555 q 342 -577 431 -577 z"},"ഓ":{"ha":1228,"x_min":33,"x_max":1193,"o":"m 431 -577 l 431 -577 q 527 -577 585 -554 q 642 -531 667 -493 q 691 -455 691 -408 l 691 -408 q 691 -378 682 -353 q 673 -329 654 -310 q 634 -292 602 -277 l 602 -277 l 605 -285 q 650 -268 675 -231 q 700 -195 700 -146 l 700 -146 q 700 -71 654 -29 q 608 12 514 12 l 514 12 q 486 12 461 9 q 436 5 416 0 l 416 0 l 436 -107 q 448 -104 462 -102 q 475 -100 489 -100 l 489 -100 q 523 -100 537 -114 q 551 -129 551 -158 l 551 -158 q 551 -174 546 -186 q 540 -199 529 -207 l 529 -207 q 517 -217 500 -221 q 482 -225 451 -225 l 451 -225 l 443 -225 l 443 -335 l 449 -335 q 481 -335 497 -339 q 512 -343 523 -352 l 523 -352 q 533 -360 538 -371 q 542 -382 542 -395 l 542 -395 q 542 -431 511 -447 q 480 -464 421 -464 l 421 -464 q 369 -464 324 -450 q 278 -437 243 -410 q 207 -383 187 -342 q 167 -302 167 -247 l 167 -247 l 167 -231 q 167 -175 175 -146 q 183 -117 197 -106 q 211 -96 227 -96 l 227 -96 q 240 -96 250 -103 q 260 -110 265 -126 q 270 -143 270 -170 l 270 -170 q 270 -210 258 -228 q 246 -246 221 -246 l 221 -246 q 194 -246 170 -227 q 145 -209 115 -167 l 115 -167 l 92 -268 q 120 -301 163 -326 q 205 -351 260 -351 l 260 -351 q 311 -351 345 -329 q 378 -308 396 -269 q 413 -230 413 -178 l 413 -178 q 413 -117 392 -74 q 371 -32 331 -10 q 291 12 232 12 l 232 12 q 176 12 131 -13 q 86 -39 60 -92 q 33 -146 33 -232 l 33 -232 q 33 -317 62 -381 q 90 -446 143 -489 q 196 -533 269 -555 q 342 -577 431 -577 z m 1193 -285 l 1193 -285 q 1193 -217 1182 -162 q 1171 -107 1145 -68 q 1118 -30 1074 -9 q 1030 12 964 12 l 964 12 q 904 12 864 -5 q 824 -22 800 -50 q 775 -78 762 -113 q 749 -149 742 -185 l 742 -185 l 892 -211 q 898 -181 906 -155 q 914 -130 929 -114 q 943 -99 967 -99 l 967 -99 q 994 -99 1010 -120 q 1026 -141 1034 -182 q 1041 -224 1041 -286 l 1041 -286 q 1041 -345 1034 -385 q 1026 -425 1010 -445 q 994 -466 968 -466 l 968 -466 q 947 -466 933 -451 q 918 -437 909 -412 q 900 -388 894 -355 l 894 -355 l 744 -382 q 754 -419 770 -454 q 785 -489 811 -517 q 837 -545 877 -561 q 916 -577 973 -577 l 973 -577 q 1037 -577 1080 -555 q 1122 -533 1147 -493 q 1172 -454 1183 -401 q 1193 -348 1193 -285 z"},"ഔ":{"ha":1443,"x_min":33,"x_max":1410,"o":"m 431 -577 l 431 -577 q 527 -577 585 -554 q 642 -531 667 -493 q 691 -455 691 -408 l 691 -408 q 691 -378 682 -353 q 673 -329 654 -310 q 634 -292 602 -277 l 602 -277 l 605 -285 q 650 -268 675 -231 q 700 -195 700 -146 l 700 -146 q 700 -71 654 -29 q 608 12 514 12 l 514 12 q 486 12 461 9 q 436 5 416 0 l 416 0 l 436 -107 q 448 -104 462 -102 q 475 -100 489 -100 l 489 -100 q 523 -100 537 -114 q 551 -129 551 -158 l 551 -158 q 551 -174 546 -186 q 540 -199 529 -207 l 529 -207 q 517 -217 500 -221 q 482 -225 451 -225 l 451 -225 l 443 -225 l 443 -335 l 449 -335 q 481 -335 497 -339 q 512 -343 523 -352 l 523 -352 q 533 -360 538 -371 q 542 -382 542 -395 l 542 -395 q 542 -431 511 -447 q 480 -464 421 -464 l 421 -464 q 369 -464 324 -450 q 278 -437 243 -410 q 207 -383 187 -342 q 167 -302 167 -247 l 167 -247 l 167 -231 q 167 -175 175 -146 q 183 -117 197 -106 q 211 -96 227 -96 l 227 -96 q 240 -96 250 -103 q 260 -110 265 -126 q 270 -143 270 -170 l 270 -170 q 270 -210 258 -228 q 246 -246 221 -246 l 221 -246 q 194 -246 170 -227 q 145 -209 115 -167 l 115 -167 l 92 -268 q 120 -301 163 -326 q 205 -351 260 -351 l 260 -351 q 311 -351 345 -329 q 378 -308 396 -269 q 413 -230 413 -178 l 413 -178 q 413 -117 392 -74 q 371 -32 331 -10 q 291 12 232 12 l 232 12 q 176 12 131 -13 q 86 -39 60 -92 q 33 -146 33 -232 l 33 -232 q 33 -317 62 -381 q 90 -446 143 -489 q 196 -533 269 -555 q 342 -577 431 -577 z m 1207 -577 l 1207 -577 q 1271 -577 1317 -545 q 1362 -513 1386 -453 q 1410 -394 1410 -311 l 1410 -311 q 1410 -206 1380 -134 q 1349 -62 1287 -25 q 1225 12 1129 12 l 1129 12 q 1064 12 1015 1 q 965 -10 917 -34 l 917 -34 l 973 -138 q 1007 -121 1042 -111 q 1076 -102 1114 -102 l 1114 -102 q 1168 -102 1200 -125 q 1232 -149 1246 -195 q 1260 -241 1260 -309 l 1260 -309 q 1260 -392 1241 -429 q 1222 -466 1194 -466 l 1194 -466 q 1183 -466 1176 -461 q 1168 -457 1163 -449 l 1163 -449 q 1156 -439 1154 -423 q 1151 -408 1151 -374 l 1151 -374 l 1151 -267 l 1004 -267 l 1004 -354 q 1004 -393 1002 -413 q 1000 -434 993 -445 l 993 -445 q 987 -456 978 -461 q 968 -466 957 -466 l 957 -466 q 932 -466 918 -443 q 903 -420 903 -385 l 903 -385 q 903 -356 907 -332 q 911 -308 916 -288 l 916 -288 l 774 -258 q 765 -287 760 -321 q 754 -356 754 -388 l 754 -388 q 754 -437 774 -480 q 793 -523 835 -550 q 876 -577 942 -577 l 942 -577 q 993 -577 1027 -561 q 1060 -545 1086 -514 l 1086 -514 l 1065 -514 q 1092 -548 1126 -562 q 1159 -577 1207 -577 z"},"ക":{"ha":995,"x_min":27,"x_max":968,"o":"m 211 12 l 211 12 q 122 12 75 -34 q 27 -80 27 -162 l 27 -162 q 27 -217 51 -254 q 75 -291 115 -313 l 115 -313 q 140 -326 169 -334 q 197 -343 237 -347 q 276 -351 333 -351 l 333 -351 l 680 -351 q 759 -351 808 -341 q 856 -331 891 -308 l 891 -308 q 927 -286 948 -250 q 968 -214 968 -160 l 968 -160 q 968 -75 919 -31 q 870 12 794 12 l 794 12 q 772 12 752 9 q 732 6 711 1 l 711 1 l 735 -105 q 743 -103 752 -101 q 761 -100 770 -100 l 770 -100 q 797 -100 811 -116 q 825 -132 825 -160 l 825 -160 q 825 -181 818 -195 q 810 -210 797 -219 l 797 -219 q 780 -231 758 -235 q 736 -239 688 -239 l 688 -239 l 292 -239 q 256 -239 234 -235 q 212 -231 196 -221 l 196 -221 q 183 -211 175 -197 q 167 -184 167 -165 l 167 -165 q 167 -145 174 -130 q 180 -115 195 -107 q 210 -99 233 -99 l 233 -99 q 257 -99 279 -108 q 300 -118 323 -138 l 323 -138 l 385 -39 q 357 -19 330 -8 q 302 3 274 8 q 245 12 211 12 z m 498 -577 l 498 -577 q 583 -577 636 -541 q 688 -506 712 -440 q 736 -375 736 -285 l 736 -285 q 736 -185 709 -119 q 682 -53 629 -20 q 575 12 499 12 l 499 12 q 437 12 393 -9 q 348 -30 320 -67 l 320 -67 q 288 -108 274 -164 q 259 -221 259 -289 l 259 -289 q 259 -428 321 -502 q 383 -577 498 -577 z m 498 -466 l 498 -466 q 450 -466 428 -423 q 406 -380 406 -282 l 406 -282 q 406 -219 416 -178 q 425 -138 446 -119 q 466 -100 498 -100 l 498 -100 q 529 -100 549 -118 q 569 -137 580 -178 q 590 -219 590 -284 l 590 -284 q 590 -349 580 -388 q 570 -428 550 -447 q 530 -466 498 -466 z"},"ഖ":{"ha":956,"x_min":34,"x_max":902,"o":"m 361 -577 l 361 -577 q 441 -577 497 -554 q 552 -532 587 -492 q 621 -453 637 -403 q 653 -353 653 -297 l 653 -297 q 653 -239 639 -193 q 625 -147 601 -106 q 577 -66 544 -26 l 544 -26 l 536 0 l 490 0 l 427 -67 q 447 -96 464 -128 q 480 -161 491 -201 q 502 -241 502 -289 l 502 -289 q 502 -344 486 -383 q 469 -422 436 -443 q 403 -464 354 -464 l 354 -464 q 300 -464 258 -437 q 216 -410 192 -360 q 168 -311 168 -244 l 168 -244 l 168 -235 q 168 -177 176 -147 q 184 -117 198 -106 q 212 -96 227 -96 l 227 -96 q 241 -96 251 -103 q 261 -111 266 -127 q 271 -143 271 -169 l 271 -169 q 271 -210 259 -228 q 247 -246 221 -246 l 221 -246 q 195 -246 171 -227 q 146 -209 115 -167 l 115 -167 l 93 -268 q 121 -301 164 -326 q 206 -351 260 -351 l 260 -351 q 311 -351 345 -329 q 379 -308 397 -269 q 414 -230 414 -178 l 414 -178 q 414 -117 393 -74 q 372 -32 332 -10 q 292 12 233 12 l 233 12 q 178 12 133 -13 q 88 -39 61 -95 q 34 -151 34 -244 l 34 -244 q 34 -348 75 -422 q 116 -496 190 -536 q 264 -577 361 -577 z m 754 -565 l 902 -565 l 902 0 l 516 0 l 573 -112 l 754 -112 l 754 -565 z"},"ഗ":{"ha":841,"x_min":34,"x_max":807,"o":"m 566 -577 l 566 -577 q 644 -577 698 -544 q 751 -511 779 -450 q 807 -389 807 -306 l 807 -306 q 807 -241 794 -185 q 780 -130 755 -81 q 730 -33 696 13 l 696 13 l 578 -55 q 604 -95 622 -134 q 639 -173 648 -214 q 657 -255 657 -302 l 657 -302 q 657 -361 645 -396 q 632 -432 612 -448 q 591 -464 566 -464 l 566 -464 q 549 -464 536 -458 q 523 -453 515 -441 l 515 -441 q 504 -427 500 -404 q 496 -381 496 -337 l 496 -337 l 496 -236 q 496 -192 490 -155 q 483 -119 471 -91 q 458 -63 437 -43 l 437 -43 q 409 -15 370 -1 q 330 12 275 12 l 275 12 q 197 12 144 -22 q 90 -56 62 -117 q 34 -178 34 -260 l 34 -260 q 34 -326 48 -381 q 62 -437 87 -485 q 112 -533 145 -578 l 145 -578 l 262 -511 q 237 -471 220 -432 q 203 -393 194 -352 q 184 -311 184 -264 l 184 -264 q 184 -204 197 -168 q 209 -133 230 -117 q 250 -101 274 -101 l 274 -101 q 292 -101 305 -107 q 318 -113 326 -125 l 326 -125 q 336 -138 341 -160 q 345 -183 345 -226 l 345 -226 l 345 -327 q 345 -399 361 -446 q 376 -494 409 -524 l 409 -524 q 436 -550 473 -563 q 510 -577 566 -577 z"},"ഘ":{"ha":1256,"x_min":27,"x_max":1203,"o":"m 235 -577 l 235 -577 q 309 -577 354 -550 q 398 -523 419 -480 q 439 -438 439 -392 l 439 -392 q 439 -361 430 -333 q 420 -305 410 -285 l 410 -285 l 403 -323 l 600 -323 l 620 -212 l 318 -212 l 269 -277 q 279 -293 288 -319 q 296 -346 296 -382 l 296 -382 q 296 -417 283 -441 q 269 -466 237 -466 l 237 -466 q 216 -466 203 -455 q 189 -444 182 -425 q 175 -407 175 -383 l 175 -383 q 175 -339 188 -310 q 201 -281 215 -252 l 215 -252 l 96 -199 q 65 -241 46 -285 q 27 -330 27 -388 l 27 -388 q 27 -446 53 -488 q 79 -531 126 -554 q 172 -577 235 -577 z m 1054 -565 l 1203 -565 l 1203 0 l 501 0 l 501 -307 q 501 -387 517 -434 q 532 -481 561 -513 l 561 -513 q 589 -543 633 -560 q 677 -577 736 -577 l 736 -577 q 796 -577 840 -560 q 883 -543 911 -511 l 911 -511 q 943 -476 957 -428 q 970 -381 970 -308 l 970 -308 l 970 -212 l 649 -212 l 649 -112 l 1054 -112 l 1054 -565 z m 735 -466 l 735 -466 q 688 -466 669 -432 q 649 -398 649 -338 l 649 -338 l 649 -323 l 822 -323 l 822 -337 q 822 -399 801 -432 q 780 -466 735 -466 z"},"ങ":{"ha":1008,"x_min":34,"x_max":978,"o":"m 349 -577 l 349 -577 q 424 -577 476 -554 q 528 -531 570 -478 l 570 -478 l 595 -388 l 619 -237 l 619 0 l 471 0 l 471 -289 q 471 -356 462 -388 q 453 -420 434 -437 l 434 -437 q 420 -450 400 -457 q 380 -464 348 -464 l 348 -464 q 299 -464 258 -440 q 217 -417 193 -367 q 168 -318 168 -241 l 168 -241 l 168 -234 q 168 -177 176 -147 q 184 -117 198 -106 q 212 -96 227 -96 l 227 -96 q 242 -96 252 -103 q 261 -111 266 -127 q 271 -143 271 -170 l 271 -170 q 271 -210 259 -228 q 247 -246 222 -246 l 222 -246 q 196 -246 172 -228 q 148 -210 118 -170 l 118 -170 l 98 -274 q 126 -303 168 -327 q 210 -351 262 -351 l 262 -351 q 312 -351 346 -329 q 380 -308 397 -269 q 414 -230 414 -178 l 414 -178 q 414 -117 393 -74 q 372 -32 332 -10 q 291 12 232 12 l 232 12 q 178 12 133 -13 q 88 -38 61 -94 q 34 -151 34 -244 l 34 -244 q 34 -354 75 -428 q 116 -503 188 -540 q 259 -577 349 -577 z m 761 -577 l 761 -577 q 830 -577 877 -555 q 923 -534 947 -497 q 970 -461 970 -415 l 970 -415 q 970 -382 961 -357 q 952 -332 933 -312 q 913 -293 882 -278 l 882 -278 l 884 -285 q 929 -268 954 -232 q 978 -196 978 -146 l 978 -146 q 978 -71 933 -29 q 887 12 793 12 l 793 12 q 765 12 740 9 q 715 5 696 0 l 696 0 l 716 -107 q 730 -104 742 -102 q 754 -100 768 -100 l 768 -100 q 800 -100 815 -113 q 830 -127 830 -158 l 830 -158 q 830 -174 824 -186 q 818 -199 807 -207 l 807 -207 q 796 -217 779 -221 q 762 -225 733 -225 l 733 -225 l 713 -225 l 713 -335 l 730 -335 q 756 -335 774 -339 q 791 -344 801 -353 l 801 -353 q 811 -362 816 -374 q 821 -386 821 -401 l 821 -401 q 821 -432 803 -449 q 785 -466 751 -466 l 751 -466 q 720 -466 699 -457 q 677 -448 661 -431 l 661 -431 q 645 -414 636 -391 q 626 -368 623 -336 q 619 -305 619 -262 l 619 -262 l 619 -171 l 491 -182 l 485 -292 l 493 -394 q 511 -448 546 -489 q 581 -530 635 -553 q 688 -577 761 -577 z"},"ച":{"ha":862,"x_min":19,"x_max":808,"o":"m 660 -565 l 808 -565 l 808 0 l 19 0 l 19 -112 l 396 -112 l 325 -92 q 346 -110 361 -140 q 376 -171 376 -209 l 376 -209 q 376 -243 364 -262 q 352 -281 325 -281 l 325 -281 q 298 -281 285 -261 q 271 -242 271 -211 l 271 -211 q 271 -198 273 -188 q 274 -179 275 -171 l 275 -171 l 131 -159 q 129 -171 127 -186 q 125 -202 125 -218 l 125 -218 q 125 -299 176 -345 q 226 -392 324 -392 l 324 -392 q 383 -392 421 -375 q 459 -359 481 -333 q 502 -308 511 -277 q 519 -246 519 -218 l 519 -218 q 519 -193 514 -171 q 509 -149 499 -129 q 489 -109 475 -91 l 475 -91 l 454 -112 l 660 -112 l 660 -565 z"},"ഛ":{"ha":1257,"x_min":19,"x_max":1224,"o":"m 324 -392 l 324 -392 q 383 -392 421 -375 q 459 -359 481 -333 q 502 -308 511 -277 q 519 -246 519 -218 l 519 -218 q 519 -193 514 -171 q 509 -149 499 -129 q 489 -109 475 -91 l 475 -91 l 454 -112 l 671 -112 l 724 0 l 19 0 l 19 -112 l 396 -112 l 325 -92 q 346 -110 361 -140 q 376 -171 376 -209 l 376 -209 q 376 -243 364 -262 q 352 -281 325 -281 l 325 -281 q 298 -281 285 -261 q 271 -242 271 -211 l 271 -211 q 271 -198 273 -188 q 274 -179 275 -171 l 275 -171 l 131 -159 q 129 -171 127 -186 q 125 -202 125 -218 l 125 -218 q 125 -299 176 -345 q 226 -392 324 -392 z m 893 -577 l 893 -577 q 977 -577 1040 -550 q 1102 -524 1143 -477 q 1183 -431 1204 -369 q 1224 -307 1224 -236 l 1224 -236 q 1224 -150 1200 -94 q 1175 -39 1129 -13 q 1082 12 1013 12 l 1013 12 q 944 12 902 -17 q 859 -46 840 -95 q 821 -144 821 -205 l 821 -205 q 821 -302 865 -355 q 908 -408 990 -408 l 990 -408 q 1038 -408 1074 -381 q 1109 -355 1132 -312 q 1154 -270 1163 -223 l 1163 -223 l 1106 -218 q 1101 -241 1091 -260 q 1080 -280 1064 -292 q 1048 -305 1026 -305 l 1026 -305 q 995 -305 980 -280 q 965 -256 965 -201 l 965 -201 q 965 -167 971 -144 q 977 -121 990 -109 q 1002 -98 1019 -98 l 1019 -98 q 1038 -98 1051 -110 q 1064 -123 1071 -153 q 1078 -183 1078 -234 l 1078 -234 q 1078 -253 1077 -271 q 1076 -290 1073 -306 l 1073 -306 q 1073 -311 1073 -319 q 1072 -327 1071 -331 l 1071 -331 q 1066 -365 1044 -395 q 1022 -426 986 -445 q 950 -464 902 -464 l 902 -464 q 844 -464 807 -442 q 769 -421 751 -381 q 732 -341 732 -287 l 732 -287 q 732 -243 742 -205 q 751 -167 768 -133 q 785 -99 806 -68 l 806 -68 l 746 0 l 697 0 l 680 -43 q 653 -77 630 -114 q 607 -152 594 -197 q 580 -243 580 -299 l 580 -299 q 580 -354 599 -404 q 617 -454 655 -493 q 693 -532 752 -554 q 811 -577 893 -577 z"},"ജ":{"ha":875,"x_min":28,"x_max":840,"o":"m 279 -577 l 279 -577 q 333 -577 371 -567 q 408 -558 435 -541 q 461 -525 482 -505 l 482 -505 l 451 -504 q 487 -545 530 -561 q 573 -577 624 -577 l 624 -577 q 702 -577 750 -546 q 797 -516 819 -468 q 840 -420 840 -366 l 840 -366 q 840 -323 829 -289 q 817 -256 795 -230 q 772 -205 739 -187 l 739 -187 l 569 -158 l 465 -150 q 437 -146 402 -145 q 366 -144 335 -144 l 335 -144 l 232 -144 q 203 -144 190 -141 q 177 -139 170 -133 l 170 -133 q 167 -129 165 -124 q 162 -120 162 -114 l 162 -114 q 162 -106 166 -99 q 170 -93 180 -89 q 189 -86 205 -86 l 205 -86 q 226 -86 245 -88 q 264 -91 289 -98 q 314 -105 351 -119 l 351 -119 q 378 -128 406 -136 q 433 -144 458 -150 q 482 -157 504 -162 q 526 -167 542 -170 l 542 -170 q 559 -176 577 -187 q 595 -198 613 -208 q 630 -219 648 -226 q 665 -234 679 -234 l 679 -234 q 713 -234 745 -222 q 776 -211 797 -184 q 818 -158 818 -112 l 818 -112 q 818 -52 779 -20 q 740 12 665 12 l 665 12 q 607 12 573 -7 q 538 -26 523 -56 q 508 -86 508 -118 l 508 -118 q 508 -159 527 -186 q 546 -214 563 -227 l 563 -227 l 684 -215 q 673 -208 659 -194 q 645 -181 635 -163 q 624 -146 624 -123 l 624 -123 q 624 -101 633 -89 q 641 -77 661 -77 l 661 -77 q 680 -77 689 -87 q 698 -97 698 -115 l 698 -115 q 698 -127 695 -136 q 691 -145 683 -150 q 675 -156 661 -156 l 661 -156 q 645 -156 632 -147 q 618 -138 597 -119 l 597 -119 l 589 -136 q 576 -123 555 -106 q 533 -90 504 -73 q 474 -57 436 -42 l 436 -42 q 387 -23 348 -10 q 309 2 273 7 q 236 12 194 12 l 194 12 q 146 12 108 0 q 70 -12 49 -39 q 28 -66 28 -111 l 28 -111 q 28 -147 43 -172 q 57 -197 84 -212 l 84 -212 q 109 -226 143 -232 q 176 -238 238 -238 l 238 -238 l 498 -238 q 538 -238 566 -240 q 594 -243 615 -248 q 635 -254 650 -263 l 650 -263 q 674 -277 687 -301 q 699 -326 699 -363 l 699 -363 q 699 -394 689 -417 q 678 -441 659 -454 q 640 -468 610 -468 l 610 -468 q 594 -468 583 -463 q 571 -459 563 -452 l 563 -452 q 547 -437 542 -412 q 536 -387 536 -345 l 536 -345 l 536 -265 l 403 -265 l 403 -312 q 403 -360 398 -393 q 392 -426 370 -449 l 370 -449 q 356 -463 333 -472 q 310 -482 277 -482 l 277 -482 q 251 -482 219 -476 q 187 -470 169 -455 l 169 -455 q 167 -452 165 -444 q 162 -437 160 -434 l 160 -434 q 155 -426 153 -414 q 150 -402 150 -388 l 150 -388 q 150 -355 160 -343 q 170 -331 185 -331 l 185 -331 q 198 -331 205 -336 q 212 -342 216 -352 q 220 -363 220 -377 l 220 -377 q 220 -400 210 -411 q 200 -423 182 -423 l 182 -423 q 169 -423 157 -419 q 144 -415 133 -409 l 133 -409 l 80 -433 q 105 -458 143 -468 q 181 -478 219 -478 l 219 -478 q 252 -478 279 -467 q 305 -456 321 -431 q 337 -407 337 -368 l 337 -368 q 337 -336 323 -308 q 309 -280 277 -262 q 244 -245 188 -245 l 188 -245 q 118 -245 76 -282 q 34 -319 34 -391 l 34 -391 q 34 -446 62 -487 q 89 -529 144 -553 q 198 -577 279 -577 z"},"ഝ":{"ha":1557,"x_min":34,"x_max":1523,"o":"m 641 -577 l 641 -577 q 700 -577 747 -564 q 793 -551 828 -524 l 828 -524 q 873 -489 895 -434 q 916 -380 916 -290 l 916 -290 l 916 -220 q 916 -190 920 -166 q 924 -142 936 -127 l 936 -127 q 945 -115 958 -108 q 971 -102 988 -102 l 988 -102 q 1004 -102 1016 -107 q 1028 -112 1037 -121 l 1037 -121 q 1050 -136 1055 -160 q 1060 -184 1060 -227 l 1060 -227 l 1060 -566 l 1209 -566 l 1209 -234 q 1209 -184 1213 -158 q 1217 -133 1232 -118 l 1232 -118 q 1240 -110 1253 -105 q 1265 -101 1276 -101 l 1276 -101 q 1301 -101 1324 -118 q 1346 -135 1360 -171 q 1373 -208 1373 -266 l 1373 -266 q 1373 -309 1364 -349 q 1355 -390 1338 -429 q 1321 -469 1295 -510 l 1295 -510 l 1412 -578 q 1448 -532 1473 -483 q 1497 -435 1510 -380 q 1523 -326 1523 -261 l 1523 -261 q 1523 -181 1496 -119 q 1468 -58 1417 -23 q 1366 11 1293 11 l 1293 11 q 1240 11 1200 -5 q 1160 -22 1123 -62 l 1123 -62 l 1144 -67 q 1125 -44 1102 -26 q 1079 -9 1050 1 q 1020 11 980 11 l 980 11 q 928 11 890 -4 q 852 -19 825 -44 l 825 -44 q 805 -65 792 -92 q 779 -119 773 -154 q 767 -190 767 -234 l 767 -234 l 767 -280 q 767 -321 762 -351 q 757 -381 748 -402 q 738 -424 722 -437 l 722 -437 q 706 -452 685 -460 q 663 -469 631 -469 l 631 -469 q 610 -469 593 -466 q 575 -463 560 -457 l 560 -457 l 543 -451 q 507 -434 481 -398 q 455 -363 442 -318 q 428 -273 428 -223 l 428 -223 q 428 -174 436 -147 q 444 -121 458 -110 q 471 -100 487 -100 l 487 -100 q 504 -100 518 -110 q 531 -120 539 -146 q 547 -173 547 -221 l 547 -221 q 547 -274 534 -319 q 520 -364 496 -397 q 472 -431 440 -450 l 440 -450 l 419 -457 q 404 -464 387 -466 q 370 -469 354 -469 l 354 -469 q 294 -469 257 -445 q 220 -422 203 -381 q 185 -340 185 -288 l 185 -288 q 185 -242 195 -203 q 205 -164 224 -128 q 242 -92 267 -57 l 267 -57 l 156 12 q 120 -27 93 -71 q 66 -115 50 -169 q 34 -224 34 -292 l 34 -292 q 34 -340 49 -390 q 63 -440 98 -483 q 133 -526 193 -551 q 252 -577 342 -577 l 342 -577 q 395 -577 438 -565 q 480 -554 519 -531 l 519 -531 l 538 -509 q 613 -463 654 -394 q 695 -325 695 -223 l 695 -223 q 695 -144 671 -91 q 647 -39 601 -13 q 554 12 486 12 l 486 12 q 420 12 374 -15 q 328 -43 304 -95 q 280 -148 280 -224 l 280 -224 q 280 -287 298 -338 q 316 -390 352 -431 q 387 -473 439 -506 l 439 -506 l 463 -529 q 504 -554 549 -565 q 593 -577 641 -577 z"},"ഞ":{"ha":1390,"x_min":34,"x_max":1356,"o":"m 349 -577 l 349 -577 q 424 -577 477 -553 q 529 -530 571 -478 l 571 -478 l 572 -418 l 619 -213 l 619 0 l 471 0 l 471 -289 q 471 -356 462 -388 q 453 -420 434 -437 l 434 -437 q 420 -450 400 -457 q 380 -464 348 -464 l 348 -464 q 299 -464 258 -440 q 217 -417 193 -367 q 168 -318 168 -241 l 168 -241 l 168 -234 q 168 -177 176 -147 q 184 -117 198 -106 q 212 -96 227 -96 l 227 -96 q 242 -96 252 -103 q 261 -111 266 -127 q 271 -143 271 -170 l 271 -170 q 271 -210 259 -228 q 247 -246 222 -246 l 222 -246 q 196 -246 172 -228 q 148 -210 118 -170 l 118 -170 l 98 -274 q 126 -303 168 -327 q 210 -351 262 -351 l 262 -351 q 312 -351 346 -329 q 380 -308 397 -269 q 414 -230 414 -178 l 414 -178 q 414 -117 393 -74 q 372 -32 332 -10 q 291 12 232 12 l 232 12 q 178 12 133 -13 q 88 -38 61 -94 q 34 -151 34 -244 l 34 -244 q 34 -354 75 -428 q 116 -503 188 -540 q 259 -577 349 -577 z m 763 -577 l 763 -577 q 808 -577 850 -566 q 892 -555 931 -531 l 931 -531 l 950 -509 q 1025 -463 1067 -394 q 1108 -325 1108 -223 l 1108 -223 q 1108 -144 1084 -91 q 1059 -39 1013 -13 q 967 12 899 12 l 899 12 q 833 12 787 -15 q 740 -43 716 -95 q 692 -148 692 -224 l 692 -224 q 692 -287 711 -338 q 729 -390 765 -431 q 801 -473 853 -506 l 853 -506 l 878 -529 q 916 -552 962 -564 q 1007 -577 1062 -577 l 1062 -577 q 1147 -577 1204 -552 q 1261 -528 1295 -486 q 1328 -444 1342 -392 q 1356 -341 1356 -288 l 1356 -288 q 1356 -223 1340 -168 q 1324 -114 1296 -70 q 1268 -27 1232 12 l 1232 12 l 1122 -56 q 1145 -89 1164 -123 q 1183 -158 1194 -197 q 1205 -237 1205 -282 l 1205 -282 q 1205 -339 1189 -380 q 1172 -422 1138 -445 q 1104 -469 1052 -469 l 1052 -469 q 1029 -469 1010 -466 q 991 -463 975 -457 l 975 -457 l 958 -452 q 919 -433 893 -397 q 867 -362 854 -316 q 841 -271 841 -223 l 841 -223 q 841 -174 849 -147 q 856 -121 870 -110 q 883 -100 899 -100 l 899 -100 q 916 -100 930 -110 q 943 -120 951 -146 q 959 -173 959 -221 l 959 -221 q 959 -273 946 -318 q 932 -364 908 -398 q 883 -432 851 -450 l 851 -450 l 831 -457 q 822 -462 811 -464 q 800 -466 788 -467 q 776 -469 760 -469 l 760 -469 q 727 -469 705 -460 q 682 -452 667 -440 l 667 -440 q 640 -418 630 -381 q 619 -345 619 -281 l 619 -281 l 619 -25 l 486 -25 l 486 -265 l 520 -470 q 545 -500 578 -524 q 610 -549 656 -563 q 701 -577 763 -577 z"},"ട":{"ha":528,"x_min":11,"x_max":511,"o":"m 267 -577 l 267 -577 q 341 -577 401 -562 q 460 -548 511 -524 l 511 -524 l 449 -423 q 405 -443 364 -453 q 323 -463 271 -463 l 271 -463 q 236 -463 215 -454 q 194 -446 184 -432 q 174 -418 174 -402 l 174 -402 q 174 -387 178 -377 q 182 -368 190 -361 l 190 -361 q 202 -351 222 -347 q 241 -344 269 -344 l 269 -344 l 284 -344 q 344 -344 386 -330 q 428 -317 456 -290 l 456 -290 q 479 -269 492 -240 q 504 -211 504 -172 l 504 -172 q 504 -119 478 -77 q 451 -36 396 -12 q 341 12 255 12 l 255 12 q 186 12 125 -2 q 63 -16 11 -42 l 11 -42 l 71 -145 q 102 -130 130 -120 q 157 -111 187 -106 q 216 -102 249 -102 l 249 -102 q 287 -102 310 -110 q 333 -119 344 -134 q 354 -149 354 -168 l 354 -168 q 354 -183 349 -195 q 344 -207 332 -214 l 332 -214 q 321 -222 306 -225 q 290 -229 258 -229 l 258 -229 l 250 -229 q 188 -229 140 -243 q 92 -257 63 -287 l 63 -287 q 45 -307 35 -334 q 24 -362 24 -397 l 24 -397 q 24 -449 51 -489 q 77 -530 132 -553 q 186 -577 267 -577 z"},"ഠ":{"ha":623,"x_min":33,"x_max":589,"o":"m 310 -577 l 310 -577 q 399 -577 462 -542 q 524 -507 557 -441 q 589 -375 589 -282 l 589 -282 q 589 -189 556 -123 q 523 -58 462 -23 q 400 12 311 12 l 311 12 q 219 12 157 -24 q 95 -61 64 -128 q 33 -195 33 -283 l 33 -283 q 33 -376 66 -442 q 99 -508 161 -542 q 223 -577 310 -577 z m 311 -102 l 311 -102 q 352 -102 380 -123 q 408 -144 423 -184 q 437 -225 437 -283 l 437 -283 q 437 -341 423 -381 q 408 -421 381 -442 q 353 -464 312 -464 l 312 -464 q 252 -464 219 -419 q 186 -374 186 -283 l 186 -283 q 186 -196 218 -149 q 250 -102 311 -102 z"},"ഡ":{"ha":1138,"x_min":34,"x_max":1104,"o":"m 559 12 l 559 12 q 508 12 471 -2 q 433 -17 405 -43 l 405 -43 q 384 -64 371 -90 q 358 -117 352 -152 q 345 -188 345 -236 l 345 -236 l 345 -334 q 345 -381 341 -404 q 336 -427 326 -441 l 326 -441 q 318 -453 305 -458 q 292 -464 274 -464 l 274 -464 q 250 -464 230 -448 q 209 -433 197 -397 q 184 -362 184 -301 l 184 -301 q 184 -254 194 -213 q 203 -172 220 -133 q 237 -95 262 -54 l 262 -54 l 145 13 q 112 -32 87 -80 q 62 -129 48 -184 q 34 -239 34 -305 l 34 -305 q 34 -387 62 -448 q 90 -509 145 -543 q 199 -577 276 -577 l 276 -577 q 330 -577 369 -563 q 408 -550 436 -523 l 436 -523 q 458 -502 470 -474 q 482 -446 488 -410 q 494 -375 494 -329 l 494 -329 l 494 -233 q 494 -187 498 -164 q 502 -141 514 -126 l 514 -126 q 523 -114 536 -107 q 549 -101 568 -101 l 568 -101 q 583 -101 596 -106 q 609 -112 617 -121 l 617 -121 q 631 -136 636 -159 q 641 -183 641 -226 l 641 -226 l 641 -565 l 789 -565 l 789 -234 q 789 -183 794 -158 q 798 -133 812 -118 l 812 -118 q 821 -110 834 -105 q 846 -101 857 -101 l 857 -101 q 882 -101 904 -118 q 926 -135 940 -171 q 954 -208 954 -265 l 954 -265 q 954 -308 945 -348 q 936 -389 919 -429 q 902 -469 876 -509 l 876 -509 l 993 -577 q 1028 -531 1053 -482 q 1078 -434 1091 -379 q 1104 -325 1104 -260 l 1104 -260 q 1104 -180 1077 -118 q 1049 -57 998 -22 q 947 12 874 12 l 874 12 q 821 12 782 -4 q 742 -21 705 -62 l 705 -62 l 725 -66 q 693 -29 656 -8 q 619 12 559 12 z"},"ഢ":{"ha":1260,"x_min":34,"x_max":1226,"o":"m 559 11 l 559 11 q 508 11 471 -3 q 433 -18 405 -44 l 405 -44 q 384 -65 371 -91 q 358 -118 352 -153 q 345 -189 345 -237 l 345 -237 l 345 -335 q 345 -382 341 -404 q 336 -427 326 -441 l 326 -441 q 318 -454 305 -459 q 292 -465 274 -465 l 274 -465 q 250 -465 230 -449 q 209 -433 197 -398 q 184 -363 184 -302 l 184 -302 q 184 -256 193 -214 q 202 -173 220 -134 q 237 -95 262 -55 l 262 -55 l 145 13 q 112 -33 87 -81 q 62 -130 48 -185 q 34 -240 34 -306 l 34 -306 q 34 -388 62 -449 q 90 -510 144 -544 q 198 -578 276 -578 l 276 -578 q 330 -578 369 -564 q 408 -551 436 -524 l 436 -524 q 458 -503 470 -475 q 482 -447 488 -411 q 494 -375 494 -330 l 494 -330 l 494 -235 q 494 -188 498 -164 q 502 -141 514 -126 l 514 -126 q 523 -114 536 -108 q 549 -102 568 -102 l 568 -102 q 583 -102 596 -107 q 609 -113 617 -122 l 617 -122 q 631 -136 636 -160 q 641 -184 641 -227 l 641 -227 l 641 -566 l 789 -566 l 789 -295 l 725 -67 q 694 -30 657 -9 q 619 11 559 11 z m 1027 -577 l 1027 -577 q 1082 -577 1127 -552 q 1172 -527 1199 -471 q 1226 -415 1226 -322 l 1226 -322 q 1226 -212 1185 -137 q 1144 -63 1073 -25 q 1001 12 911 12 l 911 12 q 836 12 784 -11 q 731 -35 689 -87 l 689 -87 l 662 -246 l 662 -517 l 789 -517 l 789 -277 q 789 -211 798 -178 q 807 -146 826 -128 l 826 -128 q 840 -116 861 -108 q 881 -101 912 -101 l 912 -101 q 962 -101 1003 -125 q 1043 -149 1068 -198 q 1092 -248 1092 -324 l 1092 -324 l 1092 -332 q 1092 -389 1084 -418 q 1076 -447 1063 -458 q 1049 -470 1032 -470 l 1032 -470 q 1019 -470 1009 -462 q 999 -455 994 -438 q 989 -422 989 -395 l 989 -395 q 989 -356 1001 -338 q 1013 -320 1037 -320 l 1037 -320 q 1064 -320 1088 -338 q 1111 -356 1142 -396 l 1142 -396 l 1162 -292 q 1134 -262 1092 -238 q 1050 -215 998 -215 l 998 -215 q 948 -215 914 -236 q 880 -258 863 -297 q 846 -336 846 -386 l 846 -386 q 846 -448 867 -490 q 888 -533 929 -555 q 969 -577 1027 -577 z"},"ണ":{"ha":1268,"x_min":34,"x_max":1234,"o":"m 349 -577 l 349 -577 q 424 -577 476 -553 q 528 -530 571 -477 l 571 -477 l 529 -494 q 560 -536 602 -556 q 644 -577 695 -577 l 695 -577 q 745 -577 784 -558 q 822 -540 854 -501 l 854 -501 l 835 -504 q 871 -543 910 -560 q 949 -577 1002 -577 l 1002 -577 q 1076 -577 1128 -542 q 1179 -508 1207 -447 q 1234 -386 1234 -305 l 1234 -305 q 1234 -240 1220 -184 q 1206 -129 1181 -80 q 1156 -32 1124 13 l 1124 13 l 1005 -55 q 1031 -96 1049 -135 q 1066 -175 1075 -216 q 1083 -257 1083 -300 l 1083 -300 q 1083 -360 1070 -396 q 1056 -432 1034 -448 q 1011 -465 985 -465 l 985 -465 q 975 -465 963 -460 q 950 -455 942 -446 l 942 -446 q 927 -431 923 -406 q 919 -382 919 -332 l 919 -332 l 919 0 l 770 0 l 770 -334 q 770 -381 766 -405 q 761 -429 747 -444 l 747 -444 q 739 -454 726 -459 q 713 -465 694 -465 l 694 -465 q 678 -465 665 -459 q 652 -453 643 -443 l 643 -443 q 629 -428 624 -404 q 619 -381 619 -330 l 619 -330 l 619 0 l 471 0 l 471 -289 q 471 -356 462 -388 q 453 -420 434 -437 l 434 -437 q 420 -450 401 -457 q 381 -464 348 -464 l 348 -464 q 299 -464 258 -440 q 217 -417 193 -367 q 168 -318 168 -241 l 168 -241 l 168 -234 q 168 -177 176 -147 q 184 -117 198 -106 q 212 -96 227 -96 l 227 -96 q 242 -96 252 -103 q 261 -111 266 -127 q 271 -143 271 -170 l 271 -170 q 271 -210 259 -228 q 247 -246 222 -246 l 222 -246 q 196 -246 172 -228 q 148 -210 118 -170 l 118 -170 l 98 -274 q 126 -303 168 -327 q 210 -351 262 -351 l 262 -351 q 312 -351 346 -329 q 380 -308 397 -269 q 414 -230 414 -178 l 414 -178 q 414 -117 393 -74 q 372 -32 332 -10 q 291 12 232 12 l 232 12 q 178 12 133 -13 q 88 -38 61 -94 q 34 -151 34 -244 l 34 -244 q 34 -354 75 -428 q 116 -503 188 -540 q 259 -577 349 -577 z"},"ത":{"ha":978,"x_min":34,"x_max":944,"o":"m 486 12 l 486 12 q 420 12 374 -15 q 328 -43 304 -95 q 280 -148 280 -224 l 280 -224 q 280 -287 299 -338 q 317 -390 353 -431 q 389 -473 441 -506 l 441 -506 l 465 -529 q 503 -552 548 -564 q 593 -577 650 -577 l 650 -577 q 734 -577 791 -552 q 848 -528 882 -486 q 915 -444 930 -392 q 944 -341 944 -288 l 944 -288 q 944 -223 928 -168 q 911 -114 884 -70 q 856 -27 820 12 l 820 12 l 709 -56 q 733 -89 752 -123 q 770 -158 781 -197 q 792 -237 792 -282 l 792 -282 q 792 -339 776 -380 q 759 -422 726 -445 q 692 -469 640 -469 l 640 -469 q 616 -469 597 -466 q 578 -463 562 -457 l 562 -457 l 545 -452 q 507 -433 481 -397 q 455 -362 442 -316 q 428 -271 428 -223 l 428 -223 q 428 -174 436 -147 q 444 -121 458 -110 q 471 -100 487 -100 l 487 -100 q 504 -100 518 -110 q 531 -120 539 -146 q 547 -173 547 -221 l 547 -221 q 547 -274 534 -319 q 521 -364 497 -397 q 473 -431 441 -450 l 441 -450 l 419 -457 q 405 -463 388 -466 q 370 -469 354 -469 l 354 -469 q 294 -469 257 -445 q 220 -422 203 -381 q 185 -340 185 -288 l 185 -288 q 185 -242 195 -203 q 205 -164 224 -128 q 242 -92 267 -57 l 267 -57 l 156 12 q 121 -27 94 -71 q 66 -115 50 -169 q 34 -224 34 -292 l 34 -292 q 34 -340 49 -390 q 63 -440 98 -483 q 132 -526 192 -551 q 252 -577 341 -577 l 341 -577 q 395 -577 438 -565 q 480 -554 519 -531 l 519 -531 l 538 -509 q 613 -463 654 -394 q 695 -325 695 -223 l 695 -223 q 695 -144 671 -91 q 647 -39 601 -13 q 554 12 486 12 z"},"ഥ":{"ha":846,"x_min":54,"x_max":796,"o":"m 54 -565 l 202 -565 l 202 -112 l 360 -112 l 360 0 l 54 0 l 54 -565 z m 554 -577 l 554 -577 q 614 -577 657 -562 q 700 -547 730 -518 l 730 -518 q 767 -482 782 -432 q 796 -383 796 -304 l 796 -304 l 796 0 l 310 0 l 310 -299 q 310 -355 317 -395 q 323 -435 338 -464 q 352 -494 376 -518 l 376 -518 q 405 -546 449 -561 q 493 -577 554 -577 z m 554 -465 l 554 -465 q 530 -465 514 -458 q 498 -451 487 -439 l 487 -439 q 471 -420 465 -390 q 458 -361 458 -302 l 458 -302 l 458 -112 l 648 -112 l 648 -297 q 648 -359 642 -389 q 636 -420 620 -439 l 620 -439 q 609 -451 592 -458 q 575 -465 554 -465 z"},"ദ":{"ha":614,"x_min":38,"x_max":584,"o":"m 362 -577 l 362 -577 q 434 -577 482 -555 q 529 -534 552 -497 q 575 -461 575 -415 l 575 -415 q 575 -366 555 -333 q 535 -301 487 -278 l 487 -278 l 490 -285 q 534 -268 559 -232 q 584 -196 584 -146 l 584 -146 q 584 -71 537 -29 q 490 12 396 12 l 396 12 q 367 12 339 9 q 310 5 286 -1 l 286 -1 l 307 -108 q 323 -104 339 -102 q 354 -100 370 -100 l 370 -100 q 405 -100 420 -114 q 435 -128 435 -158 l 435 -158 q 435 -174 430 -186 q 424 -199 413 -207 l 413 -207 q 402 -217 385 -221 q 368 -225 337 -225 l 337 -225 l 307 -225 l 307 -335 l 333 -335 q 362 -335 379 -339 q 396 -344 407 -353 l 407 -353 q 417 -362 422 -374 q 427 -386 427 -401 l 427 -401 q 427 -432 409 -449 q 391 -466 355 -466 l 355 -466 q 301 -466 264 -435 q 226 -404 207 -349 q 188 -295 188 -222 l 188 -222 q 188 -169 194 -118 q 200 -68 211 -25 l 211 -25 l 70 4 q 56 -46 47 -108 q 38 -170 38 -225 l 38 -225 q 38 -335 75 -413 q 111 -492 183 -534 q 255 -577 362 -577 z"},"ധ":{"ha":852,"x_min":34,"x_max":818,"o":"m 579 12 l 579 12 q 544 12 517 5 q 490 -3 467 -19 q 444 -35 420 -58 l 420 -58 l 435 -60 q 400 -22 360 -5 q 320 12 267 12 l 267 12 q 193 12 141 -22 q 89 -57 62 -119 q 34 -181 34 -260 l 34 -260 q 34 -325 48 -380 q 61 -436 86 -484 q 111 -533 145 -578 l 145 -578 l 263 -510 q 237 -470 220 -431 q 203 -393 194 -352 q 184 -311 184 -266 l 184 -266 q 184 -207 199 -170 q 213 -134 236 -117 q 259 -101 285 -101 l 285 -101 q 300 -101 311 -105 q 321 -110 328 -117 l 328 -117 q 342 -130 347 -154 q 352 -178 352 -224 l 352 -224 l 352 -565 l 501 -565 l 501 -223 q 501 -176 506 -153 q 510 -130 523 -116 l 523 -116 q 530 -109 541 -105 q 551 -101 568 -101 l 568 -101 q 591 -101 615 -117 q 638 -133 653 -169 q 668 -205 668 -265 l 668 -265 q 668 -308 659 -350 q 650 -392 634 -432 q 617 -472 590 -510 l 590 -510 l 707 -578 q 743 -531 768 -482 q 792 -433 805 -379 q 818 -325 818 -262 l 818 -262 q 818 -184 791 -122 q 764 -60 711 -24 q 658 12 579 12 z"},"ന":{"ha":852,"x_min":34,"x_max":818,"o":"m 273 -577 l 273 -577 q 309 -577 336 -569 q 363 -562 386 -547 q 409 -532 432 -508 l 432 -508 l 417 -505 q 453 -544 493 -560 q 532 -577 586 -577 l 586 -577 q 660 -577 712 -542 q 763 -508 791 -447 q 818 -386 818 -305 l 818 -305 q 818 -240 805 -185 q 791 -130 767 -81 q 742 -33 707 13 l 707 13 l 589 -55 q 615 -96 633 -134 q 650 -173 659 -213 q 668 -254 668 -300 l 668 -300 q 668 -359 654 -395 q 640 -431 617 -448 q 594 -465 568 -465 l 568 -465 q 553 -465 543 -460 q 532 -455 524 -449 l 524 -449 q 511 -435 506 -411 q 500 -387 500 -342 l 500 -342 l 500 0 l 352 0 l 352 -342 q 352 -390 347 -412 q 342 -435 329 -449 l 329 -449 q 323 -456 312 -460 q 301 -465 285 -465 l 285 -465 q 261 -465 238 -449 q 215 -433 200 -396 q 184 -360 184 -300 l 184 -300 q 184 -257 193 -215 q 202 -174 219 -134 q 236 -94 262 -55 l 262 -55 l 145 13 q 111 -34 86 -83 q 61 -133 48 -187 q 34 -241 34 -303 l 34 -303 q 34 -381 61 -443 q 88 -505 142 -541 q 195 -577 273 -577 z"},"ഩ":{"ha":971,"x_min":34,"x_max":937,"o":"m 349 -577 l 349 -577 q 424 -577 476 -553 q 528 -530 571 -477 l 571 -477 l 528 -496 q 564 -541 607 -559 q 650 -577 704 -577 l 704 -577 q 778 -577 830 -542 q 882 -508 910 -447 q 937 -386 937 -305 l 937 -305 q 937 -239 923 -183 q 909 -128 885 -80 q 860 -33 826 13 l 826 13 l 708 -55 q 734 -96 752 -134 q 769 -173 778 -213 q 787 -254 787 -300 l 787 -300 q 787 -359 773 -395 q 759 -431 736 -448 q 713 -465 687 -465 l 687 -465 q 672 -465 661 -460 q 650 -455 643 -449 l 643 -449 q 629 -435 624 -411 q 619 -387 619 -342 l 619 -342 l 619 0 l 471 0 l 471 -288 q 471 -356 462 -388 q 453 -420 434 -437 l 434 -437 q 420 -450 400 -457 q 380 -464 348 -464 l 348 -464 q 299 -464 258 -440 q 217 -417 193 -367 q 168 -318 168 -241 l 168 -241 l 168 -234 q 168 -177 176 -147 q 184 -117 198 -106 q 212 -96 227 -96 l 227 -96 q 242 -96 252 -103 q 261 -111 266 -127 q 271 -143 271 -170 l 271 -170 q 271 -210 259 -228 q 247 -246 222 -246 l 222 -246 q 196 -246 172 -228 q 148 -210 118 -170 l 118 -170 l 98 -274 q 126 -303 168 -327 q 210 -351 262 -351 l 262 -351 q 312 -351 346 -329 q 380 -308 397 -269 q 414 -230 414 -178 l 414 -178 q 414 -117 393 -74 q 372 -32 332 -10 q 291 12 232 12 l 232 12 q 178 12 133 -13 q 88 -38 61 -94 q 34 -151 34 -244 l 34 -244 q 34 -354 75 -428 q 116 -503 188 -540 q 259 -577 349 -577 z"},"പ":{"ha":834,"x_min":27,"x_max":781,"o":"m 235 -367 l 235 -367 q 309 -367 354 -339 q 398 -311 419 -268 q 439 -226 439 -180 l 439 -180 q 439 -150 430 -122 q 420 -94 410 -73 l 410 -73 l 403 -112 l 632 -112 l 632 -565 l 781 -565 l 781 0 l 318 0 l 269 -65 q 279 -82 288 -108 q 296 -135 296 -170 l 296 -170 q 296 -206 283 -230 q 269 -255 237 -255 l 237 -255 q 216 -255 202 -244 q 188 -234 182 -214 q 175 -195 175 -172 l 175 -172 q 175 -128 188 -98 q 201 -69 216 -41 l 216 -41 l 96 12 q 65 -29 46 -74 q 27 -119 27 -177 l 27 -177 q 27 -235 53 -277 q 79 -319 126 -343 q 172 -367 235 -367 z"},"ഫ":{"ha":1063,"x_min":27,"x_max":1013,"o":"m 235 -367 l 235 -367 q 309 -367 354 -339 q 398 -311 419 -268 q 439 -226 439 -180 l 439 -180 q 439 -150 430 -122 q 420 -94 410 -73 l 410 -73 l 400 -112 l 605 -112 l 604 0 l 318 0 l 269 -65 q 279 -82 288 -108 q 296 -135 296 -170 l 296 -170 q 296 -206 283 -230 q 269 -255 237 -255 l 237 -255 q 216 -255 202 -244 q 188 -234 182 -214 q 175 -195 175 -172 l 175 -172 q 175 -128 188 -99 q 201 -70 216 -41 l 216 -41 l 96 12 q 65 -30 46 -74 q 27 -119 27 -177 l 27 -177 q 27 -235 53 -277 q 79 -319 126 -343 q 172 -367 235 -367 z m 771 -577 l 771 -577 q 831 -577 874 -562 q 917 -547 946 -518 l 946 -518 q 984 -482 999 -432 q 1013 -383 1013 -304 l 1013 -304 l 1013 0 l 526 0 l 526 -299 q 526 -355 533 -395 q 539 -435 554 -464 q 568 -494 592 -518 l 592 -518 q 622 -546 666 -561 q 709 -577 771 -577 z m 770 -465 l 770 -465 q 747 -465 731 -458 q 714 -451 703 -439 l 703 -439 q 687 -420 681 -390 q 675 -361 675 -302 l 675 -302 l 675 -112 l 864 -112 l 864 -297 q 864 -359 858 -389 q 852 -420 836 -439 l 836 -439 q 826 -451 809 -458 q 792 -465 770 -465 z"},"ബ":{"ha":1237,"x_min":34,"x_max":1183,"o":"m 349 -577 l 349 -577 q 424 -577 476 -553 q 528 -530 571 -477 l 571 -477 l 596 -401 l 619 -280 l 619 0 l 471 0 l 471 -289 q 471 -356 462 -388 q 453 -420 434 -437 l 434 -437 q 420 -450 400 -457 q 380 -464 348 -464 l 348 -464 q 299 -464 258 -440 q 217 -417 193 -367 q 168 -318 168 -241 l 168 -241 l 168 -234 q 168 -177 176 -147 q 184 -117 198 -106 q 212 -96 227 -96 l 227 -96 q 242 -96 252 -103 q 261 -111 266 -127 q 271 -143 271 -170 l 271 -170 q 271 -210 259 -228 q 247 -246 222 -246 l 222 -246 q 196 -246 172 -228 q 148 -210 118 -170 l 118 -170 l 98 -274 q 126 -303 168 -327 q 210 -351 262 -351 l 262 -351 q 312 -351 346 -329 q 380 -308 397 -269 q 414 -230 414 -178 l 414 -178 q 414 -117 393 -74 q 372 -32 332 -10 q 291 12 232 12 l 232 12 q 178 12 133 -13 q 88 -38 61 -94 q 34 -151 34 -244 l 34 -244 q 34 -354 75 -428 q 116 -503 188 -540 q 259 -577 349 -577 z m 1035 -565 l 1183 -565 l 1183 0 l 776 0 l 715 -66 q 742 -112 758 -149 q 773 -187 780 -223 q 786 -260 786 -300 l 786 -300 q 786 -359 772 -395 q 758 -431 736 -448 q 713 -465 687 -465 l 687 -465 q 672 -465 661 -460 q 650 -455 643 -449 l 643 -449 q 629 -435 624 -411 q 619 -387 619 -343 l 619 -343 l 619 -6 l 481 -6 l 481 -236 l 518 -423 l 528 -496 q 564 -541 607 -559 q 649 -577 704 -577 l 704 -577 q 777 -577 829 -542 q 881 -508 909 -447 q 936 -386 936 -305 l 936 -305 q 936 -262 930 -225 q 923 -188 911 -155 q 898 -123 880 -93 l 880 -93 l 851 -112 l 1035 -112 l 1035 -565 z"},"ഭ":{"ha":651,"x_min":38,"x_max":625,"o":"m 395 -577 l 395 -577 q 466 -577 517 -559 q 568 -542 597 -507 q 625 -473 625 -424 l 625 -424 q 625 -396 616 -372 q 607 -349 588 -334 l 588 -334 q 569 -317 539 -310 q 508 -303 462 -303 l 462 -303 l 451 -303 q 435 -303 426 -301 q 416 -300 410 -296 l 410 -296 q 405 -292 403 -287 q 400 -282 400 -276 l 400 -276 q 400 -259 416 -255 q 431 -251 452 -251 l 452 -251 l 457 -251 q 504 -251 534 -243 q 564 -235 583 -219 l 583 -219 q 603 -203 614 -180 q 624 -157 624 -126 l 624 -126 q 624 -88 605 -56 q 586 -25 544 -6 q 501 12 429 12 l 429 12 q 396 12 366 9 q 336 5 308 -1 q 280 -8 254 -17 l 254 -17 l 297 -117 q 330 -107 359 -102 q 388 -97 420 -97 l 420 -97 q 457 -97 472 -104 q 486 -111 486 -125 l 486 -125 q 486 -138 477 -143 q 467 -149 446 -149 l 446 -149 l 441 -149 q 384 -149 350 -158 q 316 -168 296 -189 l 296 -189 q 281 -204 272 -226 q 262 -248 262 -274 l 262 -274 q 262 -305 273 -328 q 284 -352 304 -367 l 304 -367 q 325 -383 354 -392 q 383 -401 433 -402 l 433 -402 l 443 -402 q 465 -402 475 -407 q 485 -412 485 -426 l 485 -426 q 485 -446 461 -456 q 436 -466 393 -466 l 393 -466 q 319 -466 274 -436 q 228 -406 208 -351 q 188 -297 188 -222 l 188 -222 q 188 -169 194 -118 q 200 -68 211 -25 l 211 -25 l 70 4 q 56 -46 47 -108 q 38 -170 38 -225 l 38 -225 q 38 -334 76 -412 q 113 -491 192 -534 q 271 -577 395 -577 z"},"മ":{"ha":714,"x_min":48,"x_max":666,"o":"m 349 -577 l 349 -577 q 434 -577 492 -557 q 550 -538 587 -503 l 587 -503 q 614 -478 632 -445 q 649 -412 658 -366 q 666 -321 666 -257 l 666 -257 l 666 0 l 48 0 l 48 -258 q 48 -323 57 -369 q 66 -415 84 -448 q 102 -481 129 -505 l 129 -505 q 166 -540 220 -558 q 273 -577 349 -577 z m 273 -460 l 273 -460 q 255 -460 241 -449 q 227 -438 216 -419 l 216 -419 q 206 -399 201 -368 q 195 -338 195 -284 l 195 -284 l 195 -67 l 163 -69 q 206 -117 241 -171 q 275 -225 296 -281 q 316 -337 316 -391 l 316 -391 q 316 -414 312 -429 q 308 -444 299 -452 q 289 -460 273 -460 z m 462 -361 l 462 -361 q 462 -316 449 -273 q 436 -230 412 -188 q 388 -146 355 -102 l 355 -102 l 338 -107 q 357 -110 381 -110 q 404 -111 419 -111 l 419 -111 l 519 -111 l 519 -274 q 519 -335 509 -373 q 498 -412 476 -436 q 454 -460 419 -474 l 419 -474 l 420 -478 q 438 -459 450 -429 q 462 -399 462 -361 z"},"യ":{"ha":988,"x_min":34,"x_max":952,"o":"m 635 12 l 635 12 q 579 12 536 0 q 493 -12 450 -37 l 450 -37 q 444 -42 438 -49 q 432 -57 426 -62 l 426 -62 q 377 -97 346 -142 q 315 -188 301 -239 q 287 -291 287 -343 l 287 -343 q 287 -381 294 -411 q 300 -442 311 -466 l 311 -466 l 333 -495 q 351 -525 378 -543 q 404 -562 436 -569 q 468 -577 501 -577 l 501 -577 q 604 -577 659 -517 q 713 -457 713 -344 l 713 -344 q 713 -248 673 -175 q 632 -102 567 -56 l 567 -56 q 559 -51 552 -44 q 544 -38 535 -33 l 535 -33 q 495 -11 452 1 q 409 12 354 12 l 354 12 q 272 12 212 -14 q 151 -40 112 -86 q 73 -133 54 -194 q 34 -255 34 -327 l 34 -327 q 34 -403 59 -459 q 84 -515 135 -546 q 185 -577 261 -577 l 261 -577 q 317 -577 363 -552 q 409 -528 441 -478 l 441 -478 l 333 -418 q 318 -444 300 -455 q 282 -466 264 -466 l 264 -466 q 238 -466 220 -450 q 202 -435 193 -405 q 184 -375 184 -331 l 184 -331 q 184 -257 206 -204 q 228 -151 268 -123 q 308 -96 360 -96 l 360 -96 q 384 -96 403 -100 q 421 -104 438 -110 l 438 -110 q 446 -114 453 -115 q 460 -116 467 -120 l 467 -120 q 497 -141 519 -176 q 541 -212 553 -256 q 564 -300 564 -345 l 564 -345 q 564 -391 555 -417 q 545 -444 531 -455 q 517 -466 501 -466 l 501 -466 q 482 -466 467 -455 q 452 -444 444 -417 q 436 -391 436 -345 l 436 -345 q 436 -303 446 -261 q 455 -219 474 -183 q 492 -148 520 -125 l 520 -125 q 528 -120 536 -118 q 543 -116 552 -112 l 552 -112 q 567 -105 588 -100 q 608 -96 631 -96 l 631 -96 q 686 -96 724 -119 q 762 -143 782 -190 q 801 -238 801 -307 l 801 -307 q 801 -360 787 -412 q 772 -465 742 -518 l 742 -518 l 867 -578 q 910 -515 931 -448 q 952 -381 952 -312 l 952 -312 q 952 -250 938 -192 q 923 -135 888 -88 q 853 -42 791 -15 q 729 12 635 12 z"},"ര":{"ha":712,"x_min":34,"x_max":679,"o":"m 348 -577 l 348 -577 q 433 -577 495 -550 q 557 -524 598 -477 q 638 -431 659 -369 q 679 -307 679 -236 l 679 -236 q 679 -150 655 -94 q 630 -39 584 -13 q 537 12 468 12 l 468 12 q 399 12 357 -17 q 314 -46 295 -95 q 276 -144 276 -205 l 276 -205 q 276 -302 320 -355 q 363 -408 445 -408 l 445 -408 q 494 -408 529 -381 q 564 -355 587 -312 q 610 -270 618 -223 l 618 -223 l 561 -218 q 556 -241 546 -260 q 535 -280 520 -292 q 504 -305 482 -305 l 482 -305 q 450 -305 435 -280 q 420 -256 420 -201 l 420 -201 q 420 -167 427 -144 q 433 -121 445 -109 q 457 -98 474 -98 l 474 -98 q 494 -98 507 -110 q 520 -123 527 -153 q 533 -183 533 -234 l 533 -234 q 533 -253 532 -271 q 531 -290 529 -306 l 529 -306 q 528 -311 528 -319 q 527 -327 526 -331 l 526 -331 q 521 -365 499 -395 q 477 -426 442 -445 q 406 -464 357 -464 l 357 -464 q 299 -464 261 -442 q 223 -421 205 -381 q 186 -341 186 -287 l 186 -287 q 186 -240 196 -201 q 205 -162 224 -126 q 243 -90 269 -54 l 269 -54 l 157 13 q 122 -26 94 -70 q 66 -115 50 -169 q 34 -224 34 -292 l 34 -292 q 34 -348 52 -399 q 70 -450 108 -490 q 146 -531 206 -554 q 266 -577 348 -577 z"},"റ":{"ha":640,"x_min":33,"x_max":607,"o":"m 321 -577 l 321 -577 q 401 -577 456 -553 q 510 -529 544 -488 q 577 -447 592 -396 q 607 -345 607 -290 l 607 -290 q 607 -224 591 -169 q 574 -115 546 -70 q 518 -26 481 13 l 481 13 l 369 -55 q 394 -89 413 -124 q 432 -159 443 -199 q 453 -240 453 -289 l 453 -289 q 453 -342 438 -381 q 422 -420 393 -442 q 364 -464 324 -464 l 324 -464 q 282 -464 252 -443 q 221 -422 204 -383 q 187 -344 187 -290 l 187 -290 q 187 -242 197 -202 q 207 -162 226 -126 q 244 -91 270 -55 l 270 -55 l 157 13 q 121 -25 93 -69 q 65 -114 49 -169 q 33 -224 33 -292 l 33 -292 q 33 -343 49 -393 q 64 -444 98 -485 q 131 -527 187 -552 q 242 -577 321 -577 z"},"ല":{"ha":806,"x_min":50,"x_max":752,"o":"m 604 -565 l 752 -565 l 752 0 l 50 0 l 50 -307 q 50 -387 66 -434 q 82 -481 111 -513 l 111 -513 q 139 -543 183 -560 q 226 -577 285 -577 l 285 -577 q 345 -577 389 -560 q 433 -543 461 -511 l 461 -511 q 493 -476 506 -428 q 519 -381 519 -308 l 519 -308 l 519 -212 l 198 -212 l 198 -112 l 604 -112 l 604 -565 z m 285 -466 l 285 -466 q 237 -466 218 -432 q 198 -398 198 -338 l 198 -338 l 198 -323 l 371 -323 l 371 -337 q 371 -399 350 -432 q 329 -466 285 -466 z"},"ള":{"ha":689,"x_min":32,"x_max":659,"o":"m 362 -466 l 362 -466 q 324 -466 290 -460 q 256 -454 229 -442 q 202 -431 184 -414 q 166 -398 159 -377 l 159 -377 q 156 -371 158 -366 q 159 -361 158 -354 l 158 -354 q 156 -347 155 -334 q 153 -321 153 -304 l 153 -304 q 153 -266 166 -247 q 178 -228 200 -228 l 200 -228 q 220 -228 230 -243 q 239 -259 239 -284 l 239 -284 q 239 -302 235 -314 q 230 -326 221 -332 q 211 -339 197 -339 l 197 -339 q 179 -339 163 -332 q 147 -326 127 -313 l 127 -313 l 64 -338 q 84 -361 111 -381 q 138 -401 170 -414 q 202 -427 234 -427 l 234 -427 q 282 -427 314 -408 q 345 -390 360 -357 q 374 -325 374 -283 l 374 -283 q 374 -242 358 -206 q 342 -171 305 -149 q 268 -128 206 -128 l 206 -128 q 155 -128 116 -150 q 76 -172 54 -214 q 32 -257 32 -318 l 32 -318 q 32 -369 51 -415 q 69 -462 110 -498 q 151 -535 217 -556 q 282 -577 376 -577 l 376 -577 q 464 -577 526 -556 q 587 -536 620 -498 q 652 -460 652 -406 l 652 -406 q 652 -360 629 -329 q 606 -299 563 -281 q 519 -264 456 -259 l 456 -259 l 419 -315 l 419 -337 l 424 -337 q 443 -337 458 -340 q 473 -344 485 -352 l 485 -352 q 493 -358 498 -368 q 502 -379 502 -393 l 502 -393 q 502 -418 487 -434 q 471 -450 440 -458 q 409 -466 362 -466 z m 659 -157 l 659 -157 q 659 -116 644 -86 q 628 -56 603 -37 l 603 -37 q 584 -23 560 -15 q 536 -7 503 -3 q 470 0 423 0 l 423 0 l 289 0 q 251 0 234 2 q 217 4 208 9 l 208 9 q 196 15 191 24 q 186 32 186 43 l 186 43 q 186 54 191 63 q 195 72 203 78 l 203 78 q 214 84 232 87 q 250 90 288 90 l 288 90 l 641 90 l 641 203 l 285 203 q 218 203 176 195 q 133 187 106 171 l 106 171 q 73 152 55 122 q 36 91 36 49 l 36 49 q 36 8 52 -23 q 68 -54 99 -74 l 99 -74 q 119 -88 143 -96 q 167 -104 202 -108 q 236 -112 287 -112 l 287 -112 l 408 -112 q 442 -112 461 -114 q 480 -117 491 -126 l 491 -126 q 501 -133 506 -144 q 511 -155 511 -169 l 511 -169 q 511 -185 505 -197 q 498 -209 486 -216 l 486 -216 q 476 -222 462 -224 q 448 -227 422 -227 l 422 -227 l 419 -227 l 419 -328 l 547 -297 q 602 -277 631 -242 q 659 -207 659 -157 z"},"ഴ":{"ha":649,"x_min":30,"x_max":620,"o":"m 242 -416 l 242 -416 q 242 -489 290 -533 q 337 -577 427 -577 l 427 -577 q 496 -577 539 -550 q 581 -524 601 -483 q 620 -442 620 -398 l 620 -398 q 620 -327 590 -273 q 560 -219 501 -188 q 442 -158 356 -158 l 356 -158 l 318 -158 q 228 -158 164 -187 q 99 -216 65 -271 q 30 -326 30 -402 l 30 -402 q 30 -446 44 -490 q 57 -535 83 -578 l 83 -578 l 209 -525 q 196 -496 188 -467 q 179 -438 179 -406 l 179 -406 q 179 -356 198 -322 q 216 -289 249 -273 q 282 -257 324 -257 l 324 -257 l 350 -257 q 392 -257 419 -275 q 446 -294 460 -327 q 473 -360 473 -402 l 473 -402 q 473 -435 462 -454 q 451 -473 427 -473 l 427 -473 q 415 -473 405 -465 q 395 -458 390 -444 q 384 -431 384 -412 l 384 -412 q 384 -380 396 -348 q 408 -316 423 -283 q 437 -250 449 -213 q 461 -177 461 -136 l 461 -136 q 461 -99 446 -65 q 431 -31 394 -9 q 356 12 289 12 l 289 12 q 250 12 209 5 q 168 -2 129 -18 l 129 -18 l 173 -120 q 200 -109 221 -105 q 241 -101 262 -101 l 262 -101 q 295 -101 307 -119 q 319 -137 319 -154 l 319 -154 q 319 -183 308 -214 q 296 -245 281 -277 q 265 -310 254 -345 q 242 -380 242 -416 z"},"വ":{"ha":907,"x_min":33,"x_max":854,"o":"m 321 -577 l 321 -577 q 400 -577 455 -553 q 509 -530 542 -490 q 575 -450 590 -400 q 604 -351 604 -299 l 604 -299 q 604 -240 591 -194 q 577 -148 553 -108 q 529 -68 496 -28 l 496 -28 l 536 -112 l 705 -112 l 705 -565 l 854 -565 l 854 0 l 441 0 l 378 -70 q 398 -98 416 -130 q 433 -162 443 -201 q 453 -241 453 -289 l 453 -289 q 453 -342 438 -381 q 422 -420 393 -441 q 364 -463 324 -463 l 324 -463 q 282 -463 252 -442 q 221 -422 204 -383 q 187 -344 187 -290 l 187 -290 q 187 -242 197 -202 q 207 -163 226 -127 q 244 -91 270 -55 l 270 -55 l 157 14 q 121 -25 93 -69 q 65 -114 49 -169 q 33 -224 33 -292 l 33 -292 q 33 -343 49 -393 q 64 -444 98 -485 q 131 -527 187 -552 q 242 -577 321 -577 z"},"ശ":{"ha":987,"x_min":34,"x_max":954,"o":"m 626 -577 l 626 -577 q 706 -577 767 -552 q 828 -527 870 -481 q 912 -435 933 -373 q 954 -311 954 -236 l 954 -236 q 954 -150 930 -94 q 905 -39 859 -13 q 812 12 743 12 l 743 12 q 674 12 632 -17 q 589 -46 570 -95 q 551 -144 551 -205 l 551 -205 q 551 -302 595 -355 q 638 -408 720 -408 l 720 -408 q 769 -408 804 -381 q 839 -355 862 -312 q 885 -270 893 -223 l 893 -223 l 835 -218 q 831 -241 821 -260 q 810 -280 794 -292 q 778 -305 756 -305 l 756 -305 q 725 -305 710 -280 q 695 -256 695 -201 l 695 -201 q 695 -167 701 -144 q 707 -121 720 -109 q 732 -98 749 -98 l 749 -98 q 768 -98 782 -110 q 795 -123 802 -153 q 808 -183 808 -234 l 808 -234 q 808 -253 807 -271 q 806 -290 804 -306 l 804 -306 q 804 -311 805 -319 q 805 -327 803 -330 l 803 -330 q 798 -365 777 -395 q 756 -425 720 -444 q 684 -464 633 -464 l 633 -464 q 600 -464 578 -457 q 555 -451 537 -436 l 537 -436 q 511 -413 502 -375 q 492 -337 492 -270 l 492 -270 l 492 -232 q 492 -168 479 -121 q 465 -75 434 -43 l 434 -43 q 406 -16 367 -2 q 328 12 273 12 l 273 12 q 196 12 143 -22 q 89 -56 62 -117 q 34 -178 34 -260 l 34 -260 q 34 -326 48 -381 q 62 -437 87 -485 q 112 -533 145 -578 l 145 -578 l 262 -511 q 237 -471 220 -432 q 203 -393 194 -352 q 184 -311 184 -264 l 184 -264 q 184 -204 197 -168 q 209 -133 229 -117 q 249 -101 272 -101 l 272 -101 q 289 -101 302 -107 q 315 -113 323 -125 l 323 -125 q 333 -140 337 -161 q 341 -182 341 -221 l 341 -221 l 341 -291 q 341 -379 365 -435 q 388 -491 432 -523 l 432 -523 q 468 -551 514 -564 q 560 -577 626 -577 z"},"ഷ":{"ha":1112,"x_min":27,"x_max":1059,"o":"m 235 -367 l 235 -367 q 309 -367 354 -339 q 398 -311 419 -268 q 439 -226 439 -180 l 439 -180 q 439 -150 430 -122 q 420 -94 410 -73 l 410 -73 l 402 -112 l 641 -112 l 673 0 l 318 0 l 269 -65 q 279 -82 288 -108 q 296 -135 296 -170 l 296 -170 q 296 -206 283 -230 q 269 -255 237 -255 l 237 -255 q 216 -255 202 -244 q 188 -234 182 -214 q 175 -195 175 -172 l 175 -172 q 175 -128 188 -98 q 201 -69 216 -41 l 216 -41 l 96 12 q 65 -29 46 -74 q 27 -119 27 -177 l 27 -177 q 27 -235 53 -277 q 79 -319 126 -343 q 172 -367 235 -367 z m 1059 0 l 622 0 l 622 -405 q 622 -425 620 -437 q 618 -449 613 -457 l 613 -457 q 610 -462 605 -465 q 599 -468 591 -468 l 591 -468 q 574 -468 563 -453 q 552 -439 552 -411 l 552 -411 q 552 -389 559 -371 q 565 -353 584 -343 q 603 -333 642 -333 l 642 -333 l 683 -333 q 728 -333 764 -354 q 800 -375 828 -409 q 855 -444 876 -485 q 897 -526 914 -565 l 914 -565 l 1059 -565 l 1059 0 z m 595 -577 l 595 -577 q 635 -577 665 -567 q 695 -558 715 -540 l 715 -540 q 741 -517 754 -481 q 766 -446 766 -389 l 766 -389 l 766 -112 l 913 -112 l 913 -285 q 913 -307 914 -325 q 915 -343 917 -359 q 918 -376 919 -390 l 919 -390 l 922 -377 q 899 -329 862 -295 q 825 -261 782 -244 q 739 -227 694 -227 l 694 -227 l 637 -227 q 558 -227 510 -252 q 461 -278 439 -319 q 416 -361 416 -411 l 416 -411 q 416 -455 437 -493 q 457 -531 497 -554 q 537 -577 595 -577 z"},"സ":{"ha":1138,"x_min":34,"x_max":1104,"o":"m 580 -577 l 580 -577 q 630 -577 668 -562 q 706 -548 733 -522 l 733 -522 q 754 -502 768 -475 q 781 -448 787 -413 q 793 -378 793 -330 l 793 -330 l 793 -231 q 793 -184 798 -161 q 802 -138 812 -125 l 812 -125 q 821 -113 834 -107 q 847 -101 865 -101 l 865 -101 q 889 -101 909 -117 q 929 -133 942 -168 q 954 -204 954 -264 l 954 -264 q 954 -311 945 -352 q 936 -393 919 -432 q 901 -471 876 -511 l 876 -511 l 993 -578 q 1027 -533 1052 -485 q 1076 -437 1090 -381 q 1104 -326 1104 -260 l 1104 -260 q 1104 -178 1076 -117 q 1048 -56 994 -22 q 940 12 863 12 l 863 12 q 809 12 770 -1 q 730 -15 702 -43 l 702 -43 q 682 -63 669 -91 q 656 -119 650 -155 q 644 -192 644 -236 l 644 -236 l 644 -332 q 644 -378 640 -401 q 636 -425 624 -440 l 624 -440 q 616 -452 603 -458 q 589 -464 571 -464 l 571 -464 q 555 -464 542 -459 q 529 -454 521 -444 l 521 -444 q 508 -430 503 -406 q 497 -382 497 -339 l 497 -339 l 497 0 l 349 0 l 349 -332 q 349 -382 345 -407 q 341 -433 326 -447 l 326 -447 q 318 -456 306 -460 q 293 -465 282 -465 l 282 -465 q 256 -465 234 -448 q 212 -431 198 -394 q 184 -358 184 -300 l 184 -300 q 184 -257 193 -216 q 202 -176 219 -136 q 236 -97 262 -56 l 262 -56 l 145 12 q 110 -35 85 -83 q 60 -132 47 -186 q 34 -241 34 -305 l 34 -305 q 34 -386 62 -447 q 89 -508 141 -542 q 192 -577 265 -577 l 265 -577 q 318 -577 358 -560 q 397 -544 434 -503 l 434 -503 l 413 -499 q 445 -536 483 -556 q 520 -577 580 -577 z"},"ഹ":{"ha":1121,"x_min":27,"x_max":1087,"o":"m 235 -367 l 235 -367 q 309 -367 354 -339 q 398 -311 419 -268 q 439 -226 439 -180 l 439 -180 q 439 -150 430 -122 q 420 -94 410 -73 l 410 -73 l 402 -112 l 621 -112 l 674 0 l 318 0 l 269 -65 q 279 -82 288 -108 q 296 -135 296 -170 l 296 -170 q 296 -206 283 -230 q 269 -255 237 -255 l 237 -255 q 216 -255 202 -244 q 188 -234 182 -214 q 175 -195 175 -172 l 175 -172 q 175 -128 188 -98 q 201 -69 216 -41 l 216 -41 l 96 12 q 65 -29 46 -74 q 27 -119 27 -177 l 27 -177 q 27 -235 53 -277 q 79 -319 126 -343 q 172 -367 235 -367 z m 802 -577 l 802 -577 q 881 -577 936 -553 q 991 -529 1024 -488 q 1057 -447 1072 -396 q 1087 -345 1087 -290 l 1087 -290 q 1087 -223 1071 -169 q 1055 -115 1027 -70 q 998 -25 962 14 l 962 14 l 849 -55 q 874 -88 893 -123 q 912 -159 923 -199 q 934 -240 934 -289 l 934 -289 q 934 -342 919 -381 q 903 -420 874 -442 q 845 -464 804 -464 l 804 -464 q 763 -464 732 -443 q 701 -422 684 -383 q 667 -344 667 -290 l 667 -290 q 667 -244 677 -206 q 686 -168 703 -135 q 720 -102 742 -70 l 742 -70 l 680 0 l 641 0 l 615 -40 q 588 -75 566 -112 q 543 -150 529 -194 q 515 -239 515 -298 l 515 -298 q 515 -347 530 -396 q 545 -446 579 -486 q 612 -527 667 -552 q 722 -577 802 -577 z"},"ഺ":{"ha":654,"x_min":16,"x_max":635,"o":"m 180 -112 l 635 -112 l 635 0 l 428 0 l 428 202 l 280 202 l 280 0 l 90 0 l 16 -93 l 196 -572 l 338 -526 l 180 -112 z"},"഻":{"ha":0,"x_min":-329,"x_max":-229,"o":"m -329 -599 l -329 -864 l -229 -864 l -229 -599 l -329 -599 z"},"഼":{"ha":0,"x_min":-263,"x_max":15,"o":"m -263 -729 l -263 -729 q -263 -788 -226 -826 q -190 -864 -125 -864 l -125 -864 q -59 -864 -22 -826 q 15 -788 15 -729 l 15 -729 q 15 -669 -21 -630 q -58 -592 -124 -592 l -124 -592 q -191 -592 -227 -630 q -263 -668 -263 -729 z m -164 -729 l -164 -729 q -164 -705 -154 -691 q -144 -678 -125 -678 l -125 -678 q -104 -678 -94 -691 q -84 -705 -84 -729 l -84 -729 q -84 -752 -94 -765 q -105 -779 -125 -779 l -125 -779 q -144 -779 -154 -766 q -164 -753 -164 -729 z"},"ഽ":{"ha":464,"x_min":-67,"x_max":531,"o":"m 351 -802 l 351 -802 q 405 -802 441 -780 q 477 -759 498 -723 q 519 -688 531 -646 l 531 -646 l 396 -618 q 391 -643 385 -659 q 379 -675 371 -683 q 362 -691 350 -691 l 350 -691 q 340 -691 333 -686 q 325 -682 319 -674 l 319 -674 q 313 -664 310 -644 q 307 -625 307 -588 l 307 -588 l 307 -15 q 307 64 295 115 q 283 166 244 200 l 244 200 q 222 219 190 232 q 158 244 113 244 l 113 244 q 59 244 23 223 q -13 201 -34 165 q -55 129 -67 88 l -67 88 l 68 60 q 73 85 79 101 q 85 117 94 125 q 102 132 114 132 l 114 132 q 125 132 133 128 q 140 123 144 115 l 144 115 q 152 103 155 83 q 157 62 157 28 l 157 28 l 157 -544 q 157 -620 169 -672 q 181 -725 220 -758 l 220 -758 q 243 -779 275 -790 q 306 -802 351 -802 z"},"ാ":{"ha":503,"x_min":16,"x_max":467,"o":"m 467 -285 l 467 -285 q 467 -217 456 -162 q 445 -107 419 -68 q 392 -30 348 -9 q 304 12 238 12 l 238 12 q 178 12 138 -5 q 98 -22 74 -50 q 49 -78 36 -113 q 23 -149 16 -185 l 16 -185 l 166 -211 q 172 -181 180 -155 q 188 -130 203 -114 q 217 -99 241 -99 l 241 -99 q 268 -99 284 -120 q 300 -141 308 -182 q 315 -224 315 -286 l 315 -286 q 315 -345 308 -385 q 300 -425 284 -445 q 268 -466 242 -466 l 242 -466 q 221 -466 207 -451 q 192 -437 183 -412 q 174 -388 168 -355 l 168 -355 l 18 -382 q 28 -419 44 -454 q 59 -489 85 -517 q 111 -545 151 -561 q 190 -577 247 -577 l 247 -577 q 311 -577 354 -555 q 396 -533 421 -493 q 446 -454 457 -401 q 467 -348 467 -285 z"},"ി":{"ha":256,"x_min":-219,"x_max":203,"o":"m -14 -852 l -14 -852 q 30 -852 66 -841 q 101 -830 126 -809 l 126 -809 q 156 -786 172 -754 q 188 -723 196 -679 q 203 -635 203 -572 l 203 -572 l 203 0 l 54 0 l 54 -547 q 54 -591 52 -625 q 50 -660 44 -684 q 38 -708 27 -721 l 27 -721 q 19 -730 9 -735 q -2 -740 -17 -740 l -17 -740 q -33 -740 -45 -732 q -58 -725 -64 -711 q -71 -698 -71 -680 l -71 -680 q -71 -668 -69 -657 q -68 -646 -65 -638 l -65 -638 l -211 -621 q -215 -633 -217 -649 q -219 -665 -219 -682 l -219 -682 q -219 -738 -193 -776 q -167 -814 -121 -833 q -75 -852 -14 -852 z"},"ീ":{"ha":256,"x_min":-261,"x_max":203,"o":"m -74 -852 l -74 -852 q -16 -852 29 -838 q 73 -825 111 -796 l 111 -796 q 164 -755 184 -692 q 203 -630 203 -529 l 203 -529 l 203 0 l 54 0 l 54 -515 q 54 -585 49 -630 q 43 -675 31 -702 q 18 -730 -4 -746 l -4 -746 q -23 -755 -45 -759 q -67 -763 -93 -763 l -93 -763 q -108 -763 -122 -758 q -136 -754 -144 -742 q -152 -731 -152 -713 l -152 -713 q -152 -694 -143 -684 q -134 -674 -118 -674 l -118 -674 q -98 -674 -90 -686 q -83 -698 -83 -718 l -83 -718 q -83 -742 -96 -761 q -109 -781 -127 -795 l -127 -795 l -8 -780 q 2 -770 9 -750 q 16 -730 16 -706 l 16 -706 q 16 -672 2 -643 q -13 -615 -42 -598 q -72 -581 -120 -581 l -120 -581 q -164 -581 -196 -596 q -228 -611 -244 -639 q -261 -668 -261 -711 l -261 -711 q -261 -751 -241 -782 q -222 -814 -181 -833 q -140 -852 -74 -852 z"},"ു":{"ha":343,"x_min":-25,"x_max":350,"o":"m 163 238 l 163 238 q 72 238 24 187 q -25 135 -25 53 l -25 53 q -25 -3 -3 -44 q 18 -86 60 -109 q 101 -132 162 -132 l 162 -132 q 222 -132 264 -109 q 306 -87 328 -45 q 350 -3 350 54 l 350 54 q 350 110 328 152 q 305 193 263 216 q 221 238 163 238 z m 163 134 l 163 134 q 188 134 204 115 q 219 95 219 53 l 219 53 q 219 12 205 -7 q 190 -27 163 -27 l 163 -27 q 137 -27 122 -7 q 106 12 106 54 l 106 54 q 106 94 122 114 q 137 134 163 134 z m 133 -577 l 133 -577 q 192 -577 228 -553 q 263 -529 279 -490 q 294 -451 294 -406 l 294 -406 q 294 -330 279 -259 q 263 -188 238 -101 l 238 -101 l 100 -116 q 120 -190 132 -257 q 144 -324 144 -384 l 144 -384 q 144 -419 133 -441 q 121 -464 89 -464 l 89 -464 q 78 -464 67 -462 q 55 -461 44 -458 l 44 -458 l 21 -564 q 43 -569 70 -573 q 97 -577 133 -577 z"},"ൂ":{"ha":343,"x_min":-25,"x_max":350,"o":"m 164 238 l 164 238 q 72 238 24 187 q -25 135 -25 53 l -25 53 q -25 -3 -3 -44 q 18 -86 60 -109 q 102 -132 162 -132 l 162 -132 q 222 -132 264 -109 q 306 -87 328 -45 q 350 -4 350 54 l 350 54 q 350 110 328 152 q 305 193 264 216 q 222 238 164 238 z m 163 -39 l 163 -39 q 130 -39 106 -17 q 82 4 82 54 l 82 54 q 82 103 105 124 q 128 145 163 145 l 163 145 q 197 145 221 125 q 244 104 244 54 l 244 54 q 244 5 222 -17 q 199 -39 163 -39 z m 164 100 l 164 100 q 114 100 89 70 q 64 39 64 -15 l 64 -15 q 64 -34 74 -55 q 84 -77 101 -101 l 101 -101 l 148 -76 q 134 -66 123 -54 q 112 -42 112 -27 l 112 -27 q 112 -11 119 -1 q 126 8 138 13 q 149 18 164 18 l 164 18 q 181 18 193 12 q 205 6 211 -4 q 216 -14 216 -25 l 216 -25 q 216 -38 208 -50 q 199 -63 182 -72 l 182 -72 l 228 -101 q 248 -77 256 -57 q 264 -37 264 -15 l 264 -15 q 264 16 254 42 q 244 68 222 84 q 200 100 164 100 z m 133 -577 l 133 -577 q 192 -577 228 -553 q 263 -529 279 -490 q 294 -451 294 -406 l 294 -406 q 294 -330 279 -259 q 263 -188 238 -101 l 238 -101 l 100 -116 q 120 -190 132 -257 q 144 -324 144 -384 l 144 -384 q 144 -419 133 -441 q 121 -464 89 -464 l 89 -464 q 78 -464 67 -462 q 55 -461 44 -458 l 44 -458 l 21 -564 q 43 -569 70 -573 q 97 -577 133 -577 z"},"ൃ":{"ha":274,"x_min":-139,"x_max":273,"o":"m 54 335 l 54 335 q -6 335 -49 317 q -93 299 -116 263 q -139 227 -139 173 l -139 173 q -139 107 -94 65 q -50 23 36 23 l 36 23 q 76 23 113 37 q 150 50 188 81 l 188 81 l 150 169 q 126 149 103 139 q 79 128 51 128 l 51 128 q 27 128 14 141 q 0 153 0 176 l 0 176 q 0 199 14 212 q 28 224 52 224 l 52 224 q 78 224 95 214 q 111 203 120 181 q 128 158 128 123 l 128 123 q 128 101 124 75 q 120 49 110 13 q 100 -23 82 -75 l 82 -75 q 62 -132 49 -189 q 36 -247 36 -308 l 36 -308 q 36 -382 55 -446 q 73 -510 101 -565 l 101 -565 l 254 -565 q 230 -516 215 -475 q 199 -434 192 -396 q 184 -358 184 -317 l 184 -317 q 184 -268 194 -222 q 204 -177 223 -120 l 223 -120 q 240 -67 251 -25 q 262 16 268 51 q 273 86 273 120 l 273 120 q 273 197 244 244 q 214 291 165 313 q 115 335 54 335 z"},"ൄ":{"ha":274,"x_min":-262,"x_max":272,"o":"m -20 335 l -20 335 q -98 335 -152 314 q -206 292 -234 252 q -262 211 -262 154 l -262 154 q -262 96 -228 60 q -195 24 -140 24 l -140 24 q -108 24 -88 38 q -69 51 -54 73 l -54 73 l -71 69 q -57 48 -37 36 q -17 24 8 24 l 8 24 q 39 24 58 36 q 77 47 87 65 q 97 82 100 102 q 103 122 103 141 l 103 141 l 103 175 l 22 175 l 22 157 q 22 139 17 129 q 12 119 -1 119 l -1 119 q -14 119 -19 129 q -24 139 -24 156 l -24 156 l -24 175 l -104 175 l -104 156 q -104 138 -109 129 q -115 119 -126 119 l -126 119 q -138 119 -144 128 q -151 137 -151 153 l -151 153 q -151 188 -118 207 q -86 225 -21 225 l -21 225 q 47 225 85 201 q 123 176 123 117 l 123 117 q 123 94 120 69 q 116 44 107 10 q 98 -25 82 -74 l 82 -74 q 64 -131 50 -187 q 36 -244 36 -308 l 36 -308 q 36 -382 55 -446 q 73 -510 101 -565 l 101 -565 l 254 -565 q 230 -516 215 -475 q 199 -434 192 -396 q 184 -358 184 -317 l 184 -317 q 184 -268 194 -222 q 204 -177 222 -120 l 222 -120 q 240 -66 251 -26 q 262 14 267 48 q 272 82 272 118 l 272 118 q 272 182 241 231 q 210 279 146 307 q 81 335 -20 335 z"},"െ":{"ha":689,"x_min":34,"x_max":655,"o":"m 234 12 l 234 12 q 179 12 134 -13 q 88 -38 61 -93 q 34 -148 34 -239 l 34 -239 q 34 -313 56 -375 q 78 -437 120 -482 q 162 -528 223 -552 q 284 -577 362 -577 l 362 -577 q 441 -577 497 -553 q 553 -529 588 -488 q 622 -448 639 -396 q 655 -344 655 -288 l 655 -288 q 655 -223 638 -168 q 621 -114 593 -69 q 565 -25 529 14 l 529 14 l 418 -55 q 443 -88 462 -123 q 481 -158 492 -197 q 502 -237 502 -286 l 502 -286 q 502 -340 486 -380 q 470 -420 437 -442 q 403 -464 351 -464 l 351 -464 q 296 -464 255 -435 q 213 -406 191 -354 q 168 -303 168 -236 l 168 -236 q 168 -178 176 -147 q 184 -117 198 -106 q 212 -96 227 -96 l 227 -96 q 242 -96 252 -103 q 261 -111 266 -127 q 271 -143 271 -169 l 271 -169 q 271 -210 259 -228 q 247 -246 222 -246 l 222 -246 q 196 -246 172 -228 q 148 -210 118 -169 l 118 -169 l 98 -274 q 126 -303 167 -327 q 208 -351 261 -351 l 261 -351 q 312 -351 346 -329 q 380 -308 397 -269 q 414 -230 414 -178 l 414 -178 q 414 -118 393 -76 q 372 -34 332 -11 q 292 12 234 12 z"},"േ":{"ha":580,"x_min":33,"x_max":550,"o":"m 340 12 l 340 12 q 273 12 217 -5 q 161 -22 120 -58 q 78 -94 56 -150 q 33 -207 33 -286 l 33 -286 q 33 -360 57 -415 q 80 -470 123 -506 q 165 -542 223 -559 q 281 -577 349 -577 l 349 -577 q 424 -577 468 -556 q 512 -535 531 -501 q 550 -467 550 -426 l 550 -426 q 550 -381 531 -350 q 511 -320 478 -304 q 444 -289 399 -289 l 399 -289 q 342 -289 309 -307 q 276 -326 263 -356 q 249 -386 249 -421 l 249 -421 q 249 -443 256 -464 q 262 -486 269 -498 l 269 -498 l 388 -509 q 373 -494 365 -473 q 356 -453 356 -430 l 356 -430 q 356 -407 365 -395 q 373 -383 391 -383 l 391 -383 q 410 -383 418 -394 q 426 -405 426 -423 l 426 -423 q 426 -446 412 -461 q 397 -476 368 -476 l 368 -476 q 355 -476 340 -475 q 325 -475 315 -475 l 315 -475 q 273 -473 242 -449 q 211 -425 195 -383 q 178 -342 178 -285 l 178 -285 q 178 -229 192 -186 q 205 -144 234 -119 q 263 -95 308 -90 l 308 -90 q 318 -90 333 -89 q 348 -89 360 -89 l 360 -89 q 382 -89 395 -96 q 408 -103 414 -114 q 420 -126 420 -142 l 420 -142 q 420 -161 413 -172 q 405 -183 388 -183 l 388 -183 q 369 -183 360 -170 q 350 -158 350 -135 l 350 -135 q 350 -111 358 -91 q 366 -72 383 -56 l 383 -56 l 259 -73 q 253 -85 248 -104 q 243 -124 243 -144 l 243 -144 q 243 -177 257 -207 q 270 -238 303 -257 q 336 -277 393 -277 l 393 -277 q 438 -277 472 -261 q 506 -245 525 -214 q 544 -184 544 -139 l 544 -139 q 544 -98 524 -63 q 504 -29 459 -8 q 414 12 340 12 z"},"ൈ":{"ha":1377,"x_min":34,"x_max":1343,"o":"m 234 12 l 234 12 q 179 12 134 -13 q 88 -38 61 -93 q 34 -148 34 -239 l 34 -239 q 34 -313 56 -375 q 78 -437 120 -482 q 162 -528 223 -552 q 284 -577 362 -577 l 362 -577 q 441 -577 497 -553 q 553 -529 588 -488 q 622 -448 639 -396 q 655 -344 655 -288 l 655 -288 q 655 -223 638 -168 q 621 -114 593 -69 q 565 -25 529 14 l 529 14 l 418 -55 q 443 -88 462 -123 q 481 -158 492 -197 q 502 -237 502 -286 l 502 -286 q 502 -340 486 -380 q 470 -420 437 -442 q 403 -464 351 -464 l 351 -464 q 296 -464 255 -435 q 213 -406 191 -354 q 168 -303 168 -236 l 168 -236 q 168 -178 176 -147 q 184 -117 198 -106 q 212 -96 227 -96 l 227 -96 q 242 -96 252 -103 q 261 -111 266 -127 q 271 -143 271 -169 l 271 -169 q 271 -210 259 -228 q 247 -246 222 -246 l 222 -246 q 196 -246 172 -228 q 148 -210 118 -169 l 118 -169 l 98 -274 q 126 -303 167 -327 q 208 -351 261 -351 l 261 -351 q 312 -351 346 -329 q 380 -308 397 -269 q 414 -230 414 -178 l 414 -178 q 414 -118 393 -76 q 372 -34 332 -11 q 292 12 234 12 z m 922 12 l 922 12 q 867 12 822 -13 q 776 -38 749 -93 q 722 -148 722 -239 l 722 -239 q 722 -313 744 -375 q 766 -437 808 -482 q 850 -528 911 -552 q 972 -577 1050 -577 l 1050 -577 q 1129 -577 1185 -553 q 1241 -529 1276 -488 q 1310 -448 1327 -396 q 1343 -344 1343 -288 l 1343 -288 q 1343 -223 1326 -168 q 1309 -114 1281 -69 q 1253 -25 1217 14 l 1217 14 l 1106 -55 q 1131 -88 1150 -123 q 1169 -158 1180 -197 q 1190 -237 1190 -286 l 1190 -286 q 1190 -340 1174 -380 q 1158 -420 1125 -442 q 1091 -464 1039 -464 l 1039 -464 q 984 -464 943 -435 q 901 -406 879 -354 q 856 -303 856 -236 l 856 -236 q 856 -178 864 -147 q 872 -117 886 -106 q 900 -96 915 -96 l 915 -96 q 930 -96 940 -103 q 949 -111 954 -127 q 959 -143 959 -169 l 959 -169 q 959 -210 947 -228 q 935 -246 910 -246 l 910 -246 q 884 -246 860 -228 q 836 -210 806 -169 l 806 -169 l 786 -274 q 814 -303 855 -327 q 896 -351 949 -351 l 949 -351 q 1000 -351 1034 -329 q 1068 -308 1085 -269 q 1102 -230 1102 -178 l 1102 -178 q 1102 -118 1081 -76 q 1060 -34 1020 -11 q 980 12 922 12 z"},"ൊ":{"ha":1381,"x_min":34,"x_max":1345,"o":"m 234 12 l 234 12 q 179 12 134 -13 q 88 -38 61 -93 q 34 -148 34 -239 l 34 -239 q 34 -313 56 -375 q 78 -437 120 -482 q 162 -528 223 -552 q 284 -577 362 -577 l 362 -577 q 441 -577 497 -553 q 553 -529 588 -488 q 622 -448 639 -396 q 655 -344 655 -288 l 655 -288 q 655 -223 638 -168 q 621 -114 593 -69 q 565 -25 529 14 l 529 14 l 418 -55 q 443 -88 462 -123 q 481 -158 492 -197 q 502 -237 502 -286 l 502 -286 q 502 -340 486 -380 q 470 -420 437 -442 q 403 -464 351 -464 l 351 -464 q 296 -464 255 -435 q 213 -406 191 -354 q 168 -303 168 -236 l 168 -236 q 168 -178 176 -147 q 184 -117 198 -106 q 212 -96 227 -96 l 227 -96 q 242 -96 252 -103 q 261 -111 266 -127 q 271 -143 271 -169 l 271 -169 q 271 -210 259 -228 q 247 -246 222 -246 l 222 -246 q 196 -246 172 -228 q 148 -210 118 -169 l 118 -169 l 98 -274 q 126 -303 167 -327 q 208 -351 261 -351 l 261 -351 q 312 -351 346 -329 q 380 -308 397 -269 q 414 -230 414 -178 l 414 -178 q 414 -118 393 -76 q 372 -34 332 -11 q 292 12 234 12 z m 794 -208 l 794 -208 q 755 -208 731 -230 q 707 -253 707 -295 l 707 -295 q 707 -340 730 -362 q 753 -384 794 -384 l 794 -384 q 833 -384 856 -362 q 879 -340 879 -295 l 879 -295 q 879 -252 856 -230 q 832 -208 794 -208 z m 1345 -285 l 1345 -285 q 1345 -217 1334 -162 q 1323 -107 1297 -68 q 1270 -30 1226 -9 q 1182 12 1116 12 l 1116 12 q 1056 12 1016 -5 q 976 -22 952 -50 q 927 -78 914 -113 q 901 -149 894 -185 l 894 -185 l 1044 -211 q 1050 -181 1058 -155 q 1066 -130 1081 -114 q 1095 -99 1119 -99 l 1119 -99 q 1146 -99 1162 -120 q 1178 -141 1186 -182 q 1193 -224 1193 -286 l 1193 -286 q 1193 -345 1186 -385 q 1178 -425 1162 -445 q 1146 -466 1120 -466 l 1120 -466 q 1099 -466 1085 -451 q 1070 -437 1061 -412 q 1052 -388 1046 -355 l 1046 -355 l 896 -382 q 906 -419 922 -454 q 937 -489 963 -517 q 989 -545 1029 -561 q 1068 -577 1125 -577 l 1125 -577 q 1189 -577 1232 -555 q 1274 -533 1299 -493 q 1324 -454 1335 -401 q 1345 -348 1345 -285 z"},"ോ":{"ha":1249,"x_min":33,"x_max":1213,"o":"m 340 12 l 340 12 q 273 12 217 -5 q 161 -22 120 -58 q 78 -94 56 -150 q 33 -207 33 -286 l 33 -286 q 33 -360 57 -415 q 80 -470 123 -506 q 165 -542 223 -559 q 281 -577 349 -577 l 349 -577 q 424 -577 468 -556 q 512 -535 531 -501 q 550 -467 550 -426 l 550 -426 q 550 -381 531 -350 q 511 -320 478 -304 q 444 -289 399 -289 l 399 -289 q 342 -289 309 -307 q 276 -326 263 -356 q 249 -386 249 -421 l 249 -421 q 249 -443 256 -464 q 262 -486 269 -498 l 269 -498 l 388 -509 q 373 -494 365 -473 q 356 -453 356 -430 l 356 -430 q 356 -407 365 -395 q 373 -383 391 -383 l 391 -383 q 410 -383 418 -394 q 426 -405 426 -423 l 426 -423 q 426 -446 412 -461 q 397 -476 368 -476 l 368 -476 q 355 -476 340 -475 q 325 -475 315 -475 l 315 -475 q 273 -473 242 -449 q 211 -425 195 -383 q 178 -342 178 -285 l 178 -285 q 178 -229 192 -186 q 205 -144 234 -119 q 263 -95 308 -90 l 308 -90 q 318 -90 333 -89 q 348 -89 360 -89 l 360 -89 q 382 -89 395 -96 q 408 -103 414 -114 q 420 -126 420 -142 l 420 -142 q 420 -161 413 -172 q 405 -183 388 -183 l 388 -183 q 369 -183 360 -170 q 350 -158 350 -135 l 350 -135 q 350 -111 358 -91 q 366 -72 383 -56 l 383 -56 l 259 -73 q 253 -85 248 -104 q 243 -124 243 -144 l 243 -144 q 243 -177 257 -207 q 270 -238 303 -257 q 336 -277 393 -277 l 393 -277 q 438 -277 472 -261 q 506 -245 525 -214 q 544 -184 544 -139 l 544 -139 q 544 -98 524 -63 q 504 -29 459 -8 q 414 12 340 12 z m 661 -208 l 661 -208 q 622 -208 598 -230 q 574 -253 574 -295 l 574 -295 q 574 -340 597 -362 q 620 -384 661 -384 l 661 -384 q 700 -384 723 -362 q 746 -340 746 -295 l 746 -295 q 746 -252 723 -230 q 699 -208 661 -208 z m 1213 -285 l 1213 -285 q 1213 -217 1202 -162 q 1191 -107 1165 -68 q 1138 -30 1094 -9 q 1050 12 984 12 l 984 12 q 924 12 884 -5 q 844 -22 820 -50 q 795 -78 782 -113 q 769 -149 762 -185 l 762 -185 l 912 -211 q 918 -181 926 -155 q 934 -130 949 -114 q 963 -99 987 -99 l 987 -99 q 1014 -99 1030 -120 q 1046 -141 1054 -182 q 1061 -224 1061 -286 l 1061 -286 q 1061 -345 1054 -385 q 1046 -425 1030 -445 q 1014 -466 988 -466 l 988 -466 q 967 -466 953 -451 q 938 -437 929 -412 q 920 -388 914 -355 l 914 -355 l 764 -382 q 774 -419 790 -454 q 805 -489 831 -517 q 857 -545 897 -561 q 936 -577 993 -577 l 993 -577 q 1057 -577 1100 -555 q 1142 -533 1167 -493 q 1192 -454 1203 -401 q 1213 -348 1213 -285 z"},"ൌ":{"ha":1614,"x_min":34,"x_max":1581,"o":"m 234 12 l 234 12 q 179 12 134 -13 q 88 -38 61 -93 q 34 -148 34 -239 l 34 -239 q 34 -313 56 -375 q 78 -437 120 -482 q 162 -528 223 -552 q 284 -577 362 -577 l 362 -577 q 441 -577 497 -553 q 553 -529 588 -488 q 622 -448 639 -396 q 655 -344 655 -288 l 655 -288 q 655 -223 638 -168 q 621 -114 593 -69 q 565 -25 529 14 l 529 14 l 418 -55 q 443 -88 462 -123 q 481 -158 492 -197 q 502 -237 502 -286 l 502 -286 q 502 -340 486 -380 q 470 -420 437 -442 q 403 -464 351 -464 l 351 -464 q 296 -464 255 -435 q 213 -406 191 -354 q 168 -303 168 -236 l 168 -236 q 168 -178 176 -147 q 184 -117 198 -106 q 212 -96 227 -96 l 227 -96 q 242 -96 252 -103 q 261 -111 266 -127 q 271 -143 271 -169 l 271 -169 q 271 -210 259 -228 q 247 -246 222 -246 l 222 -246 q 196 -246 172 -228 q 148 -210 118 -169 l 118 -169 l 98 -274 q 126 -303 167 -327 q 208 -351 261 -351 l 261 -351 q 312 -351 346 -329 q 380 -308 397 -269 q 414 -230 414 -178 l 414 -178 q 414 -118 393 -76 q 372 -34 332 -11 q 292 12 234 12 z m 794 -208 l 794 -208 q 755 -208 731 -230 q 707 -253 707 -295 l 707 -295 q 707 -340 730 -362 q 753 -384 794 -384 l 794 -384 q 833 -384 856 -362 q 879 -340 879 -295 l 879 -295 q 879 -252 856 -230 q 832 -208 794 -208 z m 1377 -577 l 1377 -577 q 1441 -577 1487 -545 q 1532 -513 1556 -453 q 1580 -394 1580 -311 l 1580 -311 q 1580 -206 1550 -134 q 1519 -62 1457 -25 q 1395 12 1299 12 l 1299 12 q 1234 12 1185 1 q 1135 -10 1087 -34 l 1087 -34 l 1143 -138 q 1177 -121 1212 -111 q 1246 -102 1284 -102 l 1284 -102 q 1338 -102 1370 -125 q 1402 -149 1416 -195 q 1430 -241 1430 -309 l 1430 -309 q 1430 -392 1411 -429 q 1392 -466 1364 -466 l 1364 -466 q 1353 -466 1346 -461 q 1338 -457 1333 -449 l 1333 -449 q 1326 -439 1324 -423 q 1321 -408 1321 -374 l 1321 -374 l 1321 -267 l 1174 -267 l 1174 -354 q 1174 -393 1172 -413 q 1170 -434 1163 -445 l 1163 -445 q 1157 -456 1148 -461 q 1138 -466 1127 -466 l 1127 -466 q 1102 -466 1088 -443 q 1073 -420 1073 -385 l 1073 -385 q 1073 -356 1077 -332 q 1081 -308 1086 -288 l 1086 -288 l 944 -258 q 935 -287 930 -321 q 924 -356 924 -388 l 924 -388 q 924 -437 944 -480 q 963 -523 1005 -550 q 1046 -577 1112 -577 l 1112 -577 q 1163 -577 1197 -561 q 1230 -545 1256 -514 l 1256 -514 l 1235 -514 q 1262 -548 1296 -562 q 1329 -577 1377 -577 z"},"്":{"ha":0,"x_min":-296,"x_max":76,"o":"m -111 -597 l -111 -597 q -177 -597 -217 -618 q -258 -639 -277 -676 q -296 -713 -296 -761 l -296 -761 q -296 -785 -291 -803 q -287 -822 -282 -835 l -282 -835 l -154 -814 q -157 -804 -159 -791 q -161 -779 -161 -768 l -161 -768 q -161 -744 -155 -729 q -149 -715 -137 -708 q -125 -702 -108 -702 l -108 -702 q -91 -702 -79 -708 q -67 -715 -60 -729 q -54 -743 -54 -767 l -54 -767 q -54 -779 -55 -791 q -57 -804 -59 -814 l -59 -814 l 64 -835 q 68 -823 72 -804 q 76 -785 76 -762 l 76 -762 q 76 -714 58 -676 q 39 -639 -1 -618 q -42 -597 -111 -597 z"},"ൎ":{"ha":0,"x_min":-353,"x_max":-193,"o":"m -353 -836 l -193 -836 l -202 -638 l -345 -638 l -353 -836 z"},"൏":{"ha":1185,"x_min":40,"x_max":1148,"o":"m 564 -577 l 564 -577 q 639 -577 691 -553 q 742 -530 785 -477 l 785 -477 l 743 -496 q 778 -541 821 -559 q 864 -577 916 -577 l 916 -577 q 990 -577 1042 -537 q 1094 -498 1121 -423 q 1148 -348 1148 -243 l 1148 -243 q 1148 -85 1091 25 q 1034 135 912 192 q 789 248 594 248 l 594 248 q 466 248 372 223 q 278 198 214 152 q 150 106 112 45 q 74 -16 57 -88 q 40 -160 40 -238 l 40 -238 q 40 -314 59 -396 q 78 -478 112 -557 l 112 -557 l 236 -511 q 208 -445 193 -374 q 178 -304 178 -237 l 178 -237 q 178 -175 190 -120 q 201 -65 228 -19 q 255 26 303 60 q 350 93 422 111 q 494 129 594 129 l 594 129 q 720 129 799 101 q 878 73 921 24 q 964 -26 981 -95 q 997 -164 997 -246 l 997 -246 q 997 -323 984 -371 q 971 -420 950 -442 q 928 -465 901 -465 l 901 -465 q 886 -465 876 -460 q 865 -455 857 -449 l 857 -449 q 844 -435 839 -411 q 834 -387 834 -342 l 834 -342 l 834 0 l 685 0 l 685 -288 q 685 -356 677 -388 q 668 -420 649 -437 l 649 -437 q 635 -450 615 -457 q 595 -464 562 -464 l 562 -464 q 514 -464 473 -440 q 432 -417 407 -367 q 382 -318 382 -241 l 382 -241 l 382 -234 q 382 -177 391 -147 q 399 -117 413 -106 q 426 -96 442 -96 l 442 -96 q 456 -96 466 -103 q 476 -111 481 -127 q 486 -143 486 -170 l 486 -170 q 486 -210 474 -228 q 462 -246 437 -246 l 437 -246 q 411 -246 387 -228 q 363 -210 333 -170 l 333 -170 l 313 -274 q 341 -303 383 -327 q 424 -351 476 -351 l 476 -351 q 527 -351 561 -329 q 594 -308 611 -269 q 628 -230 628 -178 l 628 -178 q 628 -117 608 -74 q 587 -32 547 -10 q 506 12 447 12 l 447 12 q 393 12 348 -13 q 303 -38 276 -94 q 249 -151 249 -244 l 249 -244 q 249 -354 290 -428 q 331 -503 403 -540 q 474 -577 564 -577 z"},"ൔ":{"ha":621,"x_min":48,"x_max":609,"o":"m 189 -801 l 189 -801 q 225 -801 253 -791 q 280 -782 294 -768 l 294 -768 q 319 -745 329 -712 q 338 -680 338 -630 l 338 -630 l 338 -501 q 338 -465 343 -431 q 347 -398 364 -363 q 381 -329 416 -291 l 416 -291 l 439 -271 q 468 -237 513 -192 q 557 -147 609 -98 l 609 -98 l 560 0 l 48 0 l 48 -258 q 48 -323 57 -369 q 66 -415 84 -448 q 101 -481 128 -505 l 128 -505 q 164 -538 216 -557 q 268 -576 328 -576 l 328 -576 q 390 -576 439 -553 q 488 -531 516 -487 q 544 -444 544 -380 l 544 -380 q 544 -321 517 -278 q 490 -236 453 -201 l 453 -201 l 427 -184 q 408 -164 387 -144 q 365 -124 343 -105 q 321 -87 298 -71 l 298 -71 l 310 -105 q 331 -107 353 -108 q 374 -110 381 -110 l 381 -110 l 389 -110 q 397 -110 416 -109 q 434 -108 454 -107 q 473 -106 485 -104 l 485 -104 l 482 -61 q 444 -96 416 -123 q 387 -150 363 -178 l 363 -178 l 328 -213 q 279 -261 252 -307 q 224 -354 214 -405 q 203 -456 203 -517 l 203 -517 l 203 -616 q 203 -644 199 -657 q 194 -670 185 -678 l 185 -678 q 180 -683 171 -686 q 161 -689 147 -689 l 147 -689 q 134 -689 122 -687 q 109 -685 98 -683 l 98 -683 l 74 -786 q 98 -794 128 -797 q 157 -801 189 -801 z m 195 -262 l 195 -67 l 154 -72 q 189 -102 223 -134 q 257 -166 287 -199 q 317 -233 340 -266 l 340 -266 l 369 -296 q 383 -315 394 -337 q 404 -359 404 -386 l 404 -386 q 404 -413 393 -432 q 381 -451 361 -461 q 340 -471 310 -471 l 310 -471 q 277 -471 252 -456 q 227 -441 215 -415 l 215 -415 q 209 -400 204 -382 q 199 -365 197 -337 q 195 -309 195 -262 l 195 -262 z"},"ൕ":{"ha":987,"x_min":34,"x_max":956,"o":"m 653 12 l 653 12 q 608 12 573 7 q 537 1 508 -9 q 479 -20 450 -37 l 450 -37 q 445 -42 439 -49 q 432 -57 426 -62 l 426 -62 q 377 -97 346 -142 q 315 -188 301 -239 q 287 -291 287 -343 l 287 -343 q 287 -381 294 -411 q 300 -442 311 -466 l 311 -466 l 333 -495 q 351 -525 378 -543 q 404 -562 436 -569 q 468 -577 501 -577 l 501 -577 q 604 -577 659 -517 q 713 -457 713 -344 l 713 -344 q 713 -280 695 -226 q 677 -172 644 -129 q 611 -87 566 -56 l 566 -56 q 559 -51 552 -44 q 544 -38 535 -33 l 535 -33 q 495 -11 452 1 q 408 12 354 12 l 354 12 q 272 12 212 -14 q 151 -40 112 -86 q 73 -133 54 -194 q 34 -255 34 -327 l 34 -327 q 34 -403 59 -459 q 84 -515 135 -546 q 185 -577 261 -577 l 261 -577 q 317 -577 363 -552 q 409 -528 441 -478 l 441 -478 l 333 -418 q 318 -444 300 -455 q 282 -466 264 -466 l 264 -466 q 238 -466 220 -450 q 202 -435 193 -405 q 183 -375 183 -331 l 183 -331 q 183 -257 206 -204 q 228 -151 268 -123 q 308 -96 360 -96 l 360 -96 q 384 -96 403 -100 q 421 -104 438 -110 l 438 -110 q 446 -114 453 -115 q 460 -116 466 -120 l 466 -120 q 497 -141 519 -176 q 541 -212 552 -256 q 563 -300 563 -345 l 563 -345 q 563 -391 554 -417 q 545 -444 531 -455 q 517 -466 501 -466 l 501 -466 q 482 -466 467 -455 q 452 -444 444 -417 q 435 -391 435 -345 l 435 -345 q 435 -303 446 -261 q 456 -219 475 -184 q 494 -149 521 -126 l 521 -126 q 529 -120 537 -118 q 544 -116 553 -112 l 553 -112 q 568 -105 590 -100 q 611 -96 645 -96 l 645 -96 q 699 -96 735 -116 q 770 -136 788 -170 q 805 -204 805 -249 l 805 -249 q 805 -280 799 -310 q 792 -341 776 -376 q 760 -411 734 -456 l 734 -456 q 709 -502 692 -536 q 674 -570 666 -599 q 657 -628 657 -661 l 657 -661 q 657 -699 674 -730 q 691 -762 727 -781 q 763 -801 820 -801 l 820 -801 q 858 -801 886 -796 q 913 -792 931 -786 l 931 -786 l 908 -680 q 896 -684 883 -686 q 869 -689 852 -689 l 852 -689 q 828 -689 817 -677 q 805 -665 805 -645 l 805 -645 q 805 -629 810 -613 q 814 -598 827 -573 q 840 -549 863 -508 l 863 -508 q 896 -452 917 -408 q 937 -364 947 -324 q 956 -285 956 -242 l 956 -242 q 956 -206 947 -170 q 938 -134 918 -101 q 897 -69 862 -43 q 826 -18 775 -3 q 723 12 653 12 z"},"ൖ":{"ha":731,"x_min":30,"x_max":702,"o":"m 267 -184 l 267 -184 q 267 -159 275 -140 q 282 -122 299 -111 q 315 -101 341 -101 l 341 -101 q 373 -101 388 -116 q 403 -132 403 -158 l 403 -158 q 403 -188 394 -215 q 384 -242 372 -270 q 359 -299 350 -333 q 340 -367 340 -411 l 340 -411 q 340 -460 361 -497 q 382 -535 421 -556 q 460 -577 511 -577 l 511 -577 q 579 -577 621 -551 q 663 -525 683 -483 q 702 -442 702 -399 l 702 -399 q 702 -329 672 -274 q 642 -220 580 -189 q 517 -158 419 -158 l 419 -158 l 367 -158 q 328 -158 295 -163 q 261 -168 228 -178 l 228 -178 l 183 -187 q 141 -204 106 -233 q 71 -262 51 -304 q 30 -347 30 -402 l 30 -402 q 30 -446 43 -490 q 56 -535 83 -578 l 83 -578 l 206 -526 q 193 -497 185 -467 q 177 -438 177 -407 l 177 -407 q 177 -374 186 -351 q 194 -329 203 -310 l 203 -310 l 252 -281 q 275 -271 307 -264 q 338 -257 367 -257 l 367 -257 l 414 -257 q 463 -257 495 -275 q 526 -294 541 -327 q 555 -360 555 -402 l 555 -402 q 555 -435 544 -454 q 533 -473 510 -473 l 510 -473 q 497 -473 488 -465 q 478 -458 473 -444 q 467 -431 467 -412 l 467 -412 q 467 -380 479 -348 q 491 -316 506 -282 q 520 -249 532 -214 q 544 -179 544 -141 l 544 -141 q 544 -113 535 -86 q 526 -59 504 -37 q 482 -15 443 -1 q 404 12 345 12 l 345 12 q 284 12 238 -8 q 191 -28 164 -70 q 137 -112 137 -180 l 137 -180 q 137 -221 149 -264 q 161 -308 183 -357 q 204 -406 228 -463 l 228 -463 q 250 -509 263 -541 q 276 -573 283 -597 q 289 -621 289 -641 l 289 -641 q 289 -663 277 -676 q 264 -689 236 -689 l 236 -689 q 224 -689 211 -687 q 198 -685 186 -682 l 186 -682 l 161 -786 q 186 -794 219 -797 q 251 -801 282 -801 l 282 -801 q 345 -801 378 -780 q 410 -759 422 -727 q 434 -696 434 -665 l 434 -665 q 434 -641 429 -616 q 423 -591 412 -561 q 400 -531 382 -493 q 364 -456 339 -405 l 339 -405 q 314 -356 300 -322 q 285 -288 278 -263 q 271 -239 269 -220 q 267 -202 267 -184 z"},"ൗ":{"ha":717,"x_min":27,"x_max":683,"o":"m 480 -577 l 480 -577 q 544 -577 590 -545 q 635 -513 659 -453 q 683 -394 683 -311 l 683 -311 q 683 -206 653 -134 q 622 -62 560 -25 q 498 12 402 12 l 402 12 q 337 12 288 1 q 238 -10 190 -34 l 190 -34 l 246 -138 q 280 -121 315 -111 q 349 -102 387 -102 l 387 -102 q 441 -102 473 -125 q 505 -149 519 -195 q 533 -241 533 -309 l 533 -309 q 533 -392 514 -429 q 495 -466 467 -466 l 467 -466 q 456 -466 449 -461 q 441 -457 436 -449 l 436 -449 q 429 -439 427 -423 q 424 -408 424 -374 l 424 -374 l 424 -267 l 277 -267 l 277 -354 q 277 -393 275 -413 q 273 -434 266 -445 l 266 -445 q 260 -456 251 -461 q 241 -466 230 -466 l 230 -466 q 205 -466 191 -443 q 176 -420 176 -385 l 176 -385 q 176 -356 180 -332 q 184 -308 189 -288 l 189 -288 l 47 -258 q 38 -287 33 -321 q 27 -356 27 -388 l 27 -388 q 27 -437 47 -480 q 66 -523 108 -550 q 149 -577 215 -577 l 215 -577 q 266 -577 300 -561 q 333 -545 359 -514 l 359 -514 l 338 -514 q 365 -548 399 -562 q 432 -577 480 -577 z"},"൘":{"ha":1137,"x_min":34,"x_max":1098,"o":"m 562 12 l 562 12 q 513 12 474 -8 q 434 -28 402 -69 l 402 -69 l 423 -58 q 390 -22 354 -5 q 318 12 266 12 l 266 12 q 191 12 139 -24 q 87 -61 61 -123 q 34 -185 34 -262 l 34 -262 q 34 -325 47 -378 q 60 -432 85 -481 q 110 -530 144 -577 l 144 -577 l 262 -509 q 236 -471 219 -431 q 201 -391 193 -349 q 184 -308 184 -265 l 184 -265 q 184 -206 198 -169 q 212 -133 234 -117 q 256 -101 278 -101 l 278 -101 q 294 -101 305 -106 q 315 -111 321 -118 l 321 -118 q 333 -132 337 -154 q 341 -176 341 -219 l 341 -219 l 341 -565 l 489 -565 l 489 -234 q 489 -185 495 -161 q 500 -137 512 -122 l 512 -122 q 522 -112 535 -106 q 548 -101 563 -101 l 563 -101 q 580 -101 592 -106 q 604 -112 613 -121 l 613 -121 q 626 -137 631 -161 q 635 -186 635 -230 l 635 -230 l 635 -565 l 784 -565 l 784 -255 l 718 -64 q 686 -24 649 -6 q 611 12 562 12 z m 867 12 l 867 12 q 813 12 774 -6 q 735 -24 700 -64 l 700 -64 l 644 -252 l 644 -555 l 784 -555 l 784 -235 q 784 -187 789 -160 q 793 -133 807 -117 l 807 -117 q 816 -109 827 -105 q 837 -101 853 -101 l 853 -101 q 884 -101 905 -128 q 926 -156 937 -205 q 947 -254 947 -319 l 947 -319 q 947 -386 938 -447 q 928 -508 906 -560 q 883 -613 843 -651 q 803 -690 742 -711 q 681 -732 595 -732 l 595 -732 q 536 -732 478 -724 q 419 -716 375 -706 l 375 -706 l 355 -820 q 396 -830 434 -836 q 471 -843 513 -846 q 554 -849 605 -849 l 605 -849 q 713 -849 795 -824 q 876 -799 934 -752 q 991 -706 1028 -641 q 1064 -577 1081 -497 q 1098 -417 1098 -326 l 1098 -326 q 1098 -216 1073 -140 q 1047 -65 996 -26 q 944 12 867 12 z"},"൙":{"ha":1074,"x_min":34,"x_max":1056,"o":"m 347 -577 l 347 -577 q 433 -577 496 -550 q 558 -523 598 -475 q 638 -427 658 -365 q 678 -303 678 -232 l 678 -232 q 678 -144 654 -90 q 629 -37 583 -12 q 536 12 470 12 l 470 12 q 400 12 359 -13 q 318 -38 301 -77 q 283 -116 283 -159 l 283 -159 q 283 -211 304 -249 q 325 -288 363 -312 l 363 -312 q 385 -326 412 -334 q 439 -343 475 -347 q 510 -351 556 -351 l 556 -351 l 728 -351 l 728 -239 l 561 -239 q 514 -239 492 -234 q 469 -230 453 -219 l 453 -219 q 440 -209 434 -193 q 427 -178 427 -158 l 427 -158 q 427 -134 438 -117 q 449 -101 473 -101 l 473 -101 q 491 -101 504 -113 q 517 -125 524 -152 q 531 -180 531 -228 l 531 -228 q 531 -243 531 -259 q 530 -276 528 -287 l 528 -287 l 524 -313 q 519 -354 499 -388 q 478 -423 443 -443 q 408 -464 356 -464 l 356 -464 q 299 -464 261 -442 q 222 -421 204 -381 q 186 -341 186 -287 l 186 -287 q 186 -240 196 -201 q 205 -162 224 -126 q 243 -90 269 -54 l 269 -54 l 157 13 q 122 -26 94 -70 q 66 -115 50 -169 q 34 -224 34 -292 l 34 -292 q 34 -348 52 -399 q 70 -450 108 -490 q 146 -531 206 -554 q 265 -577 347 -577 z m 884 -565 l 884 -565 q 947 -565 985 -543 q 1022 -521 1039 -485 q 1056 -450 1056 -410 l 1056 -410 q 1056 -366 1041 -333 q 1025 -301 998 -281 l 998 -281 q 976 -265 952 -256 q 927 -247 895 -243 q 862 -239 815 -239 l 815 -239 l 620 -239 l 621 -351 l 829 -351 q 860 -351 877 -354 q 893 -358 902 -364 l 902 -364 q 913 -371 918 -381 q 923 -391 923 -410 l 923 -410 q 923 -431 912 -443 q 901 -456 884 -456 l 884 -456 q 862 -456 852 -440 q 841 -425 841 -400 l 841 -400 q 841 -368 852 -345 q 862 -323 878 -305 l 878 -305 l 748 -298 q 733 -318 723 -349 q 712 -381 712 -410 l 712 -410 q 712 -462 735 -496 q 758 -530 797 -547 q 836 -565 884 -565 z"},"൚":{"ha":1017,"x_min":34,"x_max":969,"o":"m 652 -577 l 652 -577 q 737 -577 795 -557 q 852 -538 890 -503 l 890 -503 q 917 -478 935 -445 q 952 -412 961 -366 q 969 -321 969 -257 l 969 -257 l 969 0 l 496 0 l 496 -103 q 528 -144 556 -191 q 584 -238 602 -289 q 619 -340 619 -391 l 619 -391 q 619 -414 615 -429 q 611 -444 602 -452 q 592 -460 576 -460 l 576 -460 q 558 -460 544 -449 q 530 -438 519 -419 l 519 -419 q 509 -398 504 -366 q 499 -335 499 -283 l 499 -283 l 499 -230 l 352 -230 l 352 -342 q 352 -390 347 -412 q 342 -435 329 -449 l 329 -449 q 323 -456 312 -460 q 301 -465 285 -465 l 285 -465 q 261 -465 238 -449 q 215 -433 200 -396 q 184 -360 184 -300 l 184 -300 q 184 -257 193 -215 q 202 -174 219 -134 q 236 -94 262 -55 l 262 -55 l 145 13 q 111 -34 86 -83 q 61 -133 48 -187 q 34 -241 34 -303 l 34 -303 q 34 -381 61 -443 q 88 -505 142 -541 q 196 -577 276 -577 l 276 -577 q 312 -577 342 -569 q 371 -561 398 -543 q 424 -526 449 -496 l 449 -496 l 417 -487 q 444 -516 479 -536 q 513 -556 556 -566 q 599 -577 652 -577 z m 765 -361 l 765 -361 q 765 -316 752 -273 q 739 -230 715 -188 q 691 -146 658 -102 l 658 -102 l 641 -107 q 659 -110 683 -110 q 707 -111 721 -111 l 721 -111 l 822 -111 l 822 -274 q 822 -335 811 -373 q 800 -412 779 -436 q 757 -460 721 -474 l 721 -474 l 723 -478 q 741 -459 753 -429 q 765 -399 765 -361 z"},"൛":{"ha":908,"x_min":54,"x_max":874,"o":"m 586 12 l 586 12 q 507 12 453 -11 q 399 -35 366 -75 q 333 -115 318 -164 q 303 -214 303 -266 l 303 -266 q 303 -325 317 -371 q 330 -417 355 -457 q 379 -497 412 -537 l 412 -537 l 371 -454 l 202 -454 l 202 0 l 54 0 l 54 -565 l 466 -565 l 529 -495 q 510 -468 493 -435 q 475 -403 465 -364 q 454 -325 454 -276 l 454 -276 q 454 -224 470 -184 q 486 -145 515 -123 q 544 -102 584 -102 l 584 -102 q 625 -102 656 -122 q 687 -143 704 -182 q 721 -221 721 -275 l 721 -275 q 721 -324 711 -363 q 701 -403 683 -439 q 664 -475 637 -510 l 637 -510 l 751 -579 q 787 -541 815 -496 q 842 -451 858 -396 q 874 -342 874 -273 l 874 -273 q 874 -222 859 -172 q 844 -122 810 -80 q 776 -38 721 -13 q 666 12 586 12 z"},"൜":{"ha":1420,"x_min":34,"x_max":1386,"o":"m 854 -577 l 854 -577 q 910 -577 950 -562 q 990 -547 1015 -522 l 1015 -522 q 1036 -502 1050 -474 q 1063 -446 1069 -410 q 1075 -375 1075 -330 l 1075 -330 l 1075 -230 q 1075 -184 1079 -161 q 1083 -138 1094 -125 l 1094 -125 q 1102 -113 1116 -107 q 1129 -101 1146 -101 l 1146 -101 q 1171 -101 1191 -117 q 1211 -133 1223 -168 q 1235 -204 1235 -264 l 1235 -264 q 1235 -311 1227 -352 q 1218 -393 1201 -432 q 1183 -471 1157 -511 l 1157 -511 l 1274 -578 q 1308 -533 1333 -485 q 1358 -437 1372 -381 q 1386 -326 1386 -260 l 1386 -260 q 1386 -178 1358 -117 q 1329 -56 1275 -22 q 1221 12 1145 12 l 1145 12 q 1090 12 1051 -1 q 1012 -15 984 -43 l 984 -43 q 963 -63 951 -91 q 938 -119 932 -155 q 925 -192 925 -236 l 925 -236 l 925 -334 q 925 -374 922 -398 q 918 -423 907 -439 l 907 -439 q 900 -451 888 -457 q 875 -464 855 -464 l 855 -464 q 837 -464 824 -457 q 811 -451 804 -440 l 804 -440 q 793 -424 789 -400 q 785 -376 785 -338 l 785 -338 l 785 -236 q 785 -191 779 -155 q 773 -119 760 -91 q 746 -64 725 -43 l 725 -43 q 700 -18 661 -3 q 621 12 566 12 l 566 12 q 509 12 470 -3 q 430 -18 405 -43 l 405 -43 q 384 -65 371 -92 q 358 -120 352 -155 q 345 -191 345 -235 l 345 -235 l 345 -335 q 345 -382 341 -404 q 336 -427 326 -441 l 326 -441 q 318 -453 305 -458 q 292 -464 274 -464 l 274 -464 q 250 -464 230 -448 q 209 -433 197 -397 q 184 -362 184 -301 l 184 -301 q 184 -254 194 -213 q 203 -172 220 -133 q 237 -95 262 -54 l 262 -54 l 145 13 q 112 -32 87 -80 q 62 -129 48 -184 q 34 -239 34 -305 l 34 -305 q 34 -387 62 -448 q 90 -509 145 -543 q 199 -577 276 -577 l 276 -577 q 330 -577 370 -563 q 409 -550 436 -523 l 436 -523 q 458 -502 471 -474 q 483 -446 489 -409 q 495 -373 495 -327 l 495 -327 l 495 -232 q 495 -191 499 -166 q 502 -142 513 -126 l 513 -126 q 520 -114 533 -107 q 546 -101 565 -101 l 565 -101 q 584 -101 597 -107 q 609 -114 617 -126 l 617 -126 q 628 -141 632 -165 q 635 -190 635 -229 l 635 -229 l 635 -329 q 635 -375 642 -410 q 648 -446 661 -474 q 674 -502 695 -522 l 695 -522 q 721 -547 760 -562 q 799 -577 854 -577 z"},"൝":{"ha":1867,"x_min":8,"x_max":1833,"o":"m 720 -577 l 720 -577 q 776 -577 816 -562 q 856 -547 882 -522 l 882 -522 q 902 -502 916 -474 q 929 -446 936 -410 q 942 -375 942 -330 l 942 -330 l 942 -232 q 942 -191 946 -166 q 949 -142 960 -126 l 960 -126 q 967 -114 980 -107 q 993 -101 1012 -101 l 1012 -101 q 1031 -101 1044 -107 q 1056 -114 1064 -126 l 1064 -126 q 1074 -141 1078 -165 q 1082 -190 1082 -229 l 1082 -229 l 1082 -329 q 1082 -375 1088 -410 q 1094 -446 1108 -474 q 1121 -502 1142 -522 l 1142 -522 q 1167 -547 1207 -562 q 1246 -577 1301 -577 l 1301 -577 q 1357 -577 1397 -562 q 1437 -547 1462 -522 l 1462 -522 q 1483 -502 1496 -474 q 1509 -446 1516 -410 q 1522 -375 1522 -330 l 1522 -330 l 1522 -230 q 1522 -184 1526 -161 q 1530 -138 1541 -125 l 1541 -125 q 1549 -113 1563 -107 q 1576 -101 1593 -101 l 1593 -101 q 1618 -101 1638 -117 q 1658 -133 1670 -168 q 1682 -204 1682 -264 l 1682 -264 q 1682 -311 1674 -352 q 1665 -393 1648 -432 q 1630 -471 1604 -511 l 1604 -511 l 1721 -578 q 1755 -533 1780 -485 q 1805 -437 1819 -381 q 1833 -326 1833 -260 l 1833 -260 q 1833 -178 1805 -117 q 1776 -56 1722 -22 q 1668 12 1591 12 l 1591 12 q 1537 12 1498 -1 q 1459 -15 1430 -43 l 1430 -43 q 1410 -63 1397 -91 q 1384 -119 1378 -155 q 1372 -192 1372 -236 l 1372 -236 l 1372 -334 q 1372 -374 1369 -398 q 1365 -423 1354 -439 l 1354 -439 q 1347 -451 1334 -457 q 1321 -464 1302 -464 l 1302 -464 q 1284 -464 1271 -457 q 1258 -451 1251 -440 l 1251 -440 q 1240 -424 1236 -400 q 1232 -376 1232 -338 l 1232 -338 l 1232 -236 q 1232 -191 1226 -155 q 1220 -119 1207 -91 q 1193 -64 1172 -43 l 1172 -43 q 1147 -18 1108 -3 q 1068 12 1013 12 l 1013 12 q 956 12 917 -3 q 877 -18 852 -43 l 852 -43 q 831 -65 818 -92 q 804 -120 798 -155 q 792 -191 792 -235 l 792 -235 l 792 -336 q 792 -376 788 -399 q 784 -423 774 -439 l 774 -439 q 766 -451 754 -457 q 741 -464 722 -464 l 722 -464 q 703 -464 690 -457 q 677 -451 670 -440 l 670 -440 q 659 -424 656 -400 q 652 -376 652 -338 l 652 -338 l 652 -237 q 652 -164 637 -118 q 621 -72 591 -42 l 591 -42 q 564 -16 527 -2 q 490 12 441 12 l 441 12 q 383 12 344 -7 q 304 -27 275 -63 l 275 -63 l 293 -62 q 269 -35 244 -18 q 218 -2 191 5 q 163 12 130 12 l 130 12 q 94 12 66 5 q 37 -2 8 -18 l 8 -18 l 50 -121 q 69 -113 89 -107 q 109 -101 131 -101 l 131 -101 q 147 -101 161 -105 q 175 -109 186 -118 l 186 -118 q 201 -133 205 -158 q 209 -183 209 -234 l 209 -234 l 209 -562 l 357 -565 l 357 -227 q 357 -184 363 -160 q 368 -136 381 -122 l 381 -122 q 389 -112 402 -106 q 415 -101 430 -101 l 430 -101 q 447 -101 460 -106 q 473 -112 482 -124 l 482 -124 q 493 -138 498 -161 q 502 -184 502 -229 l 502 -229 l 502 -329 q 502 -375 509 -410 q 515 -446 528 -474 q 541 -502 561 -522 l 561 -522 q 587 -547 626 -562 q 665 -577 720 -577 z"},"൞":{"ha":1318,"x_min":34,"x_max":1292,"o":"m 347 -577 l 347 -577 q 433 -577 496 -550 q 558 -523 598 -475 q 638 -427 658 -365 q 678 -303 678 -232 l 678 -232 q 678 -144 654 -90 q 629 -37 583 -12 q 536 12 470 12 l 470 12 q 400 12 359 -13 q 318 -38 301 -77 q 283 -116 283 -159 l 283 -159 q 283 -211 304 -249 q 325 -288 363 -312 l 363 -312 q 385 -326 412 -334 q 439 -343 475 -347 q 510 -351 556 -351 l 556 -351 l 615 -351 l 615 -239 l 561 -239 q 514 -239 492 -234 q 469 -230 453 -219 l 453 -219 q 440 -209 434 -193 q 427 -178 427 -158 l 427 -158 q 427 -134 438 -117 q 449 -101 473 -101 l 473 -101 q 491 -101 504 -113 q 517 -125 524 -152 q 531 -180 531 -228 l 531 -228 q 531 -244 531 -260 q 530 -276 528 -287 l 528 -287 l 524 -313 q 519 -354 499 -388 q 478 -423 444 -443 q 409 -464 356 -464 l 356 -464 q 299 -464 261 -442 q 222 -421 204 -381 q 186 -341 186 -287 l 186 -287 q 186 -240 196 -201 q 205 -162 224 -126 q 243 -90 269 -54 l 269 -54 l 157 13 q 122 -26 94 -70 q 66 -115 50 -169 q 34 -224 34 -292 l 34 -292 q 34 -348 52 -399 q 70 -450 108 -490 q 146 -531 206 -554 q 265 -577 347 -577 z m 1084 -199 l 1084 -199 q 1011 -199 966 -226 q 921 -254 901 -297 q 880 -340 880 -385 l 880 -385 q 880 -416 890 -444 q 899 -472 910 -492 l 910 -492 l 917 -453 l 765 -453 l 797 -496 q 810 -480 821 -454 q 831 -428 831 -398 l 831 -398 q 831 -345 809 -309 q 786 -274 743 -256 q 699 -239 636 -239 l 636 -239 l 608 -239 l 608 -351 l 641 -351 q 668 -351 683 -357 q 697 -364 703 -376 q 709 -388 709 -405 l 709 -405 q 709 -421 703 -437 q 697 -454 690 -463 l 690 -463 l 727 -565 l 1001 -565 l 1050 -500 q 1040 -484 1032 -457 q 1023 -431 1023 -395 l 1023 -395 q 1023 -360 1037 -335 q 1051 -310 1082 -310 l 1082 -310 q 1103 -310 1117 -321 q 1131 -332 1138 -351 q 1144 -370 1144 -393 l 1144 -393 q 1144 -438 1132 -467 q 1119 -496 1104 -524 l 1104 -524 l 1223 -578 q 1254 -537 1273 -491 q 1292 -446 1292 -388 l 1292 -388 q 1292 -331 1267 -288 q 1241 -246 1194 -222 q 1147 -199 1084 -199 z"},"ൟ":{"ha":1305,"x_min":23,"x_max":1282,"o":"m 23 -271 l 23 -271 q 23 -332 60 -371 q 96 -410 161 -410 l 161 -410 q 226 -410 263 -371 q 300 -333 300 -271 l 300 -271 q 300 -210 264 -171 q 228 -133 161 -133 l 161 -133 q 95 -133 59 -171 q 23 -210 23 -271 z m 122 -272 l 122 -272 q 122 -247 132 -233 q 142 -220 161 -220 l 161 -220 q 182 -220 192 -233 q 201 -247 201 -272 l 201 -272 q 201 -296 191 -309 q 181 -323 161 -323 l 161 -323 q 142 -323 132 -310 q 122 -297 122 -272 z m 1005 -271 l 1005 -271 q 1005 -332 1042 -371 q 1078 -410 1143 -410 l 1143 -410 q 1208 -410 1245 -371 q 1282 -333 1282 -271 l 1282 -271 q 1282 -210 1246 -171 q 1210 -133 1143 -133 l 1143 -133 q 1077 -133 1041 -171 q 1005 -210 1005 -271 z m 1104 -272 l 1104 -272 q 1104 -247 1114 -233 q 1124 -220 1143 -220 l 1143 -220 q 1164 -220 1174 -233 q 1183 -247 1183 -272 l 1183 -272 q 1183 -296 1173 -309 q 1163 -323 1143 -323 l 1143 -323 q 1124 -323 1114 -310 q 1104 -297 1104 -272 z m 645 -577 l 645 -577 q 729 -577 791 -550 q 853 -524 894 -477 q 935 -431 955 -369 q 975 -307 975 -236 l 975 -236 q 975 -150 951 -94 q 927 -39 880 -13 q 833 12 765 12 l 765 12 q 696 12 654 -17 q 611 -46 592 -95 q 572 -144 572 -205 l 572 -205 q 572 -302 616 -355 q 660 -408 742 -408 l 742 -408 q 790 -408 826 -381 q 861 -355 884 -312 q 906 -270 914 -223 l 914 -223 l 857 -218 q 852 -241 842 -260 q 832 -280 816 -292 q 800 -305 778 -305 l 778 -305 q 747 -305 732 -280 q 717 -256 717 -201 l 717 -201 q 717 -167 723 -144 q 729 -121 741 -109 q 753 -98 771 -98 l 771 -98 q 790 -98 803 -110 q 816 -123 823 -153 q 830 -183 830 -234 l 830 -234 q 830 -253 829 -271 q 827 -290 825 -306 l 825 -306 q 825 -311 825 -319 q 824 -327 822 -331 l 822 -331 q 817 -365 796 -395 q 774 -426 738 -445 q 702 -464 654 -464 l 654 -464 q 596 -464 558 -442 q 519 -421 501 -381 q 482 -341 482 -287 l 482 -287 q 482 -240 492 -201 q 502 -162 521 -126 q 540 -90 566 -54 l 566 -54 l 454 13 q 418 -26 390 -70 q 362 -115 346 -169 q 330 -224 330 -292 l 330 -292 q 330 -348 349 -399 q 367 -450 405 -490 q 442 -531 502 -554 q 562 -577 645 -577 z"},"ൠ":{"ha":880,"x_min":30,"x_max":850,"o":"m 649 -577 l 649 -577 q 742 -577 796 -517 q 850 -458 850 -349 l 850 -349 q 850 -280 828 -230 q 806 -181 767 -147 l 767 -147 q 724 -106 667 -86 q 610 -67 535 -65 l 535 -65 l 486 -74 l 386 -73 l 341 -66 q 264 -69 212 -88 q 159 -107 118 -146 l 118 -146 q 77 -180 54 -230 q 30 -281 30 -352 l 30 -352 q 30 -419 55 -470 q 80 -521 127 -549 q 174 -577 238 -577 l 238 -577 q 297 -577 338 -554 q 379 -532 401 -492 q 422 -452 422 -401 l 422 -401 q 422 -339 401 -300 q 379 -262 341 -244 q 302 -226 251 -226 l 251 -226 q 217 -226 183 -241 q 149 -256 122 -278 q 94 -300 76 -321 l 76 -321 l 114 -416 q 132 -389 148 -369 q 163 -349 181 -338 q 198 -327 220 -327 l 220 -327 q 247 -327 263 -344 q 279 -361 279 -406 l 279 -406 q 279 -438 266 -454 q 252 -471 232 -471 l 232 -471 q 212 -471 198 -459 q 183 -448 175 -424 q 167 -401 167 -362 l 167 -362 q 167 -342 170 -324 q 172 -307 176 -293 l 176 -293 l 175 -263 q 188 -235 214 -216 q 240 -198 274 -187 q 308 -177 345 -172 q 381 -168 416 -168 l 416 -168 l 467 -168 q 498 -168 534 -171 q 570 -175 605 -185 q 639 -196 666 -215 q 693 -234 707 -264 l 707 -264 l 706 -292 q 709 -307 712 -324 q 714 -342 714 -362 l 714 -362 q 714 -401 706 -424 q 698 -448 685 -459 q 671 -471 652 -471 l 652 -471 q 631 -471 617 -453 q 603 -436 603 -400 l 603 -400 q 603 -360 619 -343 q 634 -327 659 -327 l 659 -327 q 683 -327 700 -337 q 717 -348 733 -368 q 749 -388 766 -417 l 766 -417 l 805 -321 q 788 -300 761 -278 q 733 -256 699 -241 q 665 -226 627 -226 l 627 -226 q 578 -226 540 -243 q 502 -261 481 -299 q 460 -337 460 -396 l 460 -396 q 460 -451 483 -492 q 506 -533 549 -555 q 591 -577 649 -577 z m 442 255 l 442 255 q 332 255 255 235 q 177 214 137 169 q 96 124 96 52 l 96 52 q 96 2 120 -32 q 143 -67 184 -88 q 225 -109 277 -118 q 329 -128 385 -128 l 385 -128 l 494 -128 q 552 -128 605 -118 q 657 -109 698 -88 q 739 -67 762 -32 q 785 2 785 52 l 785 52 q 785 121 747 166 q 708 211 632 233 q 555 255 442 255 z m 442 144 l 442 144 q 515 144 560 133 q 604 122 625 99 q 646 76 646 42 l 646 42 q 646 11 631 -9 q 615 -29 588 -40 q 560 -51 525 -56 q 489 -61 449 -61 l 449 -61 l 434 -61 q 377 -61 332 -51 q 287 -42 261 -20 q 235 2 235 42 l 235 42 q 235 78 256 101 q 277 123 323 134 q 368 144 442 144 z m 510 -38 l 510 -38 q 539 -38 558 -27 q 577 -16 587 1 q 596 18 600 38 q 603 58 603 75 l 603 75 l 603 109 l 521 109 l 521 92 q 521 75 518 64 q 515 52 501 52 l 501 52 q 488 52 485 63 q 481 74 481 91 l 481 91 l 481 109 l 399 109 l 399 91 q 399 73 396 63 q 392 52 380 52 l 380 52 q 366 52 363 64 q 359 76 359 92 l 359 92 l 359 109 l 277 109 l 277 76 q 277 58 281 39 q 284 19 294 2 q 303 -16 322 -27 q 340 -38 370 -38 l 370 -38 q 395 -38 411 -29 q 426 -20 440 -5 l 440 -5 q 455 -23 472 -30 q 489 -38 510 -38 z"},"ൡ":{"ha":1266,"x_min":34,"x_max":1245,"o":"m 349 -577 l 349 -577 q 424 -577 476 -554 q 528 -531 570 -479 l 570 -479 l 589 -387 l 619 -226 l 619 0 l 471 0 l 471 -289 q 471 -356 462 -388 q 453 -420 434 -437 l 434 -437 q 420 -450 400 -457 q 380 -464 348 -464 l 348 -464 q 299 -464 258 -440 q 217 -417 193 -367 q 168 -318 168 -241 l 168 -241 l 168 -234 q 168 -177 176 -147 q 184 -118 198 -107 q 212 -97 227 -97 l 227 -97 q 242 -97 252 -104 q 261 -112 266 -128 q 271 -144 271 -170 l 271 -170 q 271 -210 259 -228 q 247 -246 222 -246 l 222 -246 q 196 -246 172 -228 q 148 -210 118 -170 l 118 -170 l 98 -274 q 126 -303 168 -327 q 210 -351 262 -351 l 262 -351 q 312 -351 346 -329 q 380 -308 397 -269 q 414 -230 414 -178 l 414 -178 q 414 -117 393 -74 q 372 -32 332 -10 q 291 12 232 12 l 232 12 q 178 12 133 -13 q 88 -38 61 -94 q 34 -151 34 -244 l 34 -244 q 34 -354 75 -428 q 116 -503 188 -540 q 259 -577 349 -577 z m 756 -577 l 756 -577 q 846 -577 908 -545 q 970 -513 1007 -459 q 1043 -406 1056 -339 l 1056 -339 q 1061 -314 1063 -287 q 1064 -260 1064 -233 l 1064 -233 q 1064 -150 1042 -95 q 1020 -41 975 -14 q 930 12 862 12 l 862 12 q 799 12 757 -13 q 714 -38 693 -82 q 672 -126 672 -185 l 672 -185 q 672 -291 741 -347 q 810 -404 930 -404 l 930 -404 q 948 -404 961 -403 q 974 -403 984 -402 l 984 -402 l 1015 -400 q 1084 -387 1136 -347 q 1187 -308 1216 -245 q 1245 -183 1245 -100 l 1245 -100 q 1245 -41 1230 13 q 1215 67 1181 109 q 1147 151 1089 176 q 1030 201 944 201 l 944 201 q 906 201 872 196 q 838 190 805 179 l 805 179 l 844 71 q 870 80 893 83 q 915 86 942 86 l 942 86 q 993 86 1025 69 q 1057 51 1074 23 q 1091 -5 1098 -38 q 1104 -72 1104 -103 l 1104 -103 q 1104 -150 1096 -185 q 1087 -220 1070 -245 q 1052 -270 1025 -285 l 1025 -285 l 983 -292 q 972 -296 959 -297 q 945 -298 931 -298 l 931 -298 q 890 -298 865 -283 q 839 -268 828 -242 q 816 -217 816 -184 l 816 -184 q 816 -156 822 -137 q 828 -119 839 -109 q 850 -100 867 -100 l 867 -100 q 896 -100 911 -127 q 925 -155 925 -232 l 925 -232 q 925 -266 921 -295 q 916 -325 908 -350 l 908 -350 l 899 -377 q 885 -405 864 -424 q 842 -444 815 -454 q 787 -464 755 -464 l 755 -464 q 729 -464 708 -458 q 687 -453 668 -439 l 668 -439 q 651 -426 640 -407 q 629 -388 624 -356 q 619 -325 619 -274 l 619 -274 l 619 -212 l 513 -457 q 542 -496 576 -522 q 609 -549 654 -563 q 698 -577 756 -577 z"},"ൢ":{"ha":0,"x_min":-795,"x_max":-25,"o":"m -568 -28 l -568 -28 q -514 -28 -464 -8 q -414 11 -384 63 l -384 63 l -349 162 l -349 333 l -469 333 l -469 185 q -469 149 -474 124 q -479 98 -495 83 l -495 83 q -507 70 -526 64 q -545 57 -573 57 l -573 57 q -597 57 -619 65 q -641 72 -658 88 q -675 103 -684 131 l -684 131 q -687 142 -688 154 q -689 166 -689 187 l -689 187 q -689 227 -677 241 q -665 255 -650 255 l -650 255 q -634 255 -624 245 q -615 234 -615 210 l -615 210 q -615 187 -624 177 q -634 166 -654 166 l -654 166 q -675 166 -694 181 q -713 195 -735 221 l -735 221 l -760 155 q -731 126 -696 106 q -661 86 -627 86 l -627 86 q -568 86 -539 119 q -511 152 -511 208 l -511 208 q -511 266 -543 302 q -575 337 -643 337 l -643 337 q -715 337 -755 294 q -795 250 -795 172 l -795 172 q -795 107 -764 63 q -733 18 -681 -5 q -630 -28 -568 -28 z m -244 -28 l -244 -28 q -184 -28 -134 -5 q -85 17 -54 62 q -24 107 -24 174 l -24 174 q -24 256 -61 297 q -99 337 -169 337 l -169 337 q -217 337 -247 319 q -277 300 -291 269 q -305 238 -305 200 l -305 200 q -305 158 -289 129 q -274 100 -246 86 q -219 71 -183 71 l -183 71 q -155 71 -131 85 q -107 98 -87 125 q -67 152 -54 193 l -54 193 l -105 197 q -113 173 -126 158 q -140 142 -159 142 l -159 142 q -178 142 -189 156 q -200 169 -200 200 l -200 200 q -200 228 -191 242 q -182 255 -165 255 l -165 255 q -148 255 -139 237 q -130 218 -130 176 l -130 176 q -130 166 -130 156 q -131 145 -133 136 l -133 136 l -140 112 q -153 89 -171 78 q -190 66 -209 62 q -228 57 -245 57 l -245 57 q -267 57 -284 62 q -301 67 -313 76 l -313 76 q -331 90 -340 116 q -349 142 -349 192 l -349 192 l -451 145 q -446 76 -414 39 q -382 1 -335 -13 q -289 -28 -244 -28 z"},"ൣ":{"ha":0,"x_min":-795,"x_max":96,"o":"m -568 -28 l -568 -28 q -514 -28 -464 -8 q -414 11 -384 63 l -384 63 l -349 162 l -349 333 l -469 333 l -469 185 q -469 149 -474 124 q -479 98 -495 83 l -495 83 q -507 70 -526 64 q -545 57 -573 57 l -573 57 q -597 57 -619 65 q -641 72 -658 88 q -675 103 -684 131 l -684 131 q -687 142 -688 154 q -689 166 -689 187 l -689 187 q -689 227 -677 241 q -665 255 -650 255 l -650 255 q -634 255 -624 245 q -615 234 -615 210 l -615 210 q -615 187 -624 177 q -634 166 -654 166 l -654 166 q -675 166 -694 181 q -713 195 -735 221 l -735 221 l -760 155 q -731 126 -696 106 q -661 86 -627 86 l -627 86 q -568 86 -539 119 q -511 152 -511 208 l -511 208 q -511 266 -543 302 q -575 337 -643 337 l -643 337 q -715 337 -755 294 q -795 250 -795 172 l -795 172 q -795 107 -764 63 q -733 18 -681 -5 q -630 -28 -568 -28 z m -244 -28 l -244 -28 q -185 -28 -136 -5 q -87 17 -58 62 q -29 107 -29 173 l -29 173 q -29 228 -45 265 q -61 301 -92 319 q -123 337 -168 337 l -168 337 q -219 337 -249 319 q -279 300 -292 270 q -305 240 -305 207 l -305 207 q -305 138 -257 101 q -210 64 -124 64 l -124 64 q -112 64 -99 65 q -87 65 -75 66 l -75 66 q -30 70 9 91 q 48 111 72 150 q 96 189 96 252 l 96 252 q 96 286 89 313 q 82 339 72 359 l 72 359 l -25 326 q -19 312 -15 294 q -11 276 -11 251 l -11 251 q -11 212 -23 185 q -35 158 -69 145 l -69 145 l -91 140 q -99 138 -107 137 q -115 136 -124 136 l -124 136 q -155 136 -177 152 q -200 168 -200 207 l -200 207 q -200 230 -191 243 q -182 255 -165 255 l -165 255 q -148 255 -139 237 q -130 218 -130 177 l -130 177 q -130 162 -131 152 q -132 142 -134 132 l -134 132 l -139 114 q -150 91 -168 79 q -186 67 -206 62 q -226 57 -245 57 l -245 57 q -268 57 -284 62 q -301 67 -313 76 l -313 76 q -331 90 -340 116 q -349 142 -349 192 l -349 192 l -449 145 q -445 92 -424 59 q -403 25 -372 6 q -341 -13 -307 -20 q -274 -28 -244 -28 z"},"൦":{"ha":539,"x_min":36,"x_max":504,"o":"m 271 -35 l 271 -35 q 199 -35 146 -63 q 93 -91 65 -146 q 36 -201 36 -282 l 36 -282 q 36 -362 65 -417 q 93 -472 146 -501 q 198 -530 270 -530 l 270 -530 q 347 -530 399 -500 q 451 -470 478 -414 q 504 -359 504 -282 l 504 -282 q 504 -204 475 -148 q 446 -93 395 -64 q 343 -35 271 -35 z m 270 -146 l 270 -146 q 296 -146 315 -160 q 334 -174 345 -204 q 356 -235 356 -283 l 356 -283 q 356 -353 332 -386 q 308 -419 270 -419 l 270 -419 q 233 -419 208 -386 q 183 -354 183 -282 l 183 -282 q 183 -211 207 -178 q 231 -146 270 -146 z"},"൧":{"ha":847,"x_min":11,"x_max":797,"o":"m 364 90 l 364 203 l 265 203 q 193 203 151 195 q 109 187 81 171 l 81 171 q 49 152 30 122 q 11 91 11 49 l 11 49 q 11 8 28 -23 q 44 -54 74 -74 l 74 -74 q 94 -88 118 -96 q 142 -104 177 -108 q 211 -112 262 -112 l 262 -112 l 404 -112 l 452 0 l 260 0 q 223 0 208 2 q 192 3 182 9 l 182 9 q 171 14 166 23 q 160 31 160 44 l 160 44 q 160 66 179 78 l 179 78 q 189 84 208 87 q 226 90 263 90 l 263 90 l 364 90 z m 555 -577 l 555 -577 q 615 -577 658 -562 q 701 -547 730 -518 l 730 -518 q 768 -482 783 -432 q 797 -383 797 -304 l 797 -304 l 797 0 l 310 0 l 310 -299 q 310 -355 317 -395 q 323 -435 338 -464 q 352 -494 377 -518 l 377 -518 q 406 -546 450 -561 q 493 -577 555 -577 z m 554 -465 l 554 -465 q 531 -465 515 -458 q 498 -451 487 -439 l 487 -439 q 472 -420 466 -390 q 459 -361 459 -302 l 459 -302 l 459 -112 l 648 -112 l 648 -297 q 648 -359 642 -389 q 636 -420 620 -439 l 620 -439 q 610 -451 593 -458 q 576 -465 554 -465 z"},"൨":{"ha":789,"x_min":33,"x_max":770,"o":"m 321 -577 l 321 -577 q 400 -577 455 -553 q 509 -530 542 -490 q 575 -450 590 -400 q 604 -351 604 -299 l 604 -299 q 604 -240 591 -194 q 577 -148 553 -108 q 529 -68 496 -28 l 496 -28 l 536 -112 l 770 -112 l 770 0 l 441 0 l 378 -70 q 398 -98 416 -130 q 433 -162 443 -201 q 453 -241 453 -289 l 453 -289 q 453 -342 438 -381 q 422 -420 393 -441 q 364 -463 324 -463 l 324 -463 q 282 -463 252 -442 q 221 -422 204 -383 q 187 -344 187 -290 l 187 -290 q 187 -242 197 -202 q 207 -163 226 -127 q 244 -91 270 -55 l 270 -55 l 157 14 q 121 -25 93 -69 q 65 -114 49 -169 q 33 -224 33 -292 l 33 -292 q 33 -343 49 -393 q 64 -444 98 -485 q 131 -527 187 -552 q 242 -577 321 -577 z"},"൩":{"ha":998,"x_min":34,"x_max":979,"o":"m 273 -577 l 273 -577 q 309 -577 336 -569 q 363 -562 386 -547 q 409 -532 432 -508 l 432 -508 l 417 -505 q 453 -544 493 -560 q 532 -577 586 -577 l 586 -577 q 660 -577 712 -542 q 763 -508 791 -447 q 818 -386 818 -305 l 818 -305 q 818 -254 810 -213 q 801 -172 782 -135 q 763 -98 732 -58 l 732 -58 l 720 0 l 657 0 l 596 -66 q 624 -111 640 -149 q 656 -187 662 -223 q 668 -260 668 -300 l 668 -300 q 668 -359 654 -395 q 640 -431 617 -448 q 594 -465 568 -465 l 568 -465 q 553 -465 543 -460 q 532 -455 524 -449 l 524 -449 q 511 -435 506 -411 q 500 -387 500 -342 l 500 -342 l 500 0 l 352 0 l 352 -343 q 352 -391 347 -413 q 342 -435 329 -449 l 329 -449 q 323 -456 312 -460 q 301 -465 285 -465 l 285 -465 q 261 -465 238 -449 q 215 -433 200 -396 q 184 -360 184 -300 l 184 -300 q 184 -257 193 -215 q 202 -174 219 -134 q 236 -94 262 -55 l 262 -55 l 145 13 q 111 -34 86 -83 q 61 -133 48 -187 q 34 -241 34 -303 l 34 -303 q 34 -381 61 -443 q 88 -505 142 -541 q 195 -577 273 -577 z m 690 0 l 737 -112 l 979 -112 l 979 0 l 690 0 z"},"൪":{"ha":752,"x_min":34,"x_max":747,"o":"m 349 -577 l 349 -577 q 427 -577 484 -553 q 540 -530 586 -487 l 586 -487 q 638 -438 664 -372 q 690 -306 690 -230 l 690 -230 q 690 -152 667 -98 q 643 -44 595 -16 q 547 12 473 12 l 473 12 q 406 12 361 -15 q 315 -42 292 -87 q 269 -132 269 -187 l 269 -187 q 269 -251 295 -299 q 320 -348 370 -392 q 420 -437 495 -487 l 495 -487 q 537 -517 560 -536 q 582 -555 591 -574 q 599 -594 599 -621 l 599 -621 q 599 -639 594 -657 q 588 -676 578 -688 l 578 -688 l 711 -748 q 727 -722 737 -692 q 747 -662 747 -628 l 747 -628 q 747 -580 729 -543 q 710 -506 671 -472 q 631 -438 567 -397 l 567 -397 q 519 -363 485 -329 q 451 -296 434 -260 q 416 -225 416 -183 l 416 -183 q 416 -146 430 -122 q 444 -98 474 -98 l 474 -98 q 498 -98 513 -110 q 527 -123 534 -148 q 540 -174 540 -213 l 540 -213 q 540 -273 521 -331 q 502 -389 461 -425 l 461 -425 q 441 -444 415 -455 q 389 -467 355 -467 l 355 -467 q 301 -467 264 -446 q 226 -425 206 -385 q 186 -346 186 -290 l 186 -290 q 186 -242 196 -202 q 205 -162 224 -126 q 243 -91 269 -55 l 269 -55 l 157 14 q 122 -25 94 -70 q 66 -115 50 -169 q 34 -224 34 -292 l 34 -292 q 34 -346 52 -397 q 69 -449 107 -489 q 144 -529 204 -553 q 264 -577 349 -577 z"},"൫":{"ha":967,"x_min":39,"x_max":928,"o":"m 490 -731 l 490 -731 q 601 -731 684 -698 q 766 -665 821 -605 q 875 -545 902 -464 q 928 -383 928 -287 l 928 -287 q 928 -217 915 -140 q 902 -63 871 12 l 871 12 l 745 -34 q 760 -73 769 -113 q 777 -153 781 -194 q 785 -235 785 -278 l 785 -278 q 785 -355 767 -417 q 748 -480 712 -524 q 675 -569 620 -593 q 565 -617 492 -617 l 492 -617 q 402 -617 332 -578 q 262 -540 222 -460 q 182 -381 182 -259 l 182 -259 q 182 -191 195 -132 q 208 -74 236 -29 q 264 15 308 40 q 351 64 411 64 l 411 64 q 495 64 533 28 q 571 -9 571 -72 l 571 -72 q 571 -107 561 -134 q 551 -161 529 -176 q 507 -191 474 -191 l 474 -191 l 465 -191 l 465 -300 l 473 -300 q 501 -300 517 -303 q 532 -307 542 -314 l 542 -314 q 554 -322 560 -335 q 566 -348 566 -368 l 566 -368 q 566 -397 550 -413 q 534 -430 503 -430 l 503 -430 q 470 -430 448 -409 q 425 -389 414 -351 q 402 -314 402 -263 l 402 -263 q 402 -205 417 -152 q 431 -99 456 -46 l 456 -46 l 328 6 q 294 -58 274 -125 q 253 -193 253 -271 l 253 -271 q 253 -353 285 -414 q 316 -475 374 -509 q 431 -543 509 -543 l 509 -543 q 577 -543 623 -521 q 668 -499 691 -461 q 714 -423 714 -375 l 714 -375 q 714 -348 705 -322 q 696 -296 676 -275 q 655 -254 618 -238 l 618 -238 l 608 -255 q 655 -235 688 -185 q 720 -135 720 -66 l 720 -66 q 720 14 684 69 q 647 123 580 150 q 512 177 419 177 l 419 177 q 299 177 214 127 q 129 76 84 -20 q 39 -116 39 -253 l 39 -253 q 39 -374 75 -464 q 110 -555 173 -614 q 235 -673 317 -702 q 398 -731 490 -731 z"},"൬":{"ha":1137,"x_min":34,"x_max":1098,"o":"m 562 -577 l 562 -577 q 611 -577 649 -559 q 686 -541 718 -502 l 718 -502 l 784 -310 l 784 0 l 635 0 l 635 -336 q 635 -379 631 -404 q 626 -429 613 -444 l 613 -444 q 604 -454 592 -459 q 580 -465 563 -465 l 563 -465 q 548 -465 535 -459 q 522 -453 512 -443 l 512 -443 q 500 -428 495 -404 q 489 -380 489 -331 l 489 -331 l 489 0 l 341 0 l 341 -346 q 341 -390 337 -411 q 333 -433 321 -448 l 321 -448 q 315 -455 305 -460 q 294 -465 278 -465 l 278 -465 q 256 -465 234 -448 q 212 -432 198 -396 q 184 -360 184 -300 l 184 -300 q 184 -257 193 -215 q 201 -174 219 -134 q 236 -95 262 -56 l 262 -56 l 144 12 q 110 -36 85 -84 q 60 -133 47 -187 q 34 -241 34 -303 l 34 -303 q 34 -380 61 -442 q 87 -505 139 -541 q 191 -577 266 -577 l 266 -577 q 318 -577 354 -560 q 390 -543 423 -507 l 423 -507 l 402 -496 q 434 -538 474 -557 q 513 -577 562 -577 z m 867 -577 l 867 -577 q 981 -577 1040 -490 q 1098 -403 1098 -232 l 1098 -232 q 1098 -87 1066 9 q 1034 105 960 153 q 885 201 757 201 l 757 201 q 734 201 708 199 q 682 197 656 193 l 656 193 l 665 80 q 683 84 704 86 q 724 87 745 87 l 745 87 q 809 87 849 64 q 889 40 911 -2 q 932 -45 940 -102 q 947 -160 947 -229 l 947 -229 q 947 -302 937 -355 q 926 -408 905 -436 q 884 -465 853 -465 l 853 -465 q 837 -465 827 -460 q 816 -456 807 -448 l 807 -448 q 793 -432 789 -405 q 784 -378 784 -330 l 784 -330 l 784 -10 l 644 -10 l 644 -314 l 700 -502 q 735 -541 774 -559 q 813 -577 867 -577 z"},"൭":{"ha":708,"x_min":34,"x_max":671,"o":"m 362 -577 l 362 -577 q 444 -577 503 -549 q 561 -522 599 -472 q 636 -422 654 -355 q 671 -289 671 -210 l 671 -210 q 671 -109 650 -32 q 628 44 585 96 q 541 148 475 175 q 409 201 321 201 l 321 201 q 293 201 265 199 q 237 197 210 192 l 210 192 l 221 79 q 240 84 262 86 q 283 87 304 87 l 304 87 q 364 87 406 66 q 447 44 472 5 q 497 -35 508 -90 q 519 -145 519 -210 l 519 -210 q 519 -337 474 -400 q 428 -464 348 -464 l 348 -464 q 293 -464 253 -435 q 212 -406 190 -355 q 168 -305 168 -239 l 168 -239 l 168 -232 q 168 -176 176 -146 q 184 -117 198 -106 q 212 -96 228 -96 l 228 -96 q 242 -96 252 -103 q 261 -110 266 -126 q 271 -142 271 -169 l 271 -169 q 271 -210 260 -228 q 248 -246 222 -246 l 222 -246 q 195 -246 171 -227 q 147 -209 116 -167 l 116 -167 l 99 -274 q 126 -303 167 -327 q 208 -351 261 -351 l 261 -351 q 312 -351 346 -329 q 380 -308 397 -269 q 414 -230 414 -178 l 414 -178 q 414 -118 393 -76 q 372 -34 333 -11 q 293 12 234 12 l 234 12 q 179 12 134 -13 q 88 -38 61 -93 q 34 -148 34 -238 l 34 -238 q 34 -339 73 -415 q 112 -492 185 -534 q 258 -577 362 -577 z"},"൮":{"ha":902,"x_min":33,"x_max":848,"o":"m 321 -577 l 321 -577 q 400 -577 455 -553 q 509 -530 542 -490 q 575 -450 590 -400 q 604 -351 604 -299 l 604 -299 q 604 -240 591 -194 q 577 -148 553 -108 q 529 -68 496 -28 l 496 -28 l 536 -112 l 699 -112 l 699 -565 l 848 -565 l 848 -172 l 778 0 l 441 0 l 378 -70 q 398 -98 416 -130 q 433 -162 443 -201 q 453 -241 453 -289 l 453 -289 q 453 -342 438 -381 q 422 -420 393 -441 q 364 -463 324 -463 l 324 -463 q 282 -463 252 -442 q 221 -422 204 -383 q 187 -344 187 -290 l 187 -290 q 187 -242 197 -202 q 207 -163 226 -127 q 244 -91 270 -55 l 270 -55 l 157 14 q 121 -25 93 -69 q 65 -114 49 -169 q 33 -224 33 -292 l 33 -292 q 33 -343 49 -393 q 64 -444 98 -485 q 131 -527 187 -552 q 242 -577 321 -577 z m 544 201 l 544 201 q 517 201 488 198 q 458 195 433 189 l 433 189 l 449 78 q 466 82 488 85 q 510 87 530 87 l 530 87 q 583 87 616 75 q 649 63 667 42 q 685 21 692 -5 q 699 -32 700 -61 l 700 -61 l 848 -282 l 848 -128 q 848 -58 840 -8 q 832 42 814 77 q 795 111 764 138 l 764 138 q 728 168 674 185 q 620 201 544 201 z"},"൯":{"ha":1052,"x_min":34,"x_max":1047,"o":"m 275 -577 l 275 -577 q 311 -577 340 -569 q 368 -562 394 -545 q 420 -528 448 -501 l 448 -501 l 500 -230 l 500 0 l 352 0 l 352 -344 q 352 -390 347 -412 q 342 -435 329 -449 l 329 -449 q 323 -456 312 -460 q 301 -465 285 -465 l 285 -465 q 261 -465 238 -449 q 215 -433 200 -396 q 184 -360 184 -300 l 184 -300 q 184 -257 193 -215 q 202 -174 219 -134 q 236 -94 262 -55 l 262 -55 l 145 13 q 111 -34 86 -83 q 61 -133 48 -187 q 34 -241 34 -303 l 34 -303 q 34 -381 61 -443 q 88 -505 142 -541 q 196 -577 275 -577 z m 638 -577 l 638 -577 q 722 -577 781 -553 q 839 -529 886 -484 l 886 -484 q 937 -435 964 -370 q 990 -306 990 -230 l 990 -230 q 990 -152 967 -98 q 943 -44 895 -16 q 847 12 773 12 l 773 12 q 705 12 660 -15 q 614 -42 591 -87 q 568 -132 568 -187 l 568 -187 q 568 -251 594 -299 q 620 -348 670 -392 q 720 -437 794 -487 l 794 -487 q 836 -517 859 -536 q 881 -555 890 -574 q 899 -594 899 -621 l 899 -621 q 899 -639 893 -657 q 887 -676 878 -688 l 878 -688 l 1011 -748 q 1027 -722 1037 -692 q 1047 -662 1047 -628 l 1047 -628 q 1047 -580 1029 -543 q 1010 -506 971 -472 q 931 -438 867 -397 l 867 -397 q 819 -363 785 -329 q 751 -296 734 -260 q 716 -225 716 -183 l 716 -183 q 716 -146 730 -122 q 743 -98 774 -98 l 774 -98 q 798 -98 812 -110 q 826 -123 833 -148 q 839 -174 839 -213 l 839 -213 q 839 -276 819 -332 q 799 -388 758 -424 l 758 -424 q 738 -443 710 -455 q 682 -467 638 -467 l 638 -467 q 612 -467 589 -461 q 566 -455 548 -440 l 548 -440 q 531 -427 520 -407 q 509 -387 505 -356 q 500 -325 500 -278 l 500 -278 l 500 -19 l 360 -19 l 360 -308 l 398 -467 q 424 -498 455 -523 q 486 -548 530 -562 q 574 -577 638 -577 z"},"൰":{"ha":960,"x_min":-27,"x_max":926,"o":"m 163 -565 l 312 -565 l 312 -162 l 308 -124 q 308 -39 296 19 q 283 77 253 119 l 253 119 q 226 157 178 179 q 129 201 60 201 l 60 201 q 38 201 16 199 q -7 197 -27 192 l -27 192 l -16 80 q -5 83 10 85 q 25 87 40 87 l 40 87 q 74 87 95 79 q 116 70 130 56 l 130 56 q 150 34 157 -2 q 163 -38 163 -101 l 163 -101 l 163 -565 z m 693 12 l 693 12 q 643 12 604 -4 q 564 -21 529 -59 l 529 -59 l 551 -70 q 517 -27 482 -7 q 446 12 397 12 l 397 12 q 360 12 333 2 q 306 -8 285 -27 q 264 -46 245 -73 l 245 -73 l 186 -258 l 188 -559 l 312 -538 l 312 -231 q 312 -184 317 -160 q 322 -136 335 -121 l 335 -121 q 344 -111 357 -106 q 369 -101 388 -101 l 388 -101 q 405 -101 418 -106 q 431 -112 440 -122 l 440 -122 q 453 -137 459 -161 q 464 -185 464 -235 l 464 -235 l 464 -565 l 613 -565 l 613 -234 q 613 -182 616 -157 q 619 -132 633 -118 l 633 -118 q 642 -109 654 -105 q 666 -101 678 -101 l 678 -101 q 704 -101 726 -118 q 748 -135 762 -172 q 776 -209 776 -266 l 776 -266 q 776 -310 768 -350 q 759 -391 742 -431 q 725 -471 698 -509 l 698 -509 l 815 -577 q 851 -530 876 -481 q 900 -432 913 -377 q 926 -323 926 -260 l 926 -260 q 926 -183 900 -121 q 873 -59 822 -23 q 770 12 693 12 z"},"൱":{"ha":859,"x_min":34,"x_max":820,"o":"m 275 -577 l 275 -577 q 311 -577 338 -569 q 365 -562 390 -545 q 415 -529 443 -501 l 443 -501 l 500 -230 l 500 0 l 352 0 l 352 -344 q 352 -390 347 -412 q 342 -435 329 -449 l 329 -449 q 323 -456 312 -460 q 301 -465 285 -465 l 285 -465 q 261 -465 238 -449 q 215 -433 200 -396 q 184 -360 184 -300 l 184 -300 q 184 -257 193 -215 q 202 -174 219 -134 q 236 -94 262 -55 l 262 -55 l 145 13 q 111 -34 86 -83 q 61 -133 48 -187 q 34 -241 34 -303 l 34 -303 q 34 -381 61 -443 q 88 -505 142 -541 q 196 -577 275 -577 z m 585 -577 l 585 -577 q 663 -577 715 -538 q 767 -500 794 -423 q 820 -346 820 -232 l 820 -232 q 820 -87 788 9 q 756 105 681 153 q 606 201 479 201 l 479 201 q 455 201 429 199 q 403 197 376 193 l 376 193 l 386 80 q 403 84 424 86 q 445 87 467 87 l 467 87 q 531 87 571 64 q 611 40 632 -2 q 653 -45 661 -103 q 669 -161 669 -229 l 669 -229 q 669 -303 658 -355 q 647 -408 626 -436 q 604 -465 572 -465 l 572 -465 q 556 -465 545 -460 q 533 -456 525 -448 l 525 -448 q 510 -433 505 -406 q 500 -380 500 -331 l 500 -331 l 500 -10 l 361 -10 l 361 -310 l 417 -502 q 453 -541 492 -559 q 531 -577 585 -577 z"},"൲":{"ha":1339,"x_min":34,"x_max":1320,"o":"m 1148 -565 l 1148 -565 q 1211 -565 1249 -543 q 1286 -521 1303 -485 q 1320 -450 1320 -410 l 1320 -410 q 1320 -366 1305 -333 q 1289 -301 1262 -281 l 1262 -281 q 1240 -265 1216 -256 q 1192 -247 1159 -243 q 1126 -239 1079 -239 l 1079 -239 l 889 -239 l 889 -351 l 1093 -351 q 1125 -351 1142 -354 q 1158 -358 1166 -364 l 1166 -364 q 1177 -371 1182 -381 q 1187 -391 1187 -410 l 1187 -410 q 1187 -431 1176 -443 q 1165 -456 1148 -456 l 1148 -456 q 1126 -456 1116 -440 q 1105 -425 1105 -400 l 1105 -400 q 1105 -368 1116 -345 q 1127 -323 1142 -305 l 1142 -305 l 1012 -298 q 997 -318 987 -349 q 977 -381 977 -410 l 977 -410 q 977 -462 1000 -496 q 1022 -530 1061 -547 q 1100 -565 1148 -565 z m 275 -577 l 275 -577 q 311 -577 339 -569 q 367 -562 393 -545 q 419 -528 447 -501 l 447 -501 l 500 -227 l 500 0 l 352 0 l 352 -344 q 352 -390 347 -412 q 342 -435 330 -449 l 330 -449 q 323 -456 312 -460 q 301 -465 285 -465 l 285 -465 q 261 -465 238 -449 q 215 -433 200 -396 q 185 -360 185 -300 l 185 -300 q 185 -257 194 -215 q 202 -174 220 -134 q 237 -94 263 -55 l 263 -55 l 145 13 q 111 -34 86 -83 q 61 -133 48 -187 q 34 -241 34 -303 l 34 -303 q 34 -381 61 -443 q 88 -505 142 -541 q 196 -577 275 -577 z m 629 -577 l 629 -577 q 701 -577 759 -552 q 816 -527 857 -481 q 898 -436 920 -372 q 942 -309 942 -232 l 942 -232 q 942 -145 917 -91 q 892 -37 846 -12 q 800 12 733 12 l 733 12 q 664 12 623 -13 q 582 -38 565 -77 q 547 -116 547 -159 l 547 -159 q 547 -211 568 -249 q 589 -288 627 -312 l 627 -312 q 648 -326 675 -334 q 702 -343 738 -347 q 773 -351 820 -351 l 820 -351 l 1042 -351 l 1042 -239 l 824 -239 q 778 -239 755 -234 q 732 -230 717 -219 l 717 -219 q 704 -209 698 -193 q 691 -178 691 -158 l 691 -158 q 691 -134 702 -117 q 713 -101 737 -101 l 737 -101 q 754 -101 767 -113 q 780 -125 788 -152 q 795 -180 795 -227 l 795 -227 q 795 -242 795 -256 q 794 -271 793 -284 l 793 -284 l 786 -321 q 780 -358 762 -390 q 743 -423 711 -443 q 679 -464 631 -464 l 631 -464 q 608 -464 587 -458 q 565 -453 545 -437 l 545 -437 q 529 -424 520 -405 q 510 -386 505 -355 q 500 -325 500 -278 l 500 -278 l 500 -199 l 417 -235 l 409 -478 q 431 -505 461 -528 q 491 -551 532 -564 q 573 -577 629 -577 z"},"൳":{"ha":680,"x_min":34,"x_max":658,"o":"m 232 12 l 232 12 q 174 12 130 -14 q 85 -40 60 -93 q 34 -146 34 -227 l 34 -227 q 34 -307 61 -366 q 88 -426 141 -463 l 141 -463 q 177 -489 219 -503 q 261 -518 317 -524 q 372 -531 447 -531 l 447 -531 l 658 -531 l 658 -416 l 450 -416 q 393 -416 353 -412 q 313 -409 286 -401 q 258 -393 236 -380 l 236 -380 q 211 -366 196 -344 q 180 -323 172 -299 l 172 -299 l 170 -264 q 169 -255 168 -244 q 167 -234 167 -221 l 167 -221 q 167 -171 176 -144 q 184 -117 198 -106 q 211 -96 226 -96 l 226 -96 q 241 -96 251 -103 q 260 -110 266 -126 q 271 -143 271 -169 l 271 -169 q 271 -210 259 -228 q 247 -246 221 -246 l 221 -246 q 195 -246 171 -227 q 146 -209 115 -167 l 115 -167 l 93 -268 q 120 -301 163 -326 q 206 -351 260 -351 l 260 -351 q 311 -351 345 -329 q 379 -308 396 -269 q 413 -230 413 -178 l 413 -178 q 413 -118 393 -75 q 372 -32 332 -10 q 292 12 232 12 z"},"൴":{"ha":890,"x_min":34,"x_max":856,"o":"m 443 -789 l 591 -789 l 591 -207 q 591 -181 593 -162 q 595 -143 600 -130 q 604 -118 611 -110 l 611 -110 q 618 -104 627 -101 q 635 -98 647 -98 l 647 -98 q 664 -98 678 -109 q 691 -120 698 -146 q 705 -172 705 -217 l 705 -217 q 705 -264 694 -305 q 682 -346 660 -378 q 637 -411 604 -433 q 570 -456 527 -465 l 527 -465 l 493 -463 q 480 -464 467 -465 q 454 -466 440 -466 l 440 -466 q 383 -466 334 -452 q 284 -439 247 -411 q 209 -383 188 -341 q 167 -299 167 -242 l 167 -242 l 167 -227 q 167 -173 175 -144 q 183 -116 197 -106 q 211 -96 227 -96 l 227 -96 q 241 -96 251 -103 q 260 -110 266 -126 q 271 -143 271 -170 l 271 -170 q 271 -210 259 -228 q 247 -246 221 -246 l 221 -246 q 195 -246 171 -227 q 146 -209 115 -167 l 115 -167 l 93 -268 q 121 -301 164 -326 q 206 -351 260 -351 l 260 -351 q 311 -351 345 -329 q 379 -308 396 -269 q 413 -231 413 -178 l 413 -178 q 413 -118 393 -76 q 372 -34 332 -11 q 291 12 233 12 l 233 12 q 178 12 133 -13 q 88 -38 61 -91 q 34 -145 34 -232 l 34 -232 q 34 -317 64 -381 q 93 -446 148 -489 q 202 -533 277 -555 q 352 -577 442 -577 l 442 -577 q 461 -577 478 -577 q 495 -577 511 -575 l 511 -575 l 549 -572 q 608 -564 663 -538 q 718 -513 762 -469 q 805 -425 831 -363 q 856 -302 856 -222 l 856 -222 q 856 -152 832 -99 q 808 -46 761 -17 q 714 12 645 12 l 645 12 q 598 12 564 0 q 529 -12 505 -34 l 505 -34 q 482 -55 468 -83 q 454 -112 449 -151 q 443 -191 443 -246 l 443 -246 l 443 -789 z"},"൵":{"ha":1170,"x_min":34,"x_max":1166,"o":"m 349 -577 l 349 -577 q 424 -577 476 -554 q 528 -531 570 -478 l 570 -478 l 592 -386 l 619 -226 l 619 0 l 471 0 l 471 -289 q 471 -356 462 -388 q 453 -420 434 -437 l 434 -437 q 420 -450 400 -457 q 380 -464 348 -464 l 348 -464 q 299 -464 258 -440 q 217 -417 193 -367 q 168 -318 168 -241 l 168 -241 l 168 -234 q 168 -177 176 -147 q 184 -117 198 -106 q 212 -96 227 -96 l 227 -96 q 242 -96 252 -103 q 261 -111 266 -127 q 271 -143 271 -170 l 271 -170 q 271 -210 259 -228 q 247 -246 222 -246 l 222 -246 q 196 -246 172 -228 q 148 -210 118 -170 l 118 -170 l 98 -274 q 126 -303 168 -327 q 210 -351 262 -351 l 262 -351 q 312 -351 346 -329 q 380 -308 397 -269 q 414 -230 414 -178 l 414 -178 q 414 -117 393 -74 q 372 -32 332 -10 q 291 12 232 12 l 232 12 q 178 12 133 -13 q 88 -38 61 -94 q 34 -151 34 -244 l 34 -244 q 34 -354 75 -428 q 116 -503 188 -540 q 259 -577 349 -577 z m 757 -577 l 757 -577 q 842 -577 900 -553 q 958 -529 1005 -484 l 1005 -484 q 1056 -435 1083 -370 q 1109 -306 1109 -230 l 1109 -230 q 1109 -152 1086 -98 q 1062 -44 1014 -16 q 966 12 893 12 l 893 12 q 824 12 779 -15 q 733 -42 710 -87 q 687 -132 687 -187 l 687 -187 q 687 -251 713 -299 q 739 -348 789 -392 q 839 -437 913 -487 l 913 -487 q 955 -517 978 -536 q 1000 -555 1009 -574 q 1018 -594 1018 -621 l 1018 -621 q 1018 -639 1012 -657 q 1006 -676 997 -688 l 997 -688 l 1130 -748 q 1146 -722 1156 -692 q 1166 -662 1166 -628 l 1166 -628 q 1166 -580 1148 -543 q 1129 -506 1090 -472 q 1050 -438 987 -397 l 987 -397 q 938 -363 904 -329 q 870 -296 853 -260 q 835 -225 835 -183 l 835 -183 q 835 -146 849 -122 q 862 -98 893 -98 l 893 -98 q 917 -98 931 -110 q 945 -123 952 -148 q 958 -174 958 -213 l 958 -213 q 958 -276 939 -332 q 919 -388 877 -424 l 877 -424 q 857 -443 829 -455 q 801 -467 758 -467 l 758 -467 q 731 -467 708 -461 q 685 -455 667 -440 l 667 -440 q 650 -427 639 -407 q 628 -387 624 -356 q 619 -325 619 -278 l 619 -278 l 619 -19 l 479 -19 l 479 -308 l 517 -467 q 543 -498 574 -523 q 605 -548 649 -562 q 693 -577 757 -577 z"},"൶":{"ha":1267,"x_min":27,"x_max":1219,"o":"m 235 -367 l 235 -367 q 309 -367 354 -339 q 398 -311 419 -268 q 439 -226 439 -180 l 439 -180 q 439 -150 430 -122 q 420 -94 410 -73 l 410 -73 l 403 -112 l 648 -112 l 669 0 l 318 0 l 269 -65 q 279 -82 288 -108 q 296 -135 296 -170 l 296 -170 q 296 -206 283 -230 q 269 -255 237 -255 l 237 -255 q 216 -255 202 -244 q 188 -234 182 -214 q 175 -195 175 -172 l 175 -172 q 175 -128 188 -98 q 201 -69 216 -41 l 216 -41 l 96 12 q 65 -29 46 -74 q 27 -119 27 -177 l 27 -177 q 27 -235 53 -277 q 79 -319 126 -343 q 172 -367 235 -367 z m 903 -577 l 903 -577 q 987 -577 1045 -557 q 1103 -538 1141 -503 l 1141 -503 q 1168 -478 1185 -445 q 1202 -412 1211 -366 q 1219 -321 1219 -257 l 1219 -257 l 1219 0 l 601 0 l 601 -258 q 601 -323 610 -369 q 619 -415 637 -448 q 655 -481 682 -505 l 682 -505 q 719 -540 773 -558 q 826 -577 903 -577 z m 826 -460 l 826 -460 q 808 -460 794 -449 q 780 -438 769 -419 l 769 -419 q 759 -399 754 -368 q 748 -338 748 -284 l 748 -284 l 748 -67 l 716 -69 q 759 -117 794 -171 q 828 -225 849 -281 q 869 -337 869 -391 l 869 -391 q 869 -414 865 -429 q 861 -444 852 -452 q 842 -460 826 -460 z m 1015 -361 l 1015 -361 q 1015 -316 1002 -273 q 989 -230 965 -188 q 941 -146 908 -102 l 908 -102 l 891 -107 q 910 -110 934 -110 q 957 -111 972 -111 l 972 -111 l 1072 -111 l 1072 -274 q 1072 -335 1062 -373 q 1051 -412 1029 -436 q 1007 -460 972 -474 l 972 -474 l 973 -478 q 991 -459 1003 -429 q 1015 -399 1015 -361 z"},"൷":{"ha":1646,"x_min":27,"x_max":1626,"o":"m 235 -367 l 235 -367 q 309 -367 354 -339 q 398 -311 419 -268 q 439 -226 439 -180 l 439 -180 q 439 -150 430 -122 q 420 -94 410 -73 l 410 -73 l 402 -112 l 621 -112 l 671 0 l 318 0 l 269 -65 q 279 -82 288 -108 q 296 -135 296 -170 l 296 -170 q 296 -206 283 -230 q 269 -255 237 -255 l 237 -255 q 216 -255 202 -244 q 188 -234 182 -214 q 175 -195 175 -172 l 175 -172 q 175 -128 188 -98 q 201 -69 216 -41 l 216 -41 l 96 12 q 65 -29 46 -74 q 27 -119 27 -177 l 27 -177 q 27 -235 53 -277 q 79 -319 126 -343 q 172 -367 235 -367 z m 756 -577 l 756 -577 q 793 -577 821 -569 q 849 -562 875 -545 q 900 -528 928 -501 l 928 -501 l 982 -294 l 982 -231 l 833 -231 l 833 -344 q 833 -390 829 -412 q 824 -435 811 -449 l 811 -449 q 805 -456 794 -460 q 782 -465 766 -465 l 766 -465 q 742 -465 719 -449 q 696 -433 681 -397 q 666 -361 666 -302 l 666 -302 q 666 -240 683 -182 q 700 -125 736 -67 l 736 -67 l 676 0 l 602 0 l 574 -90 q 555 -122 542 -154 q 529 -187 523 -224 q 516 -261 516 -304 l 516 -304 q 516 -382 543 -443 q 570 -505 624 -541 q 677 -577 756 -577 z m 1120 -577 l 1120 -577 q 1193 -577 1252 -552 q 1310 -527 1352 -481 q 1393 -435 1416 -372 q 1438 -309 1438 -232 l 1438 -232 q 1438 -145 1413 -91 q 1388 -37 1342 -12 q 1295 12 1229 12 l 1229 12 q 1160 12 1119 -13 q 1078 -38 1061 -77 q 1043 -116 1043 -159 l 1043 -159 q 1043 -211 1064 -249 q 1085 -288 1122 -312 l 1122 -312 q 1144 -326 1171 -334 q 1198 -343 1234 -347 q 1269 -351 1315 -351 l 1315 -351 l 1384 -351 l 1384 -239 l 1320 -239 q 1274 -239 1251 -234 q 1228 -230 1213 -219 l 1213 -219 q 1199 -209 1193 -193 q 1187 -178 1187 -158 l 1187 -158 q 1187 -134 1198 -117 q 1209 -101 1232 -101 l 1232 -101 q 1250 -101 1263 -113 q 1276 -125 1283 -152 q 1290 -180 1290 -227 l 1290 -227 q 1290 -242 1290 -256 q 1290 -271 1288 -284 l 1288 -284 l 1282 -321 q 1275 -358 1256 -390 q 1237 -423 1204 -443 q 1171 -464 1119 -464 l 1119 -464 q 1090 -464 1069 -459 q 1047 -454 1027 -437 l 1027 -437 q 1012 -424 1002 -405 q 991 -386 987 -355 q 982 -325 982 -278 l 982 -278 l 982 -245 l 898 -236 l 892 -480 q 914 -508 945 -530 q 976 -552 1019 -564 q 1062 -577 1120 -577 z m 1472 -448 l 1614 -476 q 1619 -462 1623 -441 q 1626 -421 1626 -400 l 1626 -400 q 1626 -360 1613 -330 q 1600 -301 1575 -282 l 1575 -282 q 1545 -258 1504 -248 q 1462 -239 1394 -239 l 1394 -239 l 1361 -239 l 1361 -351 l 1384 -351 q 1410 -351 1428 -354 q 1446 -358 1457 -367 l 1457 -367 q 1468 -374 1473 -386 q 1478 -398 1478 -415 l 1478 -415 q 1478 -423 1476 -432 q 1474 -441 1472 -448 l 1472 -448 z"},"൸":{"ha":2037,"x_min":8,"x_max":1989,"o":"m 1298 -577 l 1298 -577 q 1324 -577 1347 -573 q 1370 -569 1391 -559 q 1411 -550 1431 -533 q 1451 -517 1470 -493 l 1470 -493 l 1438 -487 q 1464 -516 1499 -536 q 1533 -556 1577 -566 q 1620 -577 1673 -577 l 1673 -577 q 1757 -577 1815 -557 q 1873 -538 1911 -503 l 1911 -503 q 1938 -478 1956 -445 q 1973 -412 1981 -366 q 1989 -321 1989 -257 l 1989 -257 l 1989 0 l 1516 0 l 1516 -103 q 1548 -144 1576 -191 q 1604 -238 1622 -289 q 1639 -340 1639 -391 l 1639 -391 q 1639 -414 1635 -429 q 1631 -444 1622 -452 q 1612 -460 1596 -460 l 1596 -460 q 1579 -460 1565 -449 q 1550 -439 1539 -419 l 1539 -419 q 1529 -399 1524 -368 q 1519 -337 1519 -283 l 1519 -283 l 1519 -230 l 1372 -230 l 1372 -334 q 1372 -374 1369 -398 q 1365 -423 1354 -439 l 1354 -439 q 1347 -451 1334 -457 q 1321 -464 1302 -464 l 1302 -464 q 1283 -464 1271 -457 q 1258 -451 1251 -440 l 1251 -440 q 1240 -424 1236 -400 q 1232 -376 1232 -338 l 1232 -338 l 1232 -236 q 1232 -191 1226 -155 q 1220 -119 1207 -91 q 1193 -64 1172 -43 l 1172 -43 q 1147 -18 1108 -3 q 1068 12 1013 12 l 1013 12 q 956 12 917 -3 q 877 -18 852 -43 l 852 -43 q 831 -65 818 -92 q 804 -120 798 -155 q 792 -191 792 -235 l 792 -235 l 792 -336 q 792 -376 788 -399 q 784 -423 774 -439 l 774 -439 q 766 -451 754 -457 q 741 -464 722 -464 l 722 -464 q 703 -464 690 -457 q 677 -451 670 -440 l 670 -440 q 659 -424 656 -400 q 652 -376 652 -338 l 652 -338 l 652 -237 q 652 -164 637 -118 q 621 -72 591 -42 l 591 -42 q 564 -16 527 -2 q 490 12 441 12 l 441 12 q 383 12 344 -7 q 304 -27 275 -63 l 275 -63 l 293 -62 q 269 -35 244 -18 q 218 -2 191 5 q 163 12 130 12 l 130 12 q 94 12 66 5 q 37 -2 8 -18 l 8 -18 l 50 -121 q 69 -113 89 -107 q 109 -101 131 -101 l 131 -101 q 147 -101 161 -105 q 175 -109 186 -118 l 186 -118 q 201 -133 205 -158 q 209 -183 209 -234 l 209 -234 l 209 -562 l 357 -565 l 357 -227 q 357 -184 363 -160 q 368 -136 381 -122 l 381 -122 q 389 -112 402 -106 q 415 -101 430 -101 l 430 -101 q 447 -101 460 -106 q 473 -112 482 -124 l 482 -124 q 493 -138 498 -161 q 502 -184 502 -229 l 502 -229 l 502 -329 q 502 -375 509 -410 q 515 -446 528 -474 q 541 -502 561 -522 l 561 -522 q 587 -547 626 -562 q 665 -577 720 -577 l 720 -577 q 776 -577 816 -562 q 856 -547 882 -522 l 882 -522 q 902 -502 916 -474 q 929 -446 936 -410 q 942 -375 942 -330 l 942 -330 l 942 -232 q 942 -191 946 -166 q 949 -142 960 -126 l 960 -126 q 967 -114 980 -107 q 993 -101 1012 -101 l 1012 -101 q 1031 -101 1044 -107 q 1056 -114 1064 -126 l 1064 -126 q 1074 -141 1078 -165 q 1082 -190 1082 -229 l 1082 -229 l 1082 -329 q 1082 -375 1088 -410 q 1094 -446 1108 -474 q 1121 -502 1142 -522 l 1142 -522 q 1167 -547 1206 -562 q 1245 -577 1298 -577 z m 1785 -361 l 1785 -361 q 1785 -316 1772 -273 q 1759 -230 1735 -188 q 1711 -146 1678 -102 l 1678 -102 l 1661 -107 q 1680 -110 1704 -110 q 1727 -111 1742 -111 l 1742 -111 l 1842 -111 l 1842 -274 q 1842 -335 1832 -373 q 1821 -412 1799 -436 q 1777 -460 1742 -474 l 1742 -474 l 1743 -478 q 1761 -459 1773 -429 q 1785 -399 1785 -361 z"},"൹":{"ha":1063,"x_min":34,"x_max":1041,"o":"m 275 -577 l 275 -577 q 311 -577 339 -569 q 367 -562 393 -545 q 418 -528 447 -501 l 447 -501 l 500 -227 l 500 0 l 352 0 l 352 -344 q 352 -390 347 -412 q 342 -435 329 -449 l 329 -449 q 323 -456 312 -460 q 301 -465 285 -465 l 285 -465 q 261 -465 238 -449 q 215 -433 200 -396 q 184 -360 184 -300 l 184 -300 q 184 -257 193 -215 q 202 -174 219 -134 q 236 -94 262 -55 l 262 -55 l 145 13 q 111 -34 86 -83 q 61 -133 48 -187 q 34 -241 34 -303 l 34 -303 q 34 -381 61 -443 q 88 -505 142 -541 q 196 -577 275 -577 z m 628 -577 l 628 -577 q 700 -577 758 -552 q 816 -527 857 -481 q 898 -436 920 -372 q 942 -309 942 -232 l 942 -232 q 942 -145 917 -91 q 892 -37 846 -12 q 799 12 733 12 l 733 12 q 664 12 623 -13 q 581 -38 564 -77 q 547 -116 547 -159 l 547 -159 q 547 -211 568 -249 q 589 -288 626 -312 l 626 -312 q 648 -326 675 -334 q 702 -343 738 -347 q 773 -351 820 -351 l 820 -351 l 1041 -351 l 1041 -239 l 824 -239 q 778 -239 755 -234 q 732 -230 717 -219 l 717 -219 q 703 -209 697 -193 q 690 -178 690 -158 l 690 -158 q 690 -134 702 -117 q 713 -101 737 -101 l 737 -101 q 754 -101 767 -113 q 780 -125 788 -152 q 795 -180 795 -227 l 795 -227 q 795 -242 795 -256 q 794 -271 792 -284 l 792 -284 l 786 -321 q 779 -358 761 -390 q 743 -423 711 -443 q 679 -464 631 -464 l 631 -464 q 608 -464 587 -458 q 565 -453 545 -437 l 545 -437 q 529 -424 519 -405 q 509 -386 505 -355 q 500 -325 500 -278 l 500 -278 l 500 -199 l 416 -235 l 408 -478 q 431 -505 461 -528 q 490 -551 532 -564 q 573 -577 628 -577 z"},"ൺ":{"ha":1433,"x_min":34,"x_max":1400,"o":"m 349 -577 l 349 -577 q 424 -577 476 -553 q 528 -530 571 -477 l 571 -477 l 529 -494 q 560 -536 602 -556 q 644 -577 696 -577 l 696 -577 q 751 -577 790 -556 q 829 -536 862 -494 l 862 -494 l 870 -442 l 919 -279 l 919 0 l 770 0 l 770 -334 q 770 -381 766 -405 q 761 -429 747 -444 l 747 -444 q 739 -454 726 -459 q 713 -465 694 -465 l 694 -465 q 678 -465 665 -459 q 652 -453 643 -443 l 643 -443 q 629 -428 624 -404 q 619 -381 619 -330 l 619 -330 l 619 0 l 471 0 l 471 -289 q 471 -356 462 -388 q 453 -420 434 -437 l 434 -437 q 420 -450 401 -457 q 381 -464 348 -464 l 348 -464 q 299 -464 258 -440 q 217 -417 193 -367 q 168 -318 168 -241 l 168 -241 l 168 -234 q 168 -177 176 -147 q 184 -117 198 -106 q 212 -96 227 -96 l 227 -96 q 242 -96 252 -103 q 261 -111 266 -127 q 271 -143 271 -170 l 271 -170 q 271 -210 259 -228 q 247 -246 222 -246 l 222 -246 q 196 -246 172 -228 q 148 -210 118 -170 l 118 -170 l 98 -274 q 126 -303 168 -327 q 210 -351 262 -351 l 262 -351 q 312 -351 346 -329 q 380 -308 397 -269 q 414 -230 414 -178 l 414 -178 q 414 -117 393 -74 q 372 -32 332 -10 q 291 12 232 12 l 232 12 q 178 12 133 -13 q 88 -38 61 -94 q 34 -151 34 -244 l 34 -244 q 34 -354 75 -428 q 116 -503 188 -540 q 259 -577 349 -577 z m 1193 12 l 1193 12 q 1125 12 1080 -15 q 1035 -42 1013 -93 q 990 -145 990 -217 l 990 -217 q 990 -266 1002 -311 q 1014 -357 1043 -402 q 1071 -447 1118 -492 l 1118 -492 l 1136 -529 q 1166 -560 1185 -586 q 1203 -612 1203 -641 l 1203 -641 q 1203 -662 1190 -675 q 1177 -689 1150 -689 l 1150 -689 q 1137 -689 1124 -687 q 1111 -685 1099 -682 l 1099 -682 l 1075 -785 q 1099 -793 1132 -797 q 1164 -801 1195 -801 l 1195 -801 q 1258 -801 1291 -780 q 1324 -760 1337 -728 q 1350 -696 1350 -663 l 1350 -663 q 1350 -612 1324 -565 q 1297 -518 1250 -469 l 1250 -469 l 1229 -447 q 1201 -417 1180 -379 q 1159 -342 1149 -299 q 1138 -256 1138 -213 l 1138 -213 q 1138 -176 1143 -150 q 1148 -125 1161 -111 q 1173 -98 1194 -98 l 1194 -98 q 1221 -98 1235 -123 q 1249 -148 1249 -214 l 1249 -214 q 1249 -260 1241 -303 q 1232 -346 1215 -381 q 1197 -416 1169 -437 l 1169 -437 q 1148 -451 1126 -459 q 1103 -468 1063 -468 l 1063 -468 q 1035 -468 1012 -462 q 988 -456 968 -441 l 968 -441 q 952 -428 941 -409 q 930 -390 925 -360 q 919 -331 919 -287 l 919 -287 l 919 -53 l 782 -53 l 782 -252 l 819 -467 q 844 -498 875 -523 q 906 -548 952 -562 q 998 -577 1063 -577 l 1063 -577 q 1107 -577 1144 -569 q 1181 -562 1213 -546 l 1213 -546 q 1220 -544 1227 -541 q 1233 -538 1240 -533 l 1240 -533 q 1290 -505 1326 -458 q 1362 -411 1381 -351 q 1400 -292 1400 -225 l 1400 -225 q 1400 -110 1349 -49 q 1298 12 1193 12 z"},"ൻ":{"ha":1015,"x_min":34,"x_max":981,"o":"m 273 -577 l 273 -577 q 310 -577 338 -570 q 365 -563 390 -547 q 414 -531 441 -505 l 441 -505 l 500 -259 l 500 0 l 352 0 l 352 -344 q 352 -390 347 -412 q 342 -435 329 -449 l 329 -449 q 323 -456 312 -460 q 301 -465 285 -465 l 285 -465 q 261 -465 238 -449 q 215 -433 200 -396 q 184 -360 184 -300 l 184 -300 q 184 -257 193 -215 q 202 -174 219 -134 q 236 -94 262 -55 l 262 -55 l 145 13 q 111 -34 86 -83 q 61 -133 48 -187 q 34 -241 34 -303 l 34 -303 q 34 -381 61 -443 q 88 -505 142 -541 q 195 -577 273 -577 z m 774 12 l 774 12 q 707 12 662 -15 q 616 -42 594 -93 q 571 -145 571 -217 l 571 -217 q 571 -266 584 -311 q 596 -357 625 -402 q 653 -447 700 -492 l 700 -492 l 718 -529 q 748 -560 766 -586 q 784 -612 784 -641 l 784 -641 q 784 -662 772 -675 q 759 -689 731 -689 l 731 -689 q 719 -689 706 -687 q 693 -685 681 -682 l 681 -682 l 656 -785 q 681 -793 713 -797 q 745 -801 777 -801 l 777 -801 q 839 -801 873 -780 q 906 -760 919 -728 q 931 -696 931 -663 l 931 -663 q 931 -612 905 -565 q 879 -518 832 -469 l 832 -469 l 811 -447 q 782 -417 761 -379 q 740 -342 730 -299 q 719 -256 719 -213 l 719 -213 q 719 -176 724 -150 q 729 -125 742 -111 q 754 -98 775 -98 l 775 -98 q 803 -98 817 -123 q 831 -148 831 -214 l 831 -214 q 831 -260 823 -303 q 814 -346 796 -381 q 778 -416 750 -437 l 750 -437 q 730 -451 707 -459 q 684 -468 645 -468 l 645 -468 q 617 -468 593 -462 q 569 -456 549 -441 l 549 -441 q 534 -428 523 -409 q 512 -390 506 -360 q 500 -331 500 -287 l 500 -287 l 500 -53 l 364 -53 l 364 -252 l 400 -467 q 426 -498 457 -523 q 488 -548 534 -562 q 579 -577 645 -577 l 645 -577 q 689 -577 726 -569 q 763 -562 795 -546 l 795 -546 q 801 -544 808 -541 q 815 -538 821 -533 l 821 -533 q 872 -505 908 -458 q 943 -411 962 -351 q 981 -292 981 -225 l 981 -225 q 981 -110 931 -49 q 880 12 774 12 z"},"ർ":{"ha":715,"x_min":34,"x_max":681,"o":"m 475 12 l 475 12 q 407 12 362 -15 q 316 -42 294 -93 q 271 -145 271 -217 l 271 -217 q 271 -266 284 -311 q 296 -357 325 -402 q 353 -447 400 -492 l 400 -492 l 418 -529 q 449 -560 467 -586 q 484 -612 484 -641 l 484 -641 q 484 -662 472 -675 q 459 -689 431 -689 l 431 -689 q 419 -689 406 -687 q 392 -685 381 -682 l 381 -682 l 356 -785 q 381 -793 413 -797 q 445 -801 477 -801 l 477 -801 q 539 -801 573 -780 q 606 -760 619 -728 q 631 -696 631 -663 l 631 -663 q 631 -612 605 -565 q 579 -518 532 -469 l 532 -469 l 511 -447 q 482 -417 461 -379 q 440 -342 430 -299 q 419 -256 419 -213 l 419 -213 q 419 -176 424 -150 q 429 -125 442 -111 q 455 -98 476 -98 l 476 -98 q 503 -98 517 -123 q 531 -148 531 -214 l 531 -214 q 531 -248 526 -281 q 521 -314 512 -344 q 502 -374 487 -398 q 471 -422 450 -437 l 450 -437 q 430 -451 410 -459 q 389 -468 351 -468 l 351 -468 q 298 -468 261 -447 q 224 -426 205 -386 q 186 -346 186 -290 l 186 -290 q 186 -242 196 -202 q 205 -162 224 -126 q 242 -91 269 -55 l 269 -55 l 157 14 q 121 -25 94 -69 q 66 -113 50 -168 q 34 -223 34 -292 l 34 -292 q 34 -345 51 -396 q 67 -447 104 -488 q 140 -529 200 -553 q 260 -577 346 -577 l 346 -577 q 390 -577 427 -569 q 463 -562 495 -547 l 495 -547 q 501 -544 508 -541 q 515 -538 521 -533 l 521 -533 q 572 -505 608 -458 q 643 -411 662 -351 q 681 -291 681 -225 l 681 -225 q 681 -109 631 -48 q 580 12 475 12 z"},"ൽ":{"ha":1166,"x_min":34,"x_max":1133,"o":"m 707 -577 l 707 -577 q 763 -577 804 -571 q 844 -566 876 -556 q 908 -546 937 -533 l 937 -533 l 973 -518 q 1053 -469 1093 -393 q 1133 -317 1133 -220 l 1133 -220 q 1133 -109 1083 -48 q 1032 12 926 12 l 926 12 q 858 12 813 -15 q 768 -42 746 -93 q 723 -145 723 -217 l 723 -217 q 723 -266 736 -311 q 748 -357 776 -402 q 804 -447 852 -492 l 852 -492 l 869 -528 q 900 -560 918 -586 q 936 -612 936 -641 l 936 -641 q 936 -662 923 -675 q 910 -689 883 -689 l 883 -689 q 871 -689 858 -687 q 844 -685 833 -682 l 833 -682 l 808 -785 q 832 -793 865 -797 q 897 -801 928 -801 l 928 -801 q 991 -801 1024 -780 q 1057 -760 1070 -728 q 1083 -696 1083 -663 l 1083 -663 q 1083 -612 1057 -565 q 1030 -518 983 -469 l 983 -469 l 963 -447 q 934 -417 913 -379 q 892 -342 882 -299 q 871 -256 871 -213 l 871 -213 q 871 -176 876 -150 q 881 -125 894 -111 q 907 -98 928 -98 l 928 -98 q 955 -98 969 -123 q 983 -148 983 -212 l 983 -212 q 983 -254 973 -295 q 962 -337 942 -370 q 921 -404 892 -425 l 892 -425 l 854 -438 q 823 -453 788 -459 q 752 -465 710 -465 l 710 -465 q 670 -465 633 -458 q 595 -452 565 -440 l 565 -440 l 536 -434 q 486 -403 457 -344 q 428 -285 428 -209 l 428 -209 q 428 -168 436 -144 q 444 -120 458 -110 q 471 -100 487 -100 l 487 -100 q 504 -100 518 -110 q 531 -120 539 -146 q 547 -173 547 -221 l 547 -221 q 547 -274 534 -319 q 520 -364 496 -397 q 472 -431 440 -450 l 440 -450 l 419 -457 q 405 -463 388 -466 q 370 -469 354 -469 l 354 -469 q 294 -469 257 -445 q 220 -422 203 -381 q 185 -340 185 -288 l 185 -288 q 185 -242 195 -203 q 205 -164 223 -128 q 241 -92 267 -57 l 267 -57 l 156 12 q 121 -27 94 -71 q 66 -115 50 -169 q 34 -224 34 -292 l 34 -292 q 34 -340 49 -390 q 63 -440 98 -483 q 133 -526 193 -551 q 252 -577 342 -577 l 342 -577 q 395 -577 439 -565 q 483 -554 522 -531 l 522 -531 l 540 -509 q 615 -463 655 -394 q 695 -325 695 -223 l 695 -223 q 695 -144 671 -91 q 647 -39 600 -13 q 553 12 485 12 l 485 12 q 420 12 374 -15 q 328 -42 304 -93 q 280 -145 280 -217 l 280 -217 q 280 -273 296 -323 q 311 -373 345 -414 q 379 -456 434 -488 l 434 -488 l 466 -522 q 510 -550 571 -563 q 632 -577 707 -577 z"},"ൾ":{"ha":999,"x_min":34,"x_max":966,"o":"m 763 -801 l 763 -801 q 826 -801 859 -780 q 891 -760 903 -728 q 915 -696 915 -663 l 915 -663 q 915 -612 889 -565 q 862 -518 816 -469 l 816 -469 l 795 -447 q 766 -417 746 -379 q 725 -342 714 -299 q 703 -256 703 -213 l 703 -213 q 703 -176 708 -150 q 713 -125 726 -111 q 739 -98 760 -98 l 760 -98 q 787 -98 801 -123 q 815 -148 815 -214 l 815 -214 q 815 -248 811 -280 q 806 -313 797 -343 q 787 -373 772 -397 q 757 -422 736 -438 l 736 -438 q 714 -452 693 -459 q 671 -467 635 -467 l 635 -467 q 607 -467 583 -459 q 558 -452 540 -439 l 540 -439 q 512 -417 502 -378 q 492 -339 492 -276 l 492 -276 l 492 -231 q 492 -189 487 -154 q 481 -119 469 -91 q 457 -64 436 -43 l 436 -43 q 408 -16 369 -2 q 329 12 274 12 l 274 12 q 197 12 144 -22 q 90 -56 62 -117 q 34 -178 34 -260 l 34 -260 q 34 -326 48 -381 q 62 -437 87 -485 q 112 -533 145 -578 l 145 -578 l 262 -511 q 237 -471 220 -432 q 202 -393 193 -352 q 184 -311 184 -264 l 184 -264 q 184 -204 197 -168 q 209 -133 229 -117 q 249 -101 273 -101 l 273 -101 q 291 -101 304 -107 q 316 -113 324 -125 l 324 -125 q 335 -140 339 -161 q 343 -182 343 -223 l 343 -223 l 343 -297 q 343 -383 367 -438 q 390 -494 435 -526 l 435 -526 q 472 -553 519 -565 q 565 -577 633 -577 l 633 -577 q 679 -577 713 -569 q 747 -562 779 -548 l 779 -548 l 806 -534 q 857 -505 893 -458 q 928 -412 947 -352 q 966 -292 966 -225 l 966 -225 q 966 -110 915 -49 q 864 12 759 12 l 759 12 q 691 12 646 -15 q 600 -42 578 -93 q 555 -145 555 -217 l 555 -217 q 555 -266 568 -311 q 580 -357 609 -402 q 637 -447 684 -492 l 684 -492 l 702 -529 q 732 -560 750 -586 q 768 -612 768 -641 l 768 -641 q 768 -662 756 -675 q 743 -689 715 -689 l 715 -689 q 703 -689 690 -687 q 677 -685 665 -682 l 665 -682 l 641 -785 q 665 -793 699 -797 q 732 -801 763 -801 z"},"ൿ":{"ha":1169,"x_min":27,"x_max":1141,"o":"m 498 -577 l 498 -577 q 583 -577 636 -541 q 688 -506 712 -440 q 736 -375 736 -285 l 736 -285 q 736 -185 709 -119 q 682 -53 629 -20 q 575 12 499 12 l 499 12 q 437 12 393 -9 q 348 -30 320 -67 l 320 -67 q 288 -108 274 -164 q 259 -221 259 -289 l 259 -289 q 259 -428 321 -502 q 383 -577 498 -577 z m 498 -466 l 498 -466 q 450 -466 428 -423 q 406 -380 406 -282 l 406 -282 q 406 -219 416 -178 q 425 -138 446 -119 q 466 -100 498 -100 l 498 -100 q 529 -100 549 -118 q 569 -137 580 -178 q 590 -219 590 -284 l 590 -284 q 590 -349 580 -388 q 570 -428 550 -447 q 530 -466 498 -466 z m 211 12 l 211 12 q 122 12 75 -34 q 27 -80 27 -162 l 27 -162 q 27 -217 51 -254 q 75 -291 115 -313 l 115 -313 q 140 -326 169 -334 q 197 -343 237 -347 q 276 -351 333 -351 l 333 -351 l 880 -351 q 944 -351 992 -340 q 1039 -330 1075 -302 l 1075 -302 q 1105 -280 1123 -245 q 1141 -211 1141 -162 l 1141 -162 q 1141 -84 1097 -36 q 1053 12 959 12 l 959 12 q 864 12 818 -37 q 772 -86 772 -161 l 772 -161 q 772 -193 779 -222 q 786 -252 799 -283 l 799 -283 q 802 -291 804 -299 q 805 -308 808 -316 l 808 -316 q 820 -344 836 -377 q 851 -410 872 -453 l 872 -453 q 896 -501 911 -535 q 926 -569 934 -594 q 942 -620 942 -641 l 942 -641 q 942 -662 929 -675 q 916 -689 888 -689 l 888 -689 q 877 -689 864 -687 q 850 -685 838 -682 l 838 -682 l 814 -785 q 839 -793 871 -797 q 903 -801 934 -801 l 934 -801 q 997 -801 1030 -780 q 1063 -760 1076 -728 q 1088 -697 1088 -665 l 1088 -665 q 1088 -641 1084 -616 q 1079 -591 1069 -562 q 1058 -534 1042 -499 q 1026 -464 1003 -418 l 1003 -418 q 985 -382 973 -355 q 960 -328 950 -306 l 950 -306 q 946 -296 943 -287 q 939 -278 936 -269 l 936 -269 q 923 -240 917 -216 q 910 -192 910 -164 l 910 -164 q 910 -144 916 -129 q 922 -115 933 -107 q 943 -100 956 -100 l 956 -100 q 978 -100 989 -114 q 1000 -129 1000 -155 l 1000 -155 q 1000 -178 993 -193 q 986 -209 973 -219 l 973 -219 q 957 -231 933 -235 q 908 -239 875 -239 l 875 -239 l 292 -239 q 256 -239 234 -235 q 212 -231 196 -221 l 196 -221 q 183 -211 175 -197 q 167 -184 167 -165 l 167 -165 q 167 -144 174 -129 q 180 -115 195 -107 q 210 -99 233 -99 l 233 -99 q 257 -99 279 -108 q 300 -118 323 -138 l 323 -138 l 385 -39 q 357 -19 330 -8 q 302 3 274 8 q 245 12 211 12 z"},"!":{"ha":293,"x_min":59,"x_max":233,"o":"m 210 -245 l 83 -245 l 59 -714 l 233 -714 l 210 -245 z m 146 13 l 146 13 q 107 13 83 -9 q 59 -31 59 -74 l 59 -74 q 59 -119 83 -141 q 106 -163 146 -163 l 146 -163 q 185 -163 209 -141 q 232 -120 232 -74 l 232 -74 q 232 -31 208 -9 q 184 13 146 13 z"},"\"":{"ha":479,"x_min":60,"x_max":419,"o":"m 190 -542 l 79 -542 l 60 -800 l 209 -800 l 190 -542 z m 401 -542 l 289 -542 l 271 -800 l 419 -800 l 401 -542 z"},"#":{"ha":588,"x_min":31,"x_max":558,"o":"m 186 0 l 78 0 l 114 -196 l 31 -196 l 31 -301 l 134 -301 l 156 -413 l 57 -413 l 57 -518 l 176 -518 l 213 -713 l 322 -713 l 285 -518 l 365 -518 l 403 -713 l 511 -713 l 473 -518 l 558 -518 l 558 -413 l 454 -413 l 431 -301 l 532 -301 l 532 -196 l 411 -196 l 374 0 l 265 0 l 302 -196 l 223 -196 l 186 0 z m 265 -413 l 243 -301 l 323 -301 l 345 -413 l 265 -413 z"},"%":{"ha":834,"x_min":29,"x_max":805,"o":"m 314 0 l 200 0 l 518 -714 l 633 -714 l 314 0 z m 184 -276 l 184 -276 q 107 -276 68 -336 q 29 -397 29 -500 l 29 -500 q 29 -605 67 -664 q 105 -724 186 -724 l 186 -724 q 264 -724 303 -664 q 342 -605 342 -501 l 342 -501 q 342 -395 304 -335 q 266 -276 184 -276 z m 186 -381 l 186 -381 q 204 -381 213 -408 q 221 -436 221 -500 l 221 -500 q 221 -564 213 -591 q 204 -619 186 -619 l 186 -619 q 167 -619 159 -591 q 150 -564 150 -500 l 150 -500 q 150 -436 159 -408 q 168 -381 186 -381 z m 647 8 l 647 8 q 569 8 531 -52 q 492 -113 492 -216 l 492 -216 q 492 -321 530 -380 q 568 -440 649 -440 l 649 -440 q 726 -440 766 -380 q 805 -321 805 -217 l 805 -217 q 805 -111 767 -51 q 728 8 647 8 z m 651 -96 l 651 -96 q 670 -96 679 -124 q 687 -152 687 -216 l 687 -216 q 687 -280 679 -307 q 670 -335 652 -335 l 652 -335 q 633 -335 625 -307 q 616 -280 616 -216 l 616 -216 q 616 -154 625 -125 q 634 -96 651 -96 z"},"'":{"ha":269,"x_min":60,"x_max":209,"o":"m 190 -542 l 79 -542 l 60 -800 l 209 -800 l 190 -542 z"},"(":{"ha":355,"x_min":44,"x_max":327,"o":"m 44 -279 l 44 -279 q 44 -373 61 -467 q 78 -561 111 -647 q 144 -733 192 -800 l 192 -800 l 327 -800 q 283 -725 252 -640 q 220 -555 203 -464 q 186 -373 186 -279 l 186 -279 q 186 -186 203 -95 q 220 -4 251 81 q 282 166 327 244 l 327 244 l 192 244 q 143 172 110 86 q 77 0 61 -93 q 44 -186 44 -279 z"},")":{"ha":355,"x_min":27,"x_max":311,"o":"m 311 -277 l 311 -277 q 311 -184 294 -90 q 277 4 244 90 q 211 176 163 244 l 163 244 l 28 244 q 72 169 103 84 q 134 -1 151 -92 q 168 -184 168 -277 l 168 -277 q 168 -372 152 -462 q 136 -552 105 -637 q 73 -722 27 -800 l 27 -800 l 163 -800 q 213 -729 246 -643 q 278 -557 295 -463 q 311 -370 311 -277 z"},"*":{"ha":537,"x_min":33,"x_max":504,"o":"m 202 -800 l 334 -800 l 316 -630 l 488 -678 l 504 -550 l 350 -540 l 451 -404 l 337 -343 l 266 -483 l 204 -344 l 86 -404 l 187 -540 l 33 -552 l 52 -678 l 220 -630 l 202 -800 z"},"+":{"ha":509,"x_min":35,"x_max":473,"o":"m 313 -112 l 195 -112 l 195 -294 l 35 -294 l 35 -411 l 195 -411 l 195 -595 l 313 -595 l 313 -411 l 473 -411 l 473 -294 l 313 -294 l 313 -112 z"},",":{"ha":287,"x_min":35,"x_max":227,"o":"m 76 -130 l 221 -130 l 227 -118 q 219 -72 208 -27 q 196 17 183 57 q 169 97 154 134 l 154 134 l 35 134 q 43 95 51 48 q 59 0 66 -47 q 73 -94 76 -130 l 76 -130 z"},"-":{"ha":326,"x_min":32,"x_max":294,"o":"m 294 -203 l 32 -203 l 32 -334 l 294 -334 l 294 -203 z"},".":{"ha":282,"x_min":55,"x_max":227,"o":"m 142 13 l 142 13 q 103 13 79 -9 q 55 -32 55 -74 l 55 -74 q 55 -119 78 -141 q 101 -163 142 -163 l 142 -163 q 181 -163 204 -141 q 227 -119 227 -74 l 227 -74 q 227 -31 204 -9 q 180 13 142 13 z"},"/":{"ha":435,"x_min":17,"x_max":418,"o":"m 154 244 l 17 244 l 281 -800 l 418 -800 l 154 244 z"},":":{"ha":282,"x_min":55,"x_max":227,"o":"m 142 13 l 142 13 q 103 13 79 -9 q 55 -32 55 -74 l 55 -74 q 55 -119 78 -141 q 101 -163 142 -163 l 142 -163 q 182 -163 205 -141 q 227 -119 227 -74 l 227 -74 q 227 -31 204 -9 q 181 13 142 13 z m 142 -382 l 142 -382 q 103 -382 79 -404 q 55 -426 55 -469 l 55 -469 q 55 -513 78 -535 q 101 -557 142 -557 l 142 -557 q 182 -557 205 -535 q 227 -514 227 -469 l 227 -469 q 227 -426 204 -404 q 181 -382 142 -382 z"},";":{"ha":284,"x_min":35,"x_max":227,"o":"m 77 -130 l 221 -130 l 227 -118 q 219 -72 208 -27 q 196 17 183 57 q 169 97 154 134 l 154 134 l 35 134 q 44 94 52 47 q 60 0 67 -47 q 73 -94 77 -130 l 77 -130 z m 142 -382 l 142 -382 q 103 -382 79 -404 q 55 -427 55 -469 l 55 -469 q 55 -513 78 -535 q 101 -557 142 -557 l 142 -557 q 181 -557 204 -535 q 227 -514 227 -469 l 227 -469 q 227 -426 204 -404 q 180 -382 142 -382 z"},"<":{"ha":509,"x_min":35,"x_max":473,"o":"m 473 -241 l 473 -111 l 35 -316 l 35 -396 l 473 -609 l 473 -480 l 202 -357 l 473 -241 z"},"=":{"ha":509,"x_min":35,"x_max":474,"o":"m 474 -186 l 35 -186 l 35 -303 l 474 -303 l 474 -186 z m 474 -402 l 35 -402 l 35 -518 l 474 -518 l 474 -402 z"},">":{"ha":509,"x_min":35,"x_max":473,"o":"m 473 -317 l 35 -111 l 35 -241 l 306 -358 l 35 -479 l 35 -609 l 473 -396 l 473 -317 z"},"?":{"ha":428,"x_min":33,"x_max":405,"o":"m 212 -724 l 212 -724 q 308 -724 357 -676 q 405 -628 405 -553 l 405 -553 q 405 -512 396 -480 q 386 -449 366 -420 q 345 -391 311 -357 l 311 -357 q 291 -336 280 -320 q 268 -305 264 -292 q 259 -279 259 -265 l 259 -265 l 259 -245 l 127 -245 l 127 -275 q 127 -307 135 -332 q 143 -358 160 -381 q 176 -404 201 -428 l 201 -428 q 224 -449 236 -465 q 248 -482 253 -498 q 258 -515 258 -535 l 258 -535 q 258 -564 238 -578 q 217 -593 187 -593 l 187 -593 q 162 -593 136 -586 q 110 -579 86 -565 l 86 -565 l 33 -678 q 79 -702 120 -713 q 161 -724 212 -724 z m 195 13 l 195 13 q 156 13 132 -9 q 108 -32 108 -74 l 108 -74 q 108 -119 132 -141 q 155 -163 195 -163 l 195 -163 q 235 -163 258 -141 q 281 -119 281 -74 l 281 -74 q 281 -31 258 -9 q 235 13 195 13 z"},"[":{"ha":343,"x_min":64,"x_max":308,"o":"m 308 244 l 64 244 l 64 -800 l 308 -800 l 308 -687 l 200 -687 l 200 131 l 308 131 l 308 244 z"},"\\":{"ha":435,"x_min":17,"x_max":418,"o":"m 418 244 l 281 244 l 17 -800 l 154 -800 l 418 244 z"},"]":{"ha":343,"x_min":35,"x_max":279,"o":"m 279 244 l 35 244 l 35 131 l 143 131 l 143 -687 l 35 -687 l 35 -800 l 279 -800 l 279 244 z"},"^":{"ha":538,"x_min":18,"x_max":521,"o":"m 148 -293 l 18 -293 l 224 -715 l 301 -715 l 521 -293 l 389 -293 l 264 -535 l 148 -293 z"},"_":{"ha":389,"x_min":-2,"x_max":391,"o":"m 391 160 l -2 160 l -2 90 l 391 90 l 391 160 z"},"{":{"ha":402,"x_min":24,"x_max":366,"o":"m 366 124 l 366 244 q 274 244 227 225 q 179 205 162 168 q 144 131 144 80 l 144 80 l 144 -133 q 144 -177 115 -195 q 86 -214 24 -215 l 24 -215 l 24 -344 q 86 -345 115 -363 q 144 -381 144 -426 l 144 -426 l 144 -636 q 144 -688 162 -724 q 179 -761 227 -780 q 274 -800 366 -800 l 366 -800 l 366 -680 q 319 -680 301 -662 q 283 -645 283 -608 l 283 -608 l 283 -394 q 283 -345 254 -318 q 225 -291 169 -283 l 169 -283 l 169 -277 q 225 -268 254 -241 q 283 -215 283 -165 l 283 -165 l 283 52 q 283 76 291 92 q 298 108 317 116 q 335 124 366 124 l 366 124 z"},"|":{"ha":551,"x_min":216,"x_max":335,"o":"m 335 244 l 216 244 l 216 -800 l 335 -800 l 335 244 z"},"}":{"ha":402,"x_min":35,"x_max":377,"o":"m 35 -680 l 35 -800 q 128 -800 176 -780 q 223 -761 241 -724 q 258 -688 258 -636 l 258 -636 l 258 -426 q 258 -381 287 -363 q 316 -345 377 -343 l 377 -343 l 377 -215 q 316 -213 287 -195 q 258 -177 258 -132 l 258 -132 l 258 80 q 258 132 241 169 q 223 205 175 225 q 127 244 35 244 l 35 244 l 35 124 q 82 124 101 107 q 119 89 119 52 l 119 52 l 119 -165 q 119 -214 148 -241 q 177 -268 233 -276 l 233 -276 l 233 -282 q 177 -290 148 -317 q 119 -344 119 -393 l 119 -393 l 119 -608 q 119 -633 111 -648 q 103 -664 85 -672 q 67 -680 35 -680 l 35 -680 z"},"~":{"ha":509,"x_min":35,"x_max":474,"o":"m 238 -297 l 238 -297 q 207 -311 186 -317 q 164 -323 143 -323 l 143 -323 q 115 -323 87 -307 q 59 -291 35 -264 l 35 -264 l 35 -387 q 59 -413 87 -426 q 115 -440 149 -440 l 149 -440 q 178 -440 207 -432 q 236 -424 271 -408 l 271 -408 q 300 -394 323 -388 q 346 -382 367 -382 l 367 -382 q 394 -382 422 -398 q 450 -415 474 -441 l 474 -441 l 474 -318 q 450 -292 422 -279 q 394 -266 359 -266 l 359 -266 q 330 -266 302 -273 q 274 -281 238 -297 z"}," ":{"ha":247,"x_min":0,"x_max":0,"o":""},"­":{"ha":326,"x_min":32,"x_max":294,"o":"m 294 -203 l 32 -203 l 32 -334 l 294 -334 l 294 -203 z"},"–":{"ha":500,"x_min":39,"x_max":461,"o":"m 461 -206 l 39 -206 l 39 -330 l 461 -330 l 461 -206 z"},"—":{"ha":1000,"x_min":39,"x_max":961,"o":"m 961 -206 l 39 -206 l 39 -330 l 961 -330 l 961 -206 z"},"‘":{"ha":271,"x_min":40,"x_max":233,"o":"m 191 -536 l 46 -536 l 40 -547 q 48 -595 60 -638 q 71 -682 85 -723 q 99 -764 113 -800 l 113 -800 l 233 -800 q 224 -760 216 -712 q 207 -664 201 -618 q 194 -572 191 -536 l 191 -536 z"},"’":{"ha":270,"x_min":40,"x_max":232,"o":"m 81 -800 l 226 -800 l 232 -789 q 224 -742 213 -698 q 201 -654 188 -614 q 175 -574 159 -536 l 159 -536 l 40 -536 q 46 -564 53 -599 q 59 -634 65 -671 q 70 -708 75 -741 q 79 -775 81 -800 l 81 -800 z"},"“":{"ha":494,"x_min":40,"x_max":456,"o":"m 414 -537 l 270 -537 l 264 -547 q 273 -595 284 -639 q 295 -683 309 -723 q 322 -764 337 -800 l 337 -800 l 456 -800 q 447 -758 439 -712 q 430 -667 424 -621 q 418 -576 414 -537 l 414 -537 z m 190 -537 l 46 -537 l 40 -547 q 48 -595 60 -639 q 71 -683 85 -723 q 98 -764 113 -800 l 113 -800 l 232 -800 q 224 -760 216 -712 q 207 -665 201 -619 q 194 -573 190 -537 l 190 -537 z"},"”":{"ha":494,"x_min":40,"x_max":456,"o":"m 306 -800 l 449 -800 l 456 -790 q 448 -742 437 -698 q 425 -654 412 -614 q 398 -574 382 -537 l 382 -537 l 264 -537 q 273 -582 281 -627 q 289 -672 296 -716 q 302 -760 306 -800 l 306 -800 z m 81 -800 l 226 -800 l 232 -790 q 224 -742 213 -698 q 201 -654 188 -614 q 175 -574 159 -537 l 159 -537 l 40 -537 q 46 -564 52 -599 q 58 -634 64 -671 q 70 -708 75 -741 q 79 -775 81 -800 l 81 -800 z"},"…":{"ha":829,"x_min":55,"x_max":774,"o":"m 142 13 l 142 13 q 103 13 79 -9 q 55 -32 55 -74 l 55 -74 q 55 -119 78 -141 q 101 -163 142 -163 l 142 -163 q 181 -163 205 -141 q 228 -119 228 -74 l 228 -74 q 228 -31 205 -9 q 181 13 142 13 z m 415 13 l 415 13 q 376 13 352 -9 q 328 -32 328 -74 l 328 -74 q 328 -119 351 -141 q 374 -163 415 -163 l 415 -163 q 454 -163 477 -141 q 500 -119 500 -74 l 500 -74 q 500 -31 477 -9 q 454 13 415 13 z m 688 13 l 688 13 q 649 13 625 -9 q 601 -32 601 -74 l 601 -74 q 601 -119 625 -141 q 648 -163 688 -163 l 688 -163 q 728 -163 751 -141 q 774 -119 774 -74 l 774 -74 q 774 -31 751 -9 q 727 13 688 13 z"},"×":{"ha":509,"x_min":40,"x_max":468,"o":"m 253 -434 l 386 -566 l 468 -485 l 334 -353 l 466 -221 l 386 -139 l 253 -272 l 121 -140 l 41 -221 l 172 -353 l 40 -484 l 121 -566 l 253 -434 z"},"÷":{"ha":509,"x_min":35,"x_max":473,"o":"m 473 -294 l 35 -294 l 35 -411 l 473 -411 l 473 -294 z m 254 -88 l 254 -88 q 222 -88 202 -108 q 181 -128 181 -168 l 181 -168 q 181 -208 201 -228 q 221 -248 254 -248 l 254 -248 q 287 -248 307 -228 q 327 -208 327 -168 l 327 -168 q 327 -128 307 -108 q 287 -88 254 -88 z m 254 -457 l 254 -457 q 222 -457 202 -477 q 181 -497 181 -537 l 181 -537 q 181 -578 201 -597 q 221 -617 254 -617 l 254 -617 q 287 -617 307 -597 q 327 -578 327 -537 l 327 -537 q 327 -498 307 -477 q 287 -457 254 -457 z"},"−":{"ha":509,"x_min":36,"x_max":473,"o":"m 473 -294 l 36 -294 l 36 -411 l 473 -411 l 473 -294 z"},"₹":{"ha":509,"x_min":48,"x_max":465,"o":"m 366 0 l 196 0 l 49 -249 l 66 -353 l 91 -353 q 130 -353 149 -360 q 168 -367 179 -380 l 179 -380 q 193 -397 198 -420 q 203 -443 203 -480 l 203 -480 q 203 -518 196 -542 q 189 -566 173 -582 l 173 -582 q 162 -593 145 -598 q 127 -604 97 -604 l 97 -604 l 48 -604 l 48 -714 l 465 -714 l 465 -604 l 297 -604 q 317 -587 331 -555 q 345 -523 345 -477 l 345 -477 q 345 -412 329 -368 q 312 -325 277 -297 q 242 -270 187 -257 l 187 -257 l 187 -277 l 366 0 z m 465 -423 l 48 -423 l 48 -537 l 465 -537 l 465 -423 z"},"꠰":{"ha":269,"x_min":60,"x_max":208,"o":"m 60 0 l 60 -565 l 208 -565 l 208 0 l 60 0 z"},"꠱":{"ha":471,"x_min":60,"x_max":411,"o":"m 60 0 l 60 -565 l 207 -565 l 207 0 l 60 0 z m 265 0 l 265 -565 l 411 -565 l 411 0 l 265 0 z"},"꠲":{"ha":674,"x_min":60,"x_max":614,"o":"m 60 0 l 60 -565 l 206 -565 l 206 0 l 60 0 z m 264 0 l 264 -565 l 410 -565 l 410 0 l 264 0 z m 468 0 l 468 -565 l 614 -565 l 614 0 l 468 0 z"},"॑":{"ha":0,"x_min":-329,"x_max":-229,"o":"m -329 -651 l -329 -864 l -229 -864 l -229 -651 l -329 -651 z"},"॒":{"ha":0,"x_min":-500,"x_max":-58,"o":"m -58 92 l -58 186 l -500 186 l -500 92 l -58 92 z"},"।":{"ha":340,"x_min":125,"x_max":276,"o":"m 276 49 l 125 49 l 125 -606 l 276 -606 l 276 49 z"},"॥":{"ha":597,"x_min":125,"x_max":534,"o":"m 534 49 l 383 49 l 383 -606 l 534 -606 l 534 49 z m 277 49 l 125 49 l 125 -606 l 277 -606 l 277 49 z"},"᳚":{"ha":0,"x_min":-390,"x_max":-167,"o":"m -390 -651 l -390 -864 l -302 -864 l -302 -651 l -390 -651 z m -255 -651 l -255 -864 l -167 -864 l -167 -651 l -255 -651 z"},"̇":{"ha":0,"x_min":-320,"x_max":-164,"o":"m -320 -701 l -320 -701 q -320 -745 -297 -761 q -274 -778 -241 -778 l -241 -778 q -209 -778 -186 -761 q -164 -745 -164 -701 l -164 -701 q -164 -656 -186 -640 q -209 -624 -242 -624 l -242 -624 q -274 -624 -297 -640 q -320 -656 -320 -701 z"},"̣":{"ha":0,"x_min":-320,"x_max":-164,"o":"m -320 136 l -320 136 q -320 91 -297 75 q -274 59 -242 59 l -242 59 q -210 59 -187 75 q -164 91 -164 136 l -164 136 q -164 180 -187 197 q -210 213 -242 213 l -242 213 q -274 213 -297 197 q -320 180 -320 136 z"},"‐":{"ha":326,"x_min":32,"x_max":294,"o":"m 294 -203 l 32 -203 l 32 -334 l 294 -334 l 294 -203 z"},"​":{"ha":0,"x_min":0,"x_max":0,"o":""},"‌":{"ha":0,"x_min":0,"x_max":0,"o":""},"‍":{"ha":0,"x_min":-161,"x_max":161,"o":"m 29 244 l -29 244 l -29 -565 l -121 -474 l -161 -514 l -40 -631 l -161 -748 l -121 -788 l 0 -669 l 121 -788 l 161 -748 l 40 -631 l 161 -514 l 121 -474 l 29 -565 l 29 244 z"},"◌":{"ha":562,"x_min":57,"x_max":504,"o":"m 89 -231 l 89 -231 q 57 -231 57 -264 l 57 -264 q 57 -295 89 -295 l 89 -295 q 121 -295 121 -264 l 121 -264 q 121 -231 89 -231 z m 138 -95 l 138 -95 q 106 -95 106 -127 l 106 -127 q 106 -158 138 -158 l 138 -158 q 169 -158 169 -127 l 169 -127 q 169 -95 138 -95 z m 281 -40 l 281 -40 q 249 -40 249 -72 l 249 -72 q 249 -104 281 -104 l 281 -104 q 312 -104 312 -72 l 312 -72 q 312 -40 281 -40 z m 138 -369 l 138 -369 q 106 -369 106 -401 l 106 -401 q 106 -432 138 -432 l 138 -432 q 169 -432 169 -401 l 169 -401 q 169 -369 138 -369 z m 423 -95 l 423 -95 q 391 -95 391 -127 l 391 -127 q 391 -158 423 -158 l 423 -158 q 455 -158 455 -127 l 455 -127 q 455 -95 423 -95 z m 281 -424 l 281 -424 q 249 -424 249 -456 l 249 -456 q 249 -487 281 -487 l 281 -487 q 312 -487 312 -456 l 312 -456 q 312 -424 281 -424 z m 472 -231 l 472 -231 q 441 -231 441 -264 l 441 -264 q 441 -295 472 -295 l 472 -295 q 504 -295 504 -264 l 504 -264 q 504 -231 472 -231 z m 423 -369 l 423 -369 q 391 -369 391 -401 l 391 -401 q 391 -432 423 -432 l 423 -432 q 455 -432 455 -401 l 455 -401 q 455 -369 423 -369 z"},"«":{"ha":571,"x_min":30,"x_max":539,"o":"m 30 -270 l 30 -283 l 192 -509 l 301 -451 l 189 -277 l 301 -104 l 192 -45 l 30 -270 z m 268 -270 l 268 -283 l 430 -509 l 539 -451 l 428 -277 l 539 -104 l 430 -45 l 268 -270 z"},"»":{"ha":571,"x_min":33,"x_max":542,"o":"m 542 -283 l 542 -270 l 380 -45 l 271 -104 l 383 -277 l 271 -451 l 380 -509 l 542 -283 z m 304 -283 l 304 -270 l 141 -45 l 33 -104 l 144 -277 l 33 -451 l 141 -509 l 304 -283 z"},"̈":{"ha":0,"x_min":-162,"x_max":163,"o":"m -163 -686 l -163 -686 q -163 -722 -143 -739 q -124 -757 -95 -757 l -95 -757 q -65 -757 -45 -738 q -26 -720 -26 -686 l -26 -686 q -26 -653 -45 -634 q -65 -616 -95 -616 l -95 -616 q -124 -616 -143 -634 q -163 -652 -163 -686 z m 25 -686 l 25 -686 q 25 -722 45 -739 q 64 -757 94 -757 l 94 -757 q 125 -757 144 -738 q 163 -720 163 -686 l 163 -686 q 163 -653 144 -634 q 125 -616 93 -616 l 93 -616 q 63 -616 44 -634 q 25 -653 25 -686 z"},"̀":{"ha":0,"x_min":-447,"x_max":-185,"o":"m -447 -766 l -277 -766 q -265 -746 -248 -717 q -231 -688 -213 -662 q -196 -636 -184 -619 l -184 -619 l -184 -606 l -291 -606 q -306 -618 -327 -637 q -349 -657 -372 -679 q -395 -702 -415 -722 q -435 -743 -447 -756 l -447 -756 l -447 -766 z"},"́":{"ha":0,"x_min":-337,"x_max":-74,"o":"m -74 -766 l -74 -756 q -86 -742 -105 -723 q -124 -705 -146 -683 q -168 -662 -190 -642 q -212 -622 -230 -606 l -230 -606 l -337 -606 l -337 -619 q -321 -644 -304 -669 q -287 -694 -271 -719 q -256 -744 -245 -766 l -245 -766 l -74 -766 z"},"̋":{"ha":0,"x_min":-138,"x_max":260,"o":"m 260 -766 l 260 -756 q 253 -742 237 -722 q 220 -702 199 -681 q 177 -660 156 -640 q 134 -620 117 -606 l 117 -606 l 39 -606 l 39 -619 q 55 -648 71 -676 q 87 -704 99 -727 q 111 -751 118 -766 l 118 -766 l 260 -766 z m 82 -766 l 82 -756 q 75 -741 59 -722 q 43 -703 22 -682 q 1 -661 -21 -641 q -44 -622 -64 -606 l -64 -606 l -138 -606 l -138 -619 q -122 -649 -106 -676 q -91 -704 -78 -727 q -66 -750 -59 -766 l -59 -766 l 82 -766 z"},"̄":{"ha":0,"x_min":-151,"x_max":151,"o":"m -151 -723 l 151 -723 l 151 -615 l -151 -615 l -151 -723 z"},"˙":{"ha":242,"x_min":40,"x_max":202,"o":"m 121 -768 l 121 -768 q 161 -768 182 -749 q 202 -730 202 -689 l 202 -689 q 202 -648 181 -629 q 160 -611 121 -611 l 121 -611 q 83 -611 62 -629 q 40 -648 40 -689 l 40 -689 q 40 -731 61 -749 q 82 -768 121 -768 z"},"°":{"ha":381,"x_min":28,"x_max":353,"o":"m 190 -411 l 190 -411 q 144 -411 107 -430 q 70 -450 49 -485 q 28 -521 28 -567 l 28 -567 q 28 -614 50 -649 q 71 -684 108 -704 q 144 -724 190 -724 l 190 -724 q 238 -724 275 -704 q 311 -684 332 -649 q 353 -614 353 -567 l 353 -567 q 353 -521 332 -485 q 311 -450 275 -430 q 238 -411 190 -411 z m 190 -501 l 190 -501 q 219 -501 238 -519 q 256 -537 256 -567 l 256 -567 q 256 -598 238 -616 q 220 -634 190 -634 l 190 -634 q 162 -634 144 -616 q 125 -598 125 -567 l 125 -567 q 125 -537 144 -519 q 163 -501 190 -501 z"},"A":{"ha":595,"x_min":0,"x_max":595,"o":"m 595 0 l 426 0 l 392 -156 l 205 -156 l 170 0 l 0 0 l 195 -715 l 398 -715 l 595 0 z m 363 -291 l 326 -461 q 321 -485 316 -509 q 311 -533 306 -556 q 301 -579 298 -599 l 298 -599 q 295 -581 290 -556 q 285 -531 280 -506 q 274 -481 270 -462 l 270 -462 l 233 -291 l 363 -291 z"},"Á":{"ha":595,"x_min":0,"x_max":595,"o":"m 595 0 l 426 0 l 392 -156 l 205 -156 l 170 0 l 0 0 l 195 -715 l 398 -715 l 595 0 z m 363 -291 l 326 -461 q 321 -485 316 -509 q 311 -533 306 -556 q 301 -579 298 -599 l 298 -599 q 295 -581 290 -556 q 285 -531 280 -506 q 274 -481 270 -462 l 270 -462 l 233 -291 l 363 -291 z m 476 -931 l 476 -921 q 464 -907 445 -888 q 426 -870 404 -848 q 382 -827 360 -807 q 338 -787 320 -771 l 320 -771 l 213 -771 l 213 -784 q 229 -809 246 -834 q 263 -859 279 -884 q 294 -909 305 -931 l 305 -931 l 476 -931 z"},"Ă":{"ha":595,"x_min":0,"x_max":595,"o":"m 595 0 l 426 0 l 392 -156 l 205 -156 l 170 0 l 0 0 l 195 -715 l 398 -715 l 595 0 z m 363 -291 l 326 -461 q 321 -485 316 -509 q 311 -533 306 -556 q 301 -579 298 -599 l 298 -599 q 295 -581 290 -556 q 285 -531 280 -506 q 274 -481 270 -462 l 270 -462 l 233 -291 l 363 -291 z m 379 -944 l 467 -944 q 466 -892 443 -853 q 420 -814 383 -792 q 345 -771 297 -771 l 297 -771 q 224 -771 178 -816 q 131 -861 130 -944 l 130 -944 l 218 -944 q 220 -918 230 -903 q 240 -889 258 -883 q 275 -877 297 -877 l 297 -877 q 319 -877 337 -883 q 354 -889 366 -903 q 377 -918 379 -944 l 379 -944 z"},"Â":{"ha":595,"x_min":0,"x_max":595,"o":"m 595 0 l 426 0 l 392 -156 l 205 -156 l 170 0 l 0 0 l 195 -715 l 398 -715 l 595 0 z m 363 -291 l 326 -461 q 321 -485 316 -509 q 311 -533 306 -556 q 301 -579 298 -599 l 298 -599 q 295 -581 290 -556 q 285 -531 280 -506 q 274 -481 270 -462 l 270 -462 l 233 -291 l 363 -291 z m 220 -931 l 376 -931 q 388 -909 405 -884 q 422 -859 442 -833 q 461 -808 480 -784 l 480 -784 l 480 -771 l 385 -771 q 366 -785 343 -805 q 320 -825 298 -852 l 298 -852 q 275 -825 252 -805 q 229 -785 211 -771 l 211 -771 l 116 -771 l 116 -784 q 132 -803 152 -830 q 172 -857 191 -884 q 210 -912 220 -931 l 220 -931 z"}}}
